BlackItalic.ufo
<glyph name="quotedbl" format="1">
  <advance width="550"/>
  <unicode hex="0022"/>
  <outline>
    <contour>
      <point x="213" y="700" type="line"/>
      <point x="413" y="700" type="line"/>
      <point x="240" y="370" type="line"/>
      <point x="115" y="370" type="line"/>
    </contour>
    <contour>
      <point x="443" y="700" type="line"/>
      <point x="643" y="700" type="line"/>
      <point x="470" y="370" type="line"/>
      <point x="345" y="370" type="line"/>
    </contour>
  </outline>
</glyph>
<glyph name="dollar" format="1">
  <advance width="647"/>
  <unicode hex="0024"/>
  <outline>
    <contour>
      <point x="408" y="818" type="line"/>
      <point x="562" y="818" type="line"/>
      <point x="517" y="618" type="line"/>
      <point x="383" y="618" type="line"/>
    </contour>
    <contour>
      <point x="286" y="70" type="line"/>
      <point x="419" y="70" type="line"/>
      <point x="397" y="-112" type="line"/>
      <point x="244" y="-112" type="line"/>
    </contour>
    <contour>
      <point x="538" y="474" type="line"/>
      <point x="518" y="532"/>
      <point x="482" y="559"/>
      <point x="445" y="559" type="curve" smooth="yes"/>
      <point x="405" y="559"/>
      <point x="384" y="535"/>
      <point x="380" y="514" type="curve" smooth="yes"/>
      <point x="371" y="465"/>
      <point x="443" y="455"/>
      <point x="523" y="424" type="curve" smooth="yes"/>
      <point x="624" y="385"/>
      <point x="683" y="317"/>
      <point x="662" y="200" type="curve" smooth="yes"/>
      <point x="637" y="61"/>
      <point x="502" y="-10"/>
      <point x="323" y="-10" type="curve" smooth="yes"/>
      <point x="188" y="-10"/>
      <point x="77" y="73"/>
      <point x="48" y="158" type="curve"/>
      <point x="215" y="266" type="line"/>
      <point x="254" y="190"/>
      <point x="291" y="158"/>
      <point x="358" y="158" type="curve" smooth="yes"/>
      <point x="404" y="158"/>
      <point x="424" y="171"/>
      <point x="429" y="201" type="curve" smooth="yes"/>
      <point x="435" y="236"/>
      <point x="388" y="248"/>
      <point x="311" y="281" type="curve" smooth="yes"/>
      <point x="247" y="308"/>
      <point x="129" y="369"/>
      <point x="154" y="510" type="curve" smooth="yes"/>
      <point x="173" y="616"/>
      <point x="299" y="710"/>
      <point x="463" y="710" type="curve" smooth="yes"/>
      <point x="626" y="710"/>
      <point x="679" y="642"/>
      <point x="716" y="564" type="curve"/>
    </contour>
  </outline>
</glyph>
<glyph name="ampersand" format="1">
  <advance width="799"/>
  <unicode hex="0026"/>
  <outline>
    <contour>
      <point x="74" y="190" type="curve"/>
      <point x="280" y="209" type="line"/>
      <point x="275" y="178"/>
      <point x="291" y="145"/>
      <point x="351" y="145" type="curve" smooth="yes"/>
      <point x="458" y="145"/>
      <point x="582" y="236"/>
      <point x="674" y="356" type="curve"/>
      <point x="781" y="255" type="line"/>
      <point x="684" y="135"/>
      <point x="501" y="-15"/>
      <point x="292" y="-15" type="curve" smooth="yes"/>
      <point x="146" y="-15"/>
      <point x="51" y="61"/>
    </contour>
    <contour>
      <point x="227" y="536" type="line"/>
      <point x="242" y="620"/>
      <point x="346" y="721"/>
      <point x="501" y="721" type="curve" smooth="yes"/>
      <point x="647" y="721"/>
      <point x="707" y="628"/>
      <point x="692" y="544" type="curve"/>
      <point x="517" y="522" type="line"/>
      <point x="521" y="542"/>
      <point x="505" y="570"/>
      <point x="473" y="570" type="curve" smooth="yes"/>
      <point x="433" y="570"/>
      <point x="412" y="541"/>
      <point x="408" y="521" type="curve"/>
    </contour>
    <contour>
      <point x="287" y="364" type="line" smooth="yes"/>
      <point x="247" y="427"/>
      <point x="215" y="469"/>
      <point x="227" y="536" type="curve"/>
      <point x="408" y="521" type="line"/>
      <point x="402" y="485"/>
      <point x="438" y="456"/>
      <point x="482" y="385" type="curve" smooth="yes"/>
      <point x="784" y="0" type="line"/>
      <point x="564" y="0" type="line"/>
    </contour>
    <contour>
      <point x="692" y="544" type="line"/>
      <point x="673" y="437"/>
      <point x="605" y="413"/>
      <point x="467" y="328" type="curve" smooth="yes"/>
      <point x="389" y="280"/>
      <point x="292" y="279"/>
      <point x="280" y="209" type="curve"/>
      <point x="74" y="190" type="line"/>
      <point x="103" y="357"/>
      <point x="311" y="392"/>
      <point x="388" y="422" type="curve" smooth="yes"/>
      <point x="469" y="454"/>
      <point x="512" y="491"/>
      <point x="517" y="522" type="curve"/>
    </contour>
  </outline>
</glyph>
<glyph name="quotesingle" format="1">
  <advance width="320"/>
  <unicode hex="0027"/>
  <outline>
    <contour>
      <point x="213" y="700" type="line"/>
      <point x="413" y="700" type="line"/>
      <point x="240" y="370" type="line"/>
      <point x="115" y="370" type="line"/>
    </contour>
  </outline>
</glyph>
<glyph name="parenright" format="1">
  <advance width="360"/>
  <unicode hex="0029"/>
  <outline>
    <contour>
      <point x="145" y="-200" type="curve"/>
      <point x="-30" y="-200" type="line"/>
      <point x="66" y="-50"/>
      <point x="141" y="120"/>
      <point x="171" y="290" type="curve" smooth="yes"/>
      <point x="201" y="460"/>
      <point x="187" y="630"/>
      <point x="143" y="780" type="curve"/>
      <point x="318" y="780" type="line"/>
      <point x="372" y="630"/>
      <point x="386" y="460"/>
      <point x="356" y="290" type="curve" smooth="yes"/>
      <point x="326" y="120"/>
      <point x="251" y="-50"/>
    </contour>
  </outline>
</glyph>
<glyph name="asterisk" format="1">
  <advance width="592"/>
  <unicode hex="002A"/>
  <outline>
    <contour>
      <point x="622" y="606" type="line"/>
      <point x="648" y="435" type="line"/>
      <point x="380" y="397" type="line"/>
      <point x="367" y="483" type="line"/>
    </contour>
    <contour>
      <point x="572" y="283" type="line"/>
      <point x="407" y="177" type="line"/>
      <point x="333" y="414" type="line"/>
      <point x="414" y="466" type="line"/>
    </contour>
    <contour>
      <point x="247" y="177" type="line"/>
      <point x="120" y="283" type="line"/>
      <point x="342" y="466" type="line"/>
      <point x="405" y="414" type="line"/>
    </contour>
    <contour>
      <point x="98" y="435" type="line"/>
      <point x="184" y="606" type="line"/>
      <point x="395" y="483" type="line"/>
      <point x="352" y="397" type="line"/>
    </contour>
    <contour>
      <point x="329" y="700" type="line"/>
      <point x="509" y="700" type="line"/>
      <point x="419" y="440" type="line"/>
      <point x="329" y="440" type="line"/>
    </contour>
  </outline>
</glyph>
<glyph name="hyphen" format="1">
  <advance width="230"/>
  <unicode hex="002D"/>
  <outline>
    <contour>
      <point x="32" y="155" type="line"/>
      <point x="61" y="320" type="line"/>
      <point x="281" y="320" type="line"/>
      <point x="252" y="155" type="line"/>
    </contour>
  </outline>
</glyph>
<glyph name="zero" format="1">
  <advance width="700"/>
  <unicode hex="0030"/>
  <outline>
    <contour>
      <point x="312" y="350" type="curve" smooth="yes"/>
      <point x="292" y="237"/>
      <point x="322" y="170"/>
      <point x="380" y="170" type="curve" smooth="yes"/>
      <point x="438" y="170"/>
      <point x="492" y="237"/>
      <point x="512" y="350" type="curve" smooth="yes"/>
      <point x="532" y="463"/>
      <point x="501" y="530"/>
      <point x="443" y="530" type="curve" smooth="yes"/>
      <point x="385" y="530"/>
      <point x="332" y="463"/>
    </contour>
    <contour>
      <point x="102" y="350" type="curve" smooth="yes"/>
      <point x="144" y="589"/>
      <point x="292" y="715"/>
      <point x="476" y="715" type="curve" smooth="yes"/>
      <point x="670" y="715"/>
      <point x="764" y="589"/>
      <point x="722" y="350" type="curve" smooth="yes"/>
      <point x="680" y="111"/>
      <point x="541" y="-15"/>
      <point x="347" y="-15" type="curve" smooth="yes"/>
      <point x="163" y="-15"/>
      <point x="60" y="111"/>
    </contour>
  </outline>
</glyph>
<glyph name="three" format="1">
  <advance width="666"/>
  <unicode hex="0033"/>
  <outline>
    <contour>
      <point x="347" y="335" type="curve"/>
      <point x="363" y="424" type="line"/>
      <point x="433" y="424"/>
      <point x="491" y="460"/>
      <point x="498" y="501" type="curve" smooth="yes"/>
      <point x="503" y="527"/>
      <point x="486" y="545"/>
      <point x="443" y="545" type="curve" smooth="yes"/>
      <point x="398" y="545"/>
      <point x="362" y="517"/>
      <point x="355" y="476" type="curve"/>
      <point x="154" y="476" type="line"/>
      <point x="178" y="610"/>
      <point x="304" y="715"/>
      <point x="474" y="715" type="curve" smooth="yes"/>
      <point x="654" y="715"/>
      <point x="737" y="630"/>
      <point x="717" y="516" type="curve" smooth="yes"/>
      <point x="693" y="382"/>
      <point x="532" y="335"/>
    </contour>
    <contour>
      <point x="334" y="-20" type="curve" smooth="yes"/>
      <point x="144" y="-20"/>
      <point x="59" y="111"/>
      <point x="83" y="245" type="curve"/>
      <point x="299" y="245" type="line"/>
      <point x="286" y="174"/>
      <point x="329" y="150"/>
      <point x="374" y="150" type="curve" smooth="yes"/>
      <point x="419" y="150"/>
      <point x="459" y="164"/>
      <point x="468" y="215" type="curve" smooth="yes"/>
      <point x="475" y="256"/>
      <point x="450" y="295"/>
      <point x="340" y="295" type="curve"/>
      <point x="358" y="399" type="line"/>
      <point x="573" y="399"/>
      <point x="705" y="339"/>
      <point x="680" y="195" type="curve" smooth="yes"/>
      <point x="658" y="71"/>
      <point x="534" y="-20"/>
    </contour>
  </outline>
</glyph>
<glyph name="five" format="1">
  <advance width="694"/>
  <unicode hex="0035"/>
  <outline>
    <contour>
      <point x="693" y="220" type="curve" smooth="yes"/>
      <point x="663" y="51"/>
      <point x="481" y="-15"/>
      <point x="346" y="-15" type="curve" smooth="yes"/>
      <point x="217" y="-15"/>
      <point x="128" y="12"/>
      <point x="57" y="42" type="curve"/>
      <point x="154" y="236" type="line"/>
      <point x="218" y="196"/>
      <point x="285" y="185"/>
      <point x="322" y="185" type="curve" smooth="yes"/>
      <point x="397" y="185"/>
      <point x="446" y="199"/>
      <point x="455" y="250" type="curve" smooth="yes"/>
      <point x="464" y="301"/>
      <point x="399" y="310"/>
      <point x="344" y="310" type="curve" smooth="yes"/>
      <point x="297" y="310"/>
      <point x="206" y="304"/>
      <point x="130" y="277" type="curve"/>
      <point x="306" y="373" type="line"/>
      <point x="373" y="433"/>
      <point x="438" y="445"/>
      <point x="517" y="445" type="curve" smooth="yes"/>
      <point x="622" y="445"/>
      <point x="719" y="369"/>
    </contour>
    <contour>
      <point x="431" y="510" type="line"/>
      <point x="343" y="357" type="line"/>
      <point x="130" y="277" type="line"/>
      <point x="305" y="700" type="line"/>
      <point x="755" y="700" type="line"/>
      <point x="722" y="510" type="line"/>
    </contour>
  </outline>
</glyph>
<glyph name="six" format="1">
  <advance width="726"/>
  <unicode hex="0036"/>
  <outline>
    <contour>
      <point x="314" y="255" type="curve" smooth="yes"/>
      <point x="304" y="199"/>
      <point x="339" y="165"/>
      <point x="392" y="165" type="curve" smooth="yes"/>
      <point x="445" y="165"/>
      <point x="492" y="199"/>
      <point x="502" y="255" type="curve" smooth="yes"/>
      <point x="512" y="311"/>
      <point x="477" y="347"/>
      <point x="424" y="347" type="curve" smooth="yes"/>
      <point x="371" y="347"/>
      <point x="324" y="311"/>
    </contour>
    <contour>
      <point x="458" y="695" type="line"/>
      <point x="737" y="695" type="line"/>
      <point x="465" y="464" type="line"/>
      <point x="408" y="437" type="line"/>
      <point x="459" y="475"/>
      <point x="486" y="483"/>
      <point x="539" y="483" type="curve" smooth="yes"/>
      <point x="638" y="483"/>
      <point x="747" y="404"/>
      <point x="721" y="255" type="curve" smooth="yes"/>
      <point x="688" y="66"/>
      <point x="529" y="-20"/>
      <point x="359" y="-20" type="curve" smooth="yes"/>
      <point x="189" y="-20"/>
      <point x="62" y="66"/>
      <point x="95" y="255" type="curve" smooth="yes"/>
      <point x="110" y="342"/>
      <point x="170" y="412"/>
      <point x="239" y="480" type="curve" smooth="yes"/>
    </contour>
  </outline>
</glyph>
<glyph name="seven" format="1">
  <advance width="650"/>
  <unicode hex="0037"/>
  <outline>
    <contour>
      <point x="117" y="495" type="line"/>
      <point x="153" y="700" type="line"/>
      <point x="773" y="700" type="line"/>
      <point x="310" y="0" type="line"/>
      <point x="71" y="0" type="line"/>
      <point x="416" y="495" type="line"/>
    </contour>
  </outline>
</glyph>
<glyph name="eight" format="1">
  <advance width="676"/>
  <unicode hex="0038"/>
  <outline>
    <contour>
      <point x="169" y="531" type="curve" smooth="yes"/>
      <point x="192" y="660"/>
      <point x="325" y="720"/>
      <point x="465" y="720" type="curve" smooth="yes"/>
      <point x="605" y="720"/>
      <point x="718" y="660"/>
      <point x="695" y="531" type="curve" smooth="yes"/>
      <point x="670" y="392"/>
      <point x="512" y="335"/>
      <point x="397" y="335" type="curve" smooth="yes"/>
      <point x="282" y="335"/>
      <point x="144" y="392"/>
    </contour>
    <contour>
      <point x="371" y="511" type="curve" smooth="yes"/>
      <point x="365" y="475"/>
      <point x="382" y="450"/>
      <point x="417" y="450" type="curve" smooth="yes"/>
      <point x="452" y="450"/>
      <point x="479" y="475"/>
      <point x="485" y="511" type="curve" smooth="yes"/>
      <point x="491" y="547"/>
      <point x="474" y="570"/>
      <point x="439" y="570" type="curve" smooth="yes"/>
      <point x="404" y="570"/>
      <point x="377" y="547"/>
    </contour>
    <contour>
      <point x="84" y="190" type="curve" smooth="yes"/>
      <point x="112" y="349"/>
      <point x="294" y="400"/>
      <point x="409" y="400" type="curve" smooth="yes"/>
      <point x="524" y="400"/>
      <point x="688" y="349"/>
      <point x="660" y="190" type="curve" smooth="yes"/>
      <point x="635" y="51"/>
      <point x="479" y="-20"/>
      <point x="334" y="-20" type="curve" smooth="yes"/>
      <point x="189" y="-20"/>
      <point x="59" y="51"/>
    </contour>
    <contour>
      <point x="311" y="225" type="curve" smooth="yes"/>
      <point x="303" y="179"/>
      <point x="325" y="155"/>
      <point x="365" y="155" type="curve" smooth="yes"/>
      <point x="405" y="155"/>
      <point x="437" y="179"/>
      <point x="445" y="225" type="curve" smooth="yes"/>
      <point x="451" y="261"/>
      <point x="429" y="290"/>
      <point x="389" y="290" type="curve" smooth="yes"/>
      <point x="349" y="290"/>
      <point x="317" y="261"/>
    </contour>
  </outline>
</glyph>
<glyph name="colon" format="1">
  <advance width="336"/>
  <unicode hex="003A"/>
  <outline>
    <contour>
      <point x="65" y="85" type="curve" smooth="yes"/>
      <point x="76" y="148"/>
      <point x="133" y="200"/>
      <point x="203" y="200" type="curve" smooth="yes"/>
      <point x="273" y="200"/>
      <point x="312" y="148"/>
      <point x="301" y="85" type="curve" smooth="yes"/>
      <point x="290" y="22"/>
      <point x="233" y="-30"/>
      <point x="163" y="-30" type="curve" smooth="yes"/>
      <point x="93" y="-30"/>
      <point x="54" y="22"/>
    </contour>
    <contour>
      <point x="130" y="455" type="curve" smooth="yes"/>
      <point x="141" y="518"/>
      <point x="199" y="570"/>
      <point x="269" y="570" type="curve" smooth="yes"/>
      <point x="339" y="570"/>
      <point x="377" y="518"/>
      <point x="366" y="455" type="curve" smooth="yes"/>
      <point x="355" y="392"/>
      <point x="298" y="340"/>
      <point x="228" y="340" type="curve" smooth="yes"/>
      <point x="158" y="340"/>
      <point x="119" y="392"/>
    </contour>
  </outline>
</glyph>
<glyph name="semicolon" format="1">
  <advance width="431"/>
  <unicode hex="003B"/>
  <outline>
    <contour>
      <point x="193" y="445" type="curve" smooth="yes"/>
      <point x="204" y="508"/>
      <point x="262" y="560"/>
      <point x="332" y="560" type="curve" smooth="yes"/>
      <point x="402" y="560"/>
      <point x="440" y="508"/>
      <point x="429" y="445" type="curve" smooth="yes"/>
      <point x="418" y="382"/>
      <point x="361" y="330"/>
      <point x="291" y="330" type="curve" smooth="yes"/>
      <point x="221" y="330"/>
      <point x="182" y="382"/>
    </contour>
    <contour>
      <point x="157" y="110" type="line"/>
      <point x="346" y="76" type="line"/>
      <point x="167" y="-174" type="line"/>
      <point x="24" y="-149" type="line"/>
    </contour>
  </outline>
</glyph>
<glyph name="greater" format="1">
  <advance width="640"/>
  <unicode hex="003E"/>
  <outline>
    <contour>
      <point x="356" y="264" type="line"/>
      <point x="128" y="355" type="line"/>
      <point x="161" y="545" type="line"/>
      <point x="634" y="335" type="line"/>
      <point x="610" y="200" type="line"/>
      <point x="63" y="-10" type="line"/>
      <point x="97" y="180" type="line"/>
    </contour>
  </outline>
</glyph>
<glyph name="A" format="1">
  <advance width="780"/>
  <unicode hex="0041"/>
  <outline>
    <contour>
      <point x="223" y="90" type="line"/>
      <point x="251" y="248" type="line"/>
      <point x="621" y="248" type="line"/>
      <point x="593" y="90" type="line"/>
    </contour>
    <contour>
      <point x="457" y="382" type="line"/>
      <point x="337" y="189" type="line"/>
      <point x="346" y="139" type="line"/>
      <point x="245" y="0" type="line"/>
      <point x="-5" y="0" type="line"/>
      <point x="522" y="750" type="line"/>
      <point x="785" y="0" type="line"/>
      <point x="535" y="0" type="line"/>
      <point x="484" y="132" type="line"/>
      <point x="509" y="189" type="line"/>
    </contour>
  </outline>
</glyph>
<glyph name="C" format="1">
  <advance width="710"/>
  <unicode hex="0043"/>
  <outline>
    <contour>
      <point x="334" y="350" type="curve" smooth="yes"/>
      <point x="315" y="242"/>
      <point x="386" y="187"/>
      <point x="484" y="187" type="curve" smooth="yes"/>
      <point x="583" y="187"/>
      <point x="647" y="231"/>
      <point x="698" y="273" type="curve"/>
      <point x="658" y="47" type="line"/>
      <point x="596" y="9"/>
      <point x="533" y="-20"/>
      <point x="431" y="-20" type="curve" smooth="yes"/>
      <point x="187" y="-20"/>
      <point x="53" y="126"/>
      <point x="92" y="350" type="curve" smooth="yes"/>
      <point x="131" y="574"/>
      <point x="318" y="720"/>
      <point x="562" y="720" type="curve" smooth="yes"/>
      <point x="664" y="720"/>
      <point x="717" y="691"/>
      <point x="765" y="653" type="curve"/>
      <point x="725" y="427" type="line"/>
      <point x="688" y="469"/>
      <point x="640" y="513"/>
      <point x="541" y="513" type="curve" smooth="yes"/>
      <point x="443" y="513"/>
      <point x="353" y="458"/>
    </contour>
  </outline>
</glyph>
<glyph name="F" format="1">
  <advance width="585"/>
  <unicode hex="0046"/>
  <outline>
    <contour>
      <point x="313" y="515" type="line"/>
      <point x="345" y="700" type="line"/>
      <point x="658" y="700" type="line"/>
      <point x="626" y="515" type="line"/>
    </contour>
    <contour>
      <point x="265" y="245" type="line"/>
      <point x="295" y="415" type="line"/>
      <point x="598" y="415" type="line"/>
      <point x="568" y="245" type="line"/>
    </contour>
    <contour>
      <point x="193" y="700" type="line"/>
      <point x="403" y="700" type="line"/>
      <point x="280" y="0" type="line"/>
      <point x="70" y="0" type="line"/>
    </contour>
  </outline>
</glyph>
<glyph name="N" format="1">
  <advance width="805"/>
  <unicode hex="004E"/>
  <outline>
    <contour>
      <point x="159" y="475" type="line"/>
      <point x="200" y="735" type="line"/>
      <point x="770" y="225" type="line"/>
      <point x="729" y="-35" type="line"/>
    </contour>
    <contour>
      <point x="648" y="700" type="line"/>
      <point x="858" y="700" type="line"/>
      <point x="729" y="-35" type="line"/>
      <point x="559" y="195" type="line"/>
    </contour>
    <contour>
      <point x="200" y="735" type="line"/>
      <point x="369" y="505" type="line"/>
      <point x="280" y="0" type="line"/>
      <point x="70" y="0" type="line"/>
    </contour>
  </outline>
</glyph>
<glyph name="P" format="1">
  <advance width="668"/>
  <unicode hex="0050"/>
  <outline>
    <contour>
      <point x="193" y="700" type="line"/>
      <point x="413" y="700" type="line"/>
      <point x="290" y="0" type="line"/>
      <point x="70" y="0" type="line"/>
    </contour>
    <contour>
      <point x="305" y="525" type="line"/>
      <point x="335" y="700" type="line"/>
      <point x="468" y="700" type="line" smooth="yes"/>
      <point x="673" y="700"/>
      <point x="745" y="609"/>
      <point x="719" y="460" type="curve" smooth="yes"/>
      <point x="693" y="311"/>
      <point x="589" y="220"/>
      <point x="384" y="220" type="curve" smooth="yes"/>
      <point x="251" y="220" type="line"/>
      <point x="282" y="395" type="line"/>
      <point x="415" y="395" type="line" smooth="yes"/>
      <point x="470" y="395"/>
      <point x="502" y="419"/>
      <point x="509" y="460" type="curve" smooth="yes"/>
      <point x="516" y="501"/>
      <point x="493" y="525"/>
      <point x="438" y="525" type="curve" smooth="yes"/>
    </contour>
  </outline>
</glyph>
<glyph name="Q" format="1">
  <advance width="908"/>
  <unicode hex="0051"/>
  <outline>
    <contour>
      <point x="325" y="350" type="curve" smooth="yes"/>
      <point x="303" y="227"/>
      <point x="375" y="158"/>
      <point x="473" y="158" type="curve" smooth="yes"/>
      <point x="571" y="158"/>
      <point x="645" y="217"/>
      <point x="663" y="320" type="curve" smooth="yes"/>
      <point x="681" y="423"/>
      <point x="640" y="522"/>
      <point x="517" y="522" type="curve" smooth="yes"/>
      <point x="419" y="522"/>
      <point x="343" y="453"/>
    </contour>
    <contour>
      <point x="92" y="350" type="curve" smooth="yes"/>
      <point x="131" y="574"/>
      <point x="333" y="720"/>
      <point x="552" y="720" type="curve" smooth="yes"/>
      <point x="776" y="720"/>
      <point x="911" y="574"/>
      <point x="872" y="350" type="curve" smooth="yes"/>
      <point x="833" y="126"/>
      <point x="649" y="-30"/>
      <point x="420" y="-30" type="curve" smooth="yes"/>
      <point x="191" y="-30"/>
      <point x="53" y="126"/>
    </contour>
    <contour>
      <point x="396" y="300" type="line"/>
      <point x="611" y="300" type="line"/>
      <point x="914" y="-20" type="line"/>
      <point x="689" y="-20" type="line"/>
    </contour>
  </outline>
</glyph>
<glyph name="S" format="1">
  <advance width="672"/>
  <unicode hex="0053"/>
  <outline>
    <contour>
      <point x="225" y="266" type="line"/>
      <point x="264" y="190"/>
      <point x="301" y="158"/>
      <point x="368" y="158" type="curve" smooth="yes"/>
      <point x="408" y="158"/>
      <point x="434" y="169"/>
      <point x="439" y="199" type="curve" smooth="yes"/>
      <point x="446" y="239"/>
      <point x="395" y="247"/>
      <point x="321" y="280" type="curve" smooth="yes"/>
      <point x="258" y="308"/>
      <point x="138" y="363"/>
      <point x="164" y="510" type="curve" smooth="yes"/>
      <point x="186" y="636"/>
      <point x="320" y="720"/>
      <point x="484" y="720" type="curve" smooth="yes"/>
      <point x="637" y="720"/>
      <point x="701" y="635"/>
      <point x="726" y="564" type="curve"/>
      <point x="548" y="474" type="line"/>
      <point x="526" y="522"/>
      <point x="493" y="539"/>
      <point x="453" y="539" type="curve" smooth="yes"/>
      <point x="417" y="539"/>
      <point x="391" y="525"/>
      <point x="387" y="504" type="curve" smooth="yes"/>
      <point x="381" y="468"/>
      <point x="456" y="452"/>
      <point x="533" y="423" type="curve" smooth="yes"/>
      <point x="638" y="384"/>
      <point x="693" y="317"/>
      <point x="672" y="200" type="curve" smooth="yes"/>
      <point x="644" y="43"/>
      <point x="500" y="-30"/>
      <point x="341" y="-30" type="curve" smooth="yes"/>
      <point x="206" y="-30"/>
      <point x="83" y="53"/>
      <point x="58" y="158" type="curve"/>
    </contour>
  </outline>
</glyph>
<glyph name="U" format="1">
  <advance width="746"/>
  <unicode hex="0055"/>
  <outline>
    <contour>
      <point x="188" y="700" type="line"/>
      <point x="408" y="700" type="line"/>
      <point x="329" y="250" type="line" smooth="yes"/>
      <point x="319" y="194"/>
      <point x="340" y="155"/>
      <point x="400" y="155" type="curve" smooth="yes"/>
      <point x="460" y="155"/>
      <point x="495" y="194"/>
      <point x="505" y="250" type="curve" smooth="yes"/>
      <point x="584" y="700" type="line"/>
      <point x="804" y="700" type="line"/>
      <point x="722" y="230" type="line" smooth="yes"/>
      <point x="687" y="31"/>
      <point x="531" y="-40"/>
      <point x="366" y="-40" type="curve" smooth="yes"/>
      <point x="201" y="-40"/>
      <point x="71" y="31"/>
      <point x="106" y="230" type="curve" smooth="yes"/>
    </contour>
  </outline>
</glyph>
<glyph name="V" format="1">
  <advance width="780"/>
  <unicode hex="0056"/>
  <outline>
    <contour>
      <point x="453" y="358" type="line"/>
      <point x="648" y="700" type="line"/>
      <point x="908" y="700" type="line"/>
      <point x="381" y="-50" type="line"/>
      <point x="118" y="700" type="line"/>
      <point x="378" y="700" type="line"/>
    </contour>
  </outline>
</glyph>
<glyph name="X" format="1">
  <advance width="765"/>
  <unicode hex="0058"/>
  <outline>
    <contour>
      <point x="598" y="700" type="line"/>
      <point x="873" y="700" type="line"/>
      <point x="585" y="354" type="line"/>
      <point x="765" y="0" type="line"/>
      <point x="490" y="0" type="line"/>
      <point x="419" y="196" type="line"/>
      <point x="275" y="0" type="line"/>
      <point x="0" y="0" type="line"/>
      <point x="310" y="354" type="line"/>
      <point x="148" y="700" type="line"/>
      <point x="423" y="700" type="line"/>
      <point x="480" y="531" type="line"/>
    </contour>
  </outline>
</glyph>
<glyph name="Y" format="1">
  <advance width="720"/>
  <unicode hex="0059"/>
  <outline>
    <contour>
      <point x="311" y="360" type="line"/>
      <point x="536" y="360" type="line"/>
      <point x="473" y="0" type="line"/>
      <point x="248" y="0" type="line"/>
    </contour>
    <contour>
      <point x="593" y="700" type="line"/>
      <point x="848" y="700" type="line"/>
      <point x="375" y="84" type="line"/>
      <point x="118" y="700" type="line"/>
      <point x="373" y="700" type="line"/>
      <point x="444" y="474" type="line"/>
    </contour>
  </outline>
</glyph>
<glyph name="bracketleft" format="1">
  <advance width="400"/>
  <unicode hex="005B"/>
  <outline>
    <contour>
      <point x="387" y="615" type="line"/>
      <point x="269" y="-55" type="line"/>
      <point x="370" y="-55" type="line"/>
      <point x="341" y="-220" type="line"/>
      <point x="46" y="-220" type="line"/>
      <point x="223" y="780" type="line"/>
      <point x="518" y="780" type="line"/>
      <point x="488" y="615" type="line"/>
    </contour>
  </outline>
</glyph>
<glyph name="backslash" format="1">
  <advance width="565"/>
  <unicode hex="005C"/>
  <outline>
    <contour>
      <point x="138" y="700" type="line"/>
      <point x="323" y="700" type="line"/>
      <point x="550" y="0" type="line"/>
      <point x="365" y="0" type="line"/>
    </contour>
  </outline>
</glyph>
<glyph name="underscore" format="1">
  <advance width="550"/>
  <unicode hex="005F"/>
  <outline>
    <contour>
      <point x="-29" y="-166" type="line"/>
      <point x="-8" y="-45" type="line"/>
      <point x="542" y="-45" type="line"/>
      <point x="521" y="-166" type="line"/>
    </contour>
  </outline>
</glyph>
<glyph name="grave" format="1">
  <advance width="375"/>
  <unicode hex="0060"/>
  <outline>
    <contour>
      <point x="155" y="650" type="line"/>
      <point x="305" y="710" type="line"/>
      <point x="427" y="550" type="line"/>
      <point x="308" y="500" type="line"/>
    </contour>
  </outline>
</glyph>
<glyph name="b" format="1">
  <advance width="645"/>
  <unicode hex="0062"/>
  <outline>
    <contour>
      <point x="383" y="780" type="line"/>
      <point x="245" y="0" type="line"/>
      <point x="50" y="0" type="line"/>
      <point x="188" y="780" type="line"/>
    </contour>
    <contour>
      <point x="656" y="230" type="curve" smooth="yes"/>
      <point x="628" y="71"/>
      <point x="505" y="-10"/>
      <point x="400" y="-10" type="curve" smooth="yes"/>
      <point x="285" y="-10"/>
      <point x="214" y="81"/>
      <point x="240" y="230" type="curve" smooth="yes"/>
      <point x="266" y="379"/>
      <point x="370" y="470"/>
      <point x="485" y="470" type="curve" smooth="yes"/>
      <point x="590" y="470"/>
      <point x="684" y="389"/>
    </contour>
    <contour>
      <point x="450" y="230" type="curve" smooth="yes"/>
      <point x="459" y="281"/>
      <point x="428" y="320"/>
      <point x="383" y="320" type="curve" smooth="yes"/>
      <point x="343" y="320"/>
      <point x="296" y="286"/>
      <point x="286" y="230" type="curve" smooth="yes"/>
      <point x="276" y="174"/>
      <point x="312" y="140"/>
      <point x="352" y="140" type="curve" smooth="yes"/>
      <point x="397" y="140"/>
      <point x="441" y="179"/>
    </contour>
  </outline>
</glyph>
<glyph name="c" format="1">
  <advance width="503"/>
  <unicode hex="0063"/>
  <outline>
    <contour>
      <point x="272" y="230" type="curve" smooth="yes"/>
      <point x="261" y="169"/>
      <point x="302" y="138"/>
      <point x="357" y="138" type="curve" smooth="yes"/>
      <point x="401" y="138"/>
      <point x="449" y="154"/>
      <point x="488" y="197" type="curve"/>
      <point x="457" y="21" type="line"/>
      <point x="422" y="3"/>
      <point x="384" y="-10"/>
      <point x="311" y="-10" type="curve" smooth="yes"/>
      <point x="146" y="-10"/>
      <point x="45" y="81"/>
      <point x="71" y="230" type="curve" smooth="yes"/>
      <point x="97" y="379"/>
      <point x="231" y="470"/>
      <point x="396" y="470" type="curve" smooth="yes"/>
      <point x="469" y="470"/>
      <point x="501" y="455"/>
      <point x="531" y="441" type="curve"/>
      <point x="500" y="264" type="line"/>
      <point x="477" y="307"/>
      <point x="424" y="322"/>
      <point x="390" y="322" type="curve" smooth="yes"/>
      <point x="335" y="322"/>
      <point x="281" y="281"/>
    </contour>
  </outline>
</glyph>
<glyph name="f" format="1">
  <advance width="379"/>
  <unicode hex="0066"/>
  <outline>
    <contour>
      <point x="86" y="460" type="line"/>
      <point x="451" y="460" type="line"/>
      <point x="424" y="305" type="line"/>
      <point x="59" y="305" type="line"/>
    </contour>
    <contour>
      <point x="455" y="605" type="line"/>
      <point x="445" y="620"/>
      <point x="433" y="630"/>
      <point x="414" y="630" type="curve" smooth="yes"/>
      <point x="384" y="630"/>
      <point x="362" y="611"/>
      <point x="356" y="575" type="curve" smooth="yes"/>
      <point x="255" y="0" type="line"/>
      <point x="70" y="0" type="line"/>
      <point x="181" y="630" type="line" smooth="yes"/>
      <point x="198" y="729"/>
      <point x="275" y="800"/>
      <point x="409" y="800" type="curve" smooth="yes"/>
      <point x="492" y="800"/>
      <point x="529" y="763"/>
      <point x="550" y="743" type="curve"/>
    </contour>
  </outline>
</glyph>
<glyph name="i" format="1">
  <advance width="286"/>
  <unicode hex="0069"/>
  <outline>
    <contour>
      <point x="145" y="622" type="curve" smooth="yes"/>
      <point x="155" y="681"/>
      <point x="210" y="720"/>
      <point x="270" y="720" type="curve" smooth="yes"/>
      <point x="330" y="720"/>
      <point x="371" y="681"/>
      <point x="361" y="622" type="curve" smooth="yes"/>
      <point x="351" y="563"/>
      <point x="295" y="524"/>
      <point x="235" y="524" type="curve" smooth="yes"/>
      <point x="175" y="524"/>
      <point x="135" y="563"/>
    </contour>
    <contour>
      <point x="130" y="460" type="line"/>
      <point x="317" y="460" type="line"/>
      <point x="236" y="0" type="line"/>
      <point x="49" y="0" type="line"/>
    </contour>
  </outline>
</glyph>
<glyph name="j" format="1">
  <advance width="285"/>
  <unicode hex="006A"/>
  <outline>
    <contour>
      <point x="145" y="622" type="curve" smooth="yes"/>
      <point x="155" y="681"/>
      <point x="210" y="720"/>
      <point x="270" y="720" type="curve" smooth="yes"/>
      <point x="330" y="720"/>
      <point x="371" y="681"/>
      <point x="361" y="622" type="curve" smooth="yes"/>
      <point x="351" y="563"/>
      <point x="295" y="524"/>
      <point x="235" y="524" type="curve" smooth="yes"/>
      <point x="175" y="524"/>
      <point x="135" y="563"/>
    </contour>
    <contour>
      <point x="-53" y="-55" type="line"/>
      <point x="-43" y="-70"/>
      <point x="-31" y="-80"/>
      <point x="-12" y="-80" type="curve" smooth="yes"/>
      <point x="18" y="-80"/>
      <point x="40" y="-61"/>
      <point x="46" y="-25" type="curve" smooth="yes"/>
      <point x="131" y="460" type="line"/>
      <point x="316" y="460" type="line"/>
      <point x="221" y="-80" type="line" smooth="yes"/>
      <point x="204" y="-179"/>
      <point x="127" y="-250"/>
      <point x="-7" y="-250" type="curve" smooth="yes"/>
      <point x="-90" y="-250"/>
      <point x="-127" y="-213"/>
      <point x="-148" y="-193" type="curve"/>
    </contour>
  </outline>
</glyph>
<glyph name="k" format="1">
  <advance width="660"/>
  <unicode hex="006B"/>
  <outline>
    <contour>
      <point x="188" y="780" type="line"/>
      <point x="373" y="780" type="line"/>
      <point x="235" y="0" type="line"/>
      <point x="50" y="0" type="line"/>
    </contour>
    <contour>
      <point x="482" y="460" type="line"/>
      <point x="711" y="460" type="line"/>
      <point x="483" y="270" type="line"/>
      <point x="650" y="0" type="line"/>
      <point x="425" y="0" type="line"/>
      <point x="254" y="270" type="line"/>
    </contour>
  </outline>
</glyph>
<glyph name="m" format="1">
  <advance width="845"/>
  <unicode hex="006D"/>
  <outline>
    <contour>
      <point x="369" y="280" type="line" smooth="yes"/>
      <point x="376" y="321"/>
      <point x="370" y="346"/>
      <point x="340" y="346" type="curve" smooth="yes"/>
      <point x="315" y="346"/>
      <point x="292" y="326"/>
      <point x="284" y="280" type="curve"/>
      <point x="257" y="270" type="line"/>
      <point x="276" y="379"/>
      <point x="340" y="471"/>
      <point x="455" y="471" type="curve" smooth="yes"/>
      <point x="570" y="471"/>
      <point x="589" y="419"/>
      <point x="570" y="310" type="curve" smooth="yes"/>
      <point x="515" y="0" type="line"/>
      <point x="320" y="0" type="line"/>
    </contour>
    <contour>
      <point x="316" y="460" type="line"/>
      <point x="235" y="0" type="line"/>
      <point x="50" y="0" type="line"/>
      <point x="131" y="460" type="line"/>
    </contour>
    <contour>
      <point x="848" y="300" type="curve" smooth="yes"/>
      <point x="795" y="0" type="line"/>
      <point x="600" y="0" type="line"/>
      <point x="649" y="280" type="line" smooth="yes"/>
      <point x="656" y="321"/>
      <point x="650" y="346"/>
      <point x="620" y="346" type="curve" smooth="yes"/>
      <point x="595" y="346"/>
      <point x="572" y="326"/>
      <point x="564" y="280" type="curve"/>
      <point x="507" y="270" type="line"/>
      <point x="526" y="379"/>
      <point x="620" y="471"/>
      <point x="735" y="471" type="curve" smooth="yes"/>
      <point x="850" y="471"/>
      <point x="867" y="409"/>
    </contour>
  </outline>
</glyph>
<glyph name="p" format="1">
  <advance width="645"/>
  <unicode hex="0070"/>
  <outline>
    <contour>
      <point x="206" y="-220" type="line"/>
      <point x="11" y="-220" type="line"/>
      <point x="131" y="460" type="line"/>
      <point x="326" y="460" type="line"/>
    </contour>
    <contour>
      <point x="656" y="230" type="curve" smooth="yes"/>
      <point x="626" y="61"/>
      <point x="503" y="-20"/>
      <point x="398" y="-20" type="curve" smooth="yes"/>
      <point x="273" y="-20"/>
      <point x="224" y="81"/>
      <point x="250" y="230" type="curve" smooth="yes"/>
      <point x="276" y="379"/>
      <point x="362" y="480"/>
      <point x="487" y="480" type="curve" smooth="yes"/>
      <point x="592" y="480"/>
      <point x="686" y="399"/>
    </contour>
    <contour>
      <point x="450" y="230" type="curve" smooth="yes"/>
      <point x="459" y="281"/>
      <point x="427" y="310"/>
      <point x="382" y="310" type="curve" smooth="yes"/>
      <point x="342" y="310"/>
      <point x="296" y="286"/>
      <point x="286" y="230" type="curve" smooth="yes"/>
      <point x="276" y="174"/>
      <point x="313" y="150"/>
      <point x="353" y="150" type="curve" smooth="yes"/>
      <point x="398" y="150"/>
      <point x="441" y="179"/>
    </contour>
  </outline>
</glyph>
<glyph name="s" format="1">
  <advance width="488"/>
  <unicode hex="0073"/>
  <outline>
    <contour>
      <point x="110" y="183" type="line"/>
      <point x="199" y="111"/>
      <point x="252" y="110"/>
      <point x="269" y="110" type="curve" smooth="yes"/>
      <point x="285" y="110"/>
      <point x="296" y="120"/>
      <point x="298" y="133" type="curve" smooth="yes"/>
      <point x="303" y="161"/>
      <point x="262" y="169"/>
      <point x="214" y="186" type="curve" smooth="yes"/>
      <point x="151" y="209"/>
      <point x="95" y="242"/>
      <point x="111" y="334" type="curve" smooth="yes"/>
      <point x="126" y="420"/>
      <point x="207" y="470"/>
      <point x="321" y="470" type="curve" smooth="yes"/>
      <point x="404" y="470"/>
      <point x="464" y="446"/>
      <point x="527" y="415" type="curve"/>
      <point x="456" y="282" type="line"/>
      <point x="418" y="320"/>
      <point x="362" y="346"/>
      <point x="325" y="346" type="curve" smooth="yes"/>
      <point x="298" y="346"/>
      <point x="289" y="336"/>
      <point x="287" y="327" type="curve" smooth="yes"/>
      <point x="282" y="297"/>
      <point x="331" y="293"/>
      <point x="389" y="270" type="curve" smooth="yes"/>
      <point x="450" y="246"/>
      <point x="506" y="217"/>
      <point x="491" y="130" type="curve" smooth="yes"/>
      <point x="472" y="21"/>
      <point x="400" y="-25"/>
      <point x="281" y="-25" type="curve" smooth="yes"/>
      <point x="176" y="-25"/>
      <point x="99" y="1"/>
      <point x="23" y="46" type="curve"/>
    </contour>
  </outline>
</glyph>
<glyph name="w" format="1">
  <advance width="810"/>
  <unicode hex="0077"/>
  <outline>
    <contour>
      <point x="706" y="460" type="line"/>
      <point x="906" y="460" type="line"/>
      <point x="561" y="-25" type="line"/>
      <point x="565" y="225" type="line"/>
    </contour>
    <contour>
      <point x="420" y="255" type="line"/>
      <point x="492" y="495" type="line"/>
      <point x="611" y="205" type="line"/>
      <point x="561" y="-25" type="line"/>
    </contour>
    <contour>
      <point x="492" y="495" type="line"/>
      <point x="480" y="255" type="line"/>
      <point x="241" y="-25" type="line"/>
      <point x="271" y="205" type="line"/>
    </contour>
    <contour>
      <point x="66" y="460" type="line"/>
      <point x="266" y="460" type="line"/>
      <point x="325" y="225" type="line"/>
      <point x="241" y="-25" type="line"/>
    </contour>
  </outline>
</glyph>
<glyph name="y" format="1">
  <advance width="570"/>
  <unicode hex="0079"/>
  <outline>
    <contour>
      <point x="666" y="460" type="line"/>
      <point x="246" y="-220" type="line"/>
      <point x="56" y="-220" type="line"/>
      <point x="202" y="20" type="line"/>
      <point x="66" y="460" type="line"/>
      <point x="276" y="460" type="line"/>
      <point x="360" y="85" type="line"/>
      <point x="255" y="85" type="line"/>
      <point x="471" y="460" type="line"/>
    </contour>
  </outline>
</glyph>
<glyph name="z" format="1">
  <advance width="560"/>
  <unicode hex="007A"/>
  <outline>
    <contour>
      <point x="280" y="285" type="line"/>
      <point x="115" y="285" type="line"/>
      <point x="146" y="460" type="line"/>
      <point x="626" y="460" type="line"/>
      <point x="380" y="175" type="line"/>
      <point x="536" y="175" type="line"/>
      <point x="505" y="0" type="line"/>
      <point x="15" y="0" type="line"/>
    </contour>
  </outline>
</glyph>
<glyph name="braceleft" format="1">
  <advance width="451"/>
  <unicode hex="007B"/>
  <outline>
    <contour>
      <point x="420" y="580" type="curve" smooth="yes"/>
      <point x="404" y="490" type="line" smooth="yes"/>
      <point x="388" y="401"/>
      <point x="363" y="280"/>
      <point x="204" y="280" type="curve"/>
      <point x="208" y="300" type="line"/>
      <point x="367" y="300"/>
      <point x="350" y="179"/>
      <point x="334" y="90" type="curve" smooth="yes"/>
      <point x="318" y="0" type="line" smooth="yes"/>
      <point x="313" y="-26"/>
      <point x="327" y="-50"/>
      <point x="357" y="-50" type="curve" smooth="yes"/>
      <point x="392" y="-50" type="line"/>
      <point x="366" y="-200" type="line"/>
      <point x="256" y="-200" type="line" smooth="yes"/>
      <point x="152" y="-200"/>
      <point x="70" y="-159"/>
      <point x="87" y="-60" type="curve" smooth="yes"/>
      <point x="117" y="110" type="line" smooth="yes"/>
      <point x="130" y="186"/>
      <point x="117" y="210"/>
      <point x="69" y="220" type="curve"/>
      <point x="93" y="360" type="line"/>
      <point x="145" y="370"/>
      <point x="168" y="394"/>
      <point x="181" y="470" type="curve" smooth="yes"/>
      <point x="211" y="640" type="line" smooth="yes"/>
      <point x="228" y="739"/>
      <point x="325" y="780"/>
      <point x="429" y="780" type="curve" smooth="yes"/>
      <point x="539" y="780" type="line"/>
      <point x="512" y="630" type="line"/>
      <point x="477" y="630" type="line" smooth="yes"/>
      <point x="447" y="630"/>
      <point x="425" y="606"/>
    </contour>
  </outline>
</glyph>
<glyph name="braceright" format="1">
  <advance width="451"/>
  <unicode hex="007D"/>
  <outline>
    <contour>
      <point x="133" y="0" type="curve" smooth="yes"/>
      <point x="149" y="90" type="line" smooth="yes"/>
      <point x="165" y="179"/>
      <point x="190" y="300"/>
      <point x="349" y="300" type="curve"/>
      <point x="345" y="280" type="line"/>
      <point x="186" y="280"/>
      <point x="203" y="401"/>
      <point x="219" y="490" type="curve" smooth="yes"/>
      <point x="235" y="580" type="line" smooth="yes"/>
      <point x="240" y="606"/>
      <point x="226" y="630"/>
      <point x="196" y="630" type="curve" smooth="yes"/>
      <point x="161" y="630" type="line"/>
      <point x="188" y="780" type="line"/>
      <point x="298" y="780" type="line" smooth="yes"/>
      <point x="402" y="780"/>
      <point x="483" y="739"/>
      <point x="466" y="640" type="curve" smooth="yes"/>
      <point x="436" y="470" type="line" smooth="yes"/>
      <point x="423" y="394"/>
      <point x="436" y="370"/>
      <point x="484" y="360" type="curve"/>
      <point x="460" y="220" type="line"/>
      <point x="408" y="210"/>
      <point x="385" y="186"/>
      <point x="372" y="110" type="curve" smooth="yes"/>
      <point x="342" y="-60" type="line" smooth="yes"/>
      <point x="325" y="-159"/>
      <point x="229" y="-200"/>
      <point x="125" y="-200" type="curve" smooth="yes"/>
      <point x="15" y="-200" type="line"/>
      <point x="41" y="-50" type="line"/>
      <point x="76" y="-50" type="line" smooth="yes"/>
      <point x="106" y="-50"/>
      <point x="128" y="-26"/>
    </contour>
  </outline>
</glyph>
<glyph name="exclamdown" format="1">
  <advance width="370"/>
  <unicode hex="00A1"/>
  <outline>
    <contour>
      <point x="266" y="-220" type="line"/>
      <point x="26" y="-220" type="line"/>
      <point x="146" y="230" type="line"/>
      <point x="306" y="230" type="line"/>
    </contour>
    <contour>
      <point x="374" y="405" type="curve" smooth="yes"/>
      <point x="363" y="342"/>
      <point x="308" y="300"/>
      <point x="238" y="300" type="curve" smooth="yes"/>
      <point x="168" y="300"/>
      <point x="127" y="342"/>
      <point x="138" y="405" type="curve" smooth="yes"/>
      <point x="149" y="468"/>
      <point x="205" y="510"/>
      <point x="275" y="510" type="curve" smooth="yes"/>
      <point x="345" y="510"/>
      <point x="385" y="468"/>
    </contour>
  </outline>
</glyph>
<glyph name="cent" format="1">
  <advance width="580"/>
  <unicode hex="00A2"/>
  <outline>
    <contour>
      <point x="217" y="38" type="line"/>
      <point x="356" y="38" type="line"/>
      <point x="344" y="-112" type="line"/>
      <point x="175" y="-112" type="line"/>
    </contour>
    <contour>
      <point x="272" y="230" type="curve" smooth="yes"/>
      <point x="260" y="164"/>
      <point x="308" y="138"/>
      <point x="358" y="138" type="curve" smooth="yes"/>
      <point x="412" y="138"/>
      <point x="452" y="164"/>
      <point x="489" y="199" type="curve"/>
      <point x="457" y="19" type="line"/>
      <point x="422" y="1"/>
      <point x="375" y="-10"/>
      <point x="312" y="-10" type="curve" smooth="yes"/>
      <point x="147" y="-10"/>
      <point x="46" y="81"/>
      <point x="72" y="230" type="curve" smooth="yes"/>
      <point x="98" y="379"/>
      <point x="232" y="470"/>
      <point x="397" y="470" type="curve" smooth="yes"/>
      <point x="460" y="470"/>
      <point x="503" y="458"/>
      <point x="532" y="441" type="curve"/>
      <point x="500" y="261" type="line"/>
      <point x="475" y="296"/>
      <point x="445" y="322"/>
      <point x="391" y="322" type="curve" smooth="yes"/>
      <point x="341" y="322"/>
      <point x="282" y="286"/>
    </contour>
    <contour>
      <point x="297" y="578" type="line"/>
      <point x="466" y="578" type="line"/>
      <point x="424" y="428" type="line"/>
      <point x="285" y="428" type="line"/>
    </contour>
  </outline>
</glyph>
<glyph name="sterling" format="1">
  <advance width="630"/>
  <unicode hex="00A3"/>
  <outline>
    <contour>
      <point x="132" y="370" type="line"/>
      <point x="522" y="370" type="line"/>
      <point x="502" y="255" type="line"/>
      <point x="112" y="255" type="line"/>
    </contour>
    <contour>
      <point x="506" y="459" type="line"/>
      <point x="510" y="502"/>
      <point x="503" y="546"/>
      <point x="437" y="546" type="curve" smooth="yes"/>
      <point x="397" y="546"/>
      <point x="361" y="526"/>
      <point x="353" y="480" type="curve" smooth="yes"/>
      <point x="341" y="414"/>
      <point x="426" y="386"/>
      <point x="406" y="274" type="curve" smooth="yes"/>
      <point x="387" y="168"/>
      <point x="219" y="70"/>
      <point x="141" y="50" type="curve"/>
      <point x="245" y="175" type="line"/>
      <point x="583" y="175" type="line"/>
      <point x="552" y="0" type="line"/>
      <point x="44" y="0" type="line"/>
      <point x="160" y="102"/>
      <point x="207" y="201"/>
      <point x="226" y="309" type="curve" smooth="yes"/>
      <point x="243" y="403"/>
      <point x="139" y="417"/>
      <point x="158" y="523" type="curve" smooth="yes"/>
      <point x="179" y="642"/>
      <point x="317" y="710"/>
      <point x="456" y="710" type="curve" smooth="yes"/>
      <point x="619" y="710"/>
      <point x="704" y="613"/>
      <point x="693" y="523" type="curve"/>
    </contour>
  </outline>
</glyph>
<glyph name="yen" format="1">
  <advance width="723"/>
  <unicode hex="00A5"/>
  <outline>
    <contour>
      <point x="311" y="360" type="line"/>
      <point x="537" y="360" type="line"/>
      <point x="474" y="0" type="line"/>
      <point x="248" y="0" type="line"/>
    </contour>
    <contour>
      <point x="594" y="700" type="line"/>
      <point x="848" y="700" type="line"/>
      <point x="375" y="84" type="line"/>
      <point x="118" y="700" type="line"/>
      <point x="373" y="700" type="line"/>
      <point x="444" y="474" type="line"/>
    </contour>
    <contour>
      <point x="63" y="100" type="line"/>
      <point x="83" y="215" type="line"/>
      <point x="713" y="215" type="line"/>
      <point x="693" y="100" type="line"/>
    </contour>
    <contour>
      <point x="89" y="250" type="line"/>
      <point x="109" y="365" type="line"/>
      <point x="739" y="365" type="line"/>
      <point x="719" y="250" type="line"/>
    </contour>
  </outline>
</glyph>
<glyph name="section" format="1">
  <advance width="679"/>
  <unicode hex="00A7"/>
  <outline>
    <contour>
      <point x="549" y="531" type="line"/>
      <point x="522" y="557"/>
      <point x="475" y="577"/>
      <point x="448" y="577" type="curve" smooth="yes"/>
      <point x="418" y="577"/>
      <point x="406" y="567"/>
      <point x="404" y="557" type="curve" smooth="yes"/>
      <point x="400" y="537"/>
      <point x="439" y="539"/>
      <point x="493" y="527" type="curve" smooth="yes"/>
      <point x="573" y="509"/>
      <point x="624" y="460"/>
      <point x="610" y="383" type="curve" smooth="yes"/>
      <point x="591" y="277"/>
      <point x="456" y="222"/>
      <point x="342" y="222" type="curve"/>
      <point x="350" y="268" type="line"/>
      <point x="382" y="278"/>
      <point x="424" y="292"/>
      <point x="431" y="333" type="curve" smooth="yes"/>
      <point x="441" y="389"/>
      <point x="363" y="404"/>
      <point x="315" y="424" type="curve" smooth="yes"/>
      <point x="264" y="445"/>
      <point x="209" y="485"/>
      <point x="224" y="572" type="curve" smooth="yes"/>
      <point x="243" y="681"/>
      <point x="361" y="732"/>
      <point x="460" y="732" type="curve" smooth="yes"/>
      <point x="545" y="732"/>
      <point x="620" y="700"/>
      <point x="648" y="665" type="curve"/>
    </contour>
    <contour>
      <point x="179" y="181" type="line"/>
      <point x="243" y="135"/>
      <point x="311" y="125"/>
      <point x="338" y="125" type="curve" smooth="yes"/>
      <point x="368" y="125"/>
      <point x="380" y="135"/>
      <point x="382" y="145" type="curve" smooth="yes"/>
      <point x="386" y="165"/>
      <point x="348" y="170"/>
      <point x="294" y="182" type="curve" smooth="yes"/>
      <point x="214" y="200"/>
      <point x="142" y="242"/>
      <point x="156" y="319" type="curve" smooth="yes"/>
      <point x="175" y="425"/>
      <point x="320" y="480"/>
      <point x="434" y="480" type="curve"/>
      <point x="426" y="434" type="line"/>
      <point x="394" y="424"/>
      <point x="352" y="410"/>
      <point x="345" y="369" type="curve" smooth="yes"/>
      <point x="335" y="313"/>
      <point x="425" y="307"/>
      <point x="472" y="286" type="curve" smooth="yes"/>
      <point x="532" y="259"/>
      <point x="587" y="217"/>
      <point x="572" y="130" type="curve" smooth="yes"/>
      <point x="553" y="21"/>
      <point x="425" y="-30"/>
      <point x="326" y="-30" type="curve" smooth="yes"/>
      <point x="201" y="-30"/>
      <point x="135" y="2"/>
      <point x="79" y="47" type="curve"/>
    </contour>
  </outline>
</glyph>
<glyph name="dieresis" format="1">
  <advance width="536"/>
  <unicode hex="00A8"/>
  <outline>
    <contour>
      <point x="403" y="615" type="curve" smooth="yes"/>
      <point x="413" y="674"/>
      <point x="469" y="713"/>
      <point x="529" y="713" type="curve" smooth="yes"/>
      <point x="589" y="713"/>
      <point x="629" y="674"/>
      <point x="619" y="615" type="curve" smooth="yes"/>
      <point x="609" y="556"/>
      <point x="554" y="517"/>
      <point x="494" y="517" type="curve" smooth="yes"/>
      <point x="434" y="517"/>
      <point x="393" y="556"/>
    </contour>
    <contour>
      <point x="133" y="615" type="curve" smooth="yes"/>
      <point x="143" y="674"/>
      <point x="199" y="713"/>
      <point x="259" y="713" type="curve" smooth="yes"/>
      <point x="319" y="713"/>
      <point x="359" y="674"/>
      <point x="349" y="615" type="curve" smooth="yes"/>
      <point x="339" y="556"/>
      <point x="284" y="517"/>
      <point x="224" y="517" type="curve" smooth="yes"/>
      <point x="164" y="517"/>
      <point x="123" y="556"/>
    </contour>
  </outline>
</glyph>
<glyph name="copyright" format="1">
  <advance width="800"/>
  <unicode hex="00A9"/>
  <outline>
    <contour>
      <point x="381" y="350" type="curve" smooth="yes"/>
      <point x="370" y="285"/>
      <point x="412" y="252"/>
      <point x="471" y="252" type="curve" smooth="yes"/>
      <point x="530" y="252"/>
      <point x="570" y="279"/>
      <point x="600" y="304" type="curve"/>
      <point x="576" y="168" type="line"/>
      <point x="539" y="145"/>
      <point x="501" y="128"/>
      <point x="440" y="128" type="curve" smooth="yes"/>
      <point x="294" y="128"/>
      <point x="212" y="216"/>
      <point x="236" y="350" type="curve" smooth="yes"/>
      <point x="260" y="484"/>
      <point x="372" y="572"/>
      <point x="518" y="572" type="curve" smooth="yes"/>
      <point x="579" y="572"/>
      <point x="611" y="555"/>
      <point x="640" y="532" type="curve"/>
      <point x="616" y="396" type="line"/>
      <point x="594" y="421"/>
      <point x="565" y="448"/>
      <point x="506" y="448" type="curve" smooth="yes"/>
      <point x="447" y="448"/>
      <point x="392" y="415"/>
    </contour>
    <contour>
      <point x="157" y="350" type="curve" smooth="yes"/>
      <point x="126" y="172"/>
      <point x="234" y="40"/>
      <point x="407" y="40" type="curve" smooth="yes"/>
      <point x="580" y="40"/>
      <point x="736" y="172"/>
      <point x="767" y="350" type="curve" smooth="yes"/>
      <point x="798" y="528"/>
      <point x="689" y="660"/>
      <point x="516" y="660" type="curve" smooth="yes"/>
      <point x="343" y="660"/>
      <point x="188" y="528"/>
    </contour>
    <contour>
      <point x="102" y="350" type="curve" smooth="yes"/>
      <point x="139" y="559"/>
      <point x="321" y="710"/>
      <point x="525" y="710" type="curve" smooth="yes"/>
      <point x="729" y="710"/>
      <point x="859" y="559"/>
      <point x="822" y="350" type="curve" smooth="yes"/>
      <point x="785" y="141"/>
      <point x="602" y="-10"/>
      <point x="398" y="-10" type="curve" smooth="yes"/>
      <point x="194" y="-10"/>
      <point x="65" y="141"/>
    </contour>
  </outline>
</glyph>
<glyph name="macron" format="1">
  <advance width="545"/>
  <unicode hex="00AF"/>
  <outline>
    <contour>
      <point x="178" y="555" type="line"/>
      <point x="207" y="720" type="line"/>
      <point x="592" y="720" type="line"/>
      <point x="563" y="555" type="line"/>
    </contour>
  </outline>
</glyph>
<glyph name="degree" format="1">
  <advance width="308"/>
  <unicode hex="00B0"/>
  <outline>
    <contour>
      <point x="120" y="595" type="curve" smooth="yes"/>
      <point x="133" y="669"/>
      <point x="200" y="720"/>
      <point x="280" y="720" type="curve" smooth="yes"/>
      <point x="360" y="720"/>
      <point x="411" y="669"/>
      <point x="398" y="595" type="curve" smooth="yes"/>
      <point x="385" y="521"/>
      <point x="316" y="470"/>
      <point x="236" y="470" type="curve" smooth="yes"/>
      <point x="156" y="470"/>
      <point x="107" y="521"/>
    </contour>
    <contour>
      <point x="215" y="595" type="curve" smooth="yes"/>
      <point x="210" y="567"/>
      <point x="225" y="551"/>
      <point x="250" y="551" type="curve" smooth="yes"/>
      <point x="275" y="551"/>
      <point x="297" y="567"/>
      <point x="302" y="595" type="curve" smooth="yes"/>
      <point x="307" y="623"/>
      <point x="291" y="640"/>
      <point x="266" y="640" type="curve" smooth="yes"/>
      <point x="241" y="640"/>
      <point x="220" y="623"/>
    </contour>
  </outline>
</glyph>
<glyph name="uni00B3" format="1">
  <advance width="397"/>
  <unicode hex="00B3"/>
  <outline>
    <contour>
      <point x="247" y="481" type="curve"/>
      <point x="256" y="534" type="line"/>
      <point x="298" y="534"/>
      <point x="333" y="556"/>
      <point x="337" y="581" type="curve" smooth="yes"/>
      <point x="340" y="597"/>
      <point x="330" y="607"/>
      <point x="304" y="607" type="curve" smooth="yes"/>
      <point x="277" y="607"/>
      <point x="256" y="591"/>
      <point x="252" y="566" type="curve"/>
      <point x="131" y="566" type="line"/>
      <point x="145" y="646"/>
      <point x="221" y="709"/>
      <point x="323" y="709" type="curve" smooth="yes"/>
      <point x="431" y="709"/>
      <point x="481" y="658"/>
      <point x="469" y="590" type="curve" smooth="yes"/>
      <point x="455" y="510"/>
      <point x="358" y="481"/>
    </contour>
    <contour>
      <point x="239" y="268" type="curve" smooth="yes"/>
      <point x="125" y="268"/>
      <point x="74" y="347"/>
      <point x="88" y="427" type="curve"/>
      <point x="218" y="427" type="line"/>
      <point x="210" y="384"/>
      <point x="236" y="370"/>
      <point x="263" y="370" type="curve" smooth="yes"/>
      <point x="290" y="370"/>
      <point x="314" y="378"/>
      <point x="319" y="409" type="curve" smooth="yes"/>
      <point x="323" y="434"/>
      <point x="309" y="457"/>
      <point x="243" y="457" type="curve"/>
      <point x="254" y="519" type="line"/>
      <point x="383" y="519"/>
      <point x="462" y="483"/>
      <point x="447" y="397" type="curve" smooth="yes"/>
      <point x="434" y="323"/>
      <point x="359" y="268"/>
    </contour>
  </outline>
</glyph>
<glyph name="paragraph" format="1">
  <advance width="728"/>
  <unicode hex="00B6"/>
  <outline>
    <contour>
      <point x="392" y="590" type="line"/>
      <point x="411" y="700" type="line"/>
      <point x="661" y="700" type="line"/>
      <point x="642" y="590" type="line"/>
    </contour>
    <contour>
      <point x="621" y="700" type="line"/>
      <point x="791" y="700" type="line"/>
      <point x="629" y="-220" type="line"/>
      <point x="459" y="-220" type="line"/>
    </contour>
    <contour>
      <point x="411" y="700" type="line"/>
      <point x="581" y="700" type="line"/>
      <point x="419" y="-220" type="line"/>
      <point x="249" y="-220" type="line"/>
    </contour>
    <contour>
      <point x="336" y="270" type="line"/>
      <point x="211" y="270"/>
      <point x="121" y="346"/>
      <point x="146" y="485" type="curve" smooth="yes"/>
      <point x="171" y="624"/>
      <point x="286" y="700"/>
      <point x="411" y="700" type="curve"/>
    </contour>
  </outline>
</glyph>
<glyph name="guillemotright" format="1">
  <advance width="560"/>
  <unicode hex="00BB"/>
  <outline>
    <contour>
      <point x="468" y="275" type="line"/>
      <point x="585" y="255" type="line"/>
      <point x="368" y="-10" type="line"/>
      <point x="261" y="65" type="line"/>
    </contour>
    <contour>
      <point x="585" y="255" type="line"/>
      <point x="460" y="225" type="line"/>
      <point x="328" y="445" type="line"/>
      <point x="462" y="520" type="line"/>
    </contour>
    <contour>
      <point x="238" y="275" type="line"/>
      <point x="355" y="255" type="line"/>
      <point x="138" y="-10" type="line"/>
      <point x="31" y="65" type="line"/>
    </contour>
    <contour>
      <point x="355" y="255" type="line"/>
      <point x="230" y="225" type="line"/>
      <point x="98" y="445" type="line"/>
      <point x="232" y="520" type="line"/>
    </contour>
  </outline>
</glyph>
<glyph name="onequarter" format="1">
  <advance width="864"/>
  <unicode hex="00BC"/>
  <outline>
    <contour>
      <point x="761" y="700" type="line"/>
      <point x="876" y="700" type="line"/>
      <point x="233" y="0" type="line"/>
      <point x="118" y="0" type="line"/>
    </contour>
    <contour>
      <point x="117" y="549" type="line"/>
      <point x="136" y="659" type="line"/>
      <point x="381" y="703" type="line"/>
      <point x="305" y="274" type="line"/>
      <point x="179" y="274" type="line"/>
      <point x="232" y="574" type="line"/>
    </contour>
    <contour>
      <point x="424" y="69" type="line"/>
      <point x="548" y="159" type="line"/>
      <point x="736" y="159" type="line" smooth="yes"/>
      <point x="750" y="180" type="line" smooth="yes"/>
      <point x="869" y="180" type="line"/>
      <point x="849" y="69" type="line"/>
    </contour>
    <contour>
      <point x="565" y="117" type="line"/>
      <point x="424" y="69" type="line"/>
      <point x="737" y="420" type="line"/>
      <point x="845" y="420" type="line"/>
      <point x="771" y="0" type="line"/>
      <point x="633" y="0" type="line"/>
      <point x="649" y="91" type="line" smooth="yes"/>
      <point x="668" y="97" type="line" smooth="yes"/>
      <point x="696" y="253" type="line"/>
    </contour>
  </outline>
</glyph>
<glyph name="threequarters" format="1">
  <advance width="915"/>
  <unicode hex="00BE"/>
  <outline>
    <contour>
      <point x="823" y="700" type="line"/>
      <point x="938" y="700" type="line"/>
      <point x="295" y="0" type="line"/>
      <point x="180" y="0" type="line"/>
    </contour>
    <contour>
      <point x="257" y="481" type="curve"/>
      <point x="266" y="534" type="line"/>
      <point x="308" y="534"/>
      <point x="343" y="556"/>
      <point x="347" y="581" type="curve" smooth="yes"/>
      <point x="350" y="597"/>
      <point x="340" y="607"/>
      <point x="314" y="607" type="curve" smooth="yes"/>
      <point x="287" y="607"/>
      <point x="266" y="591"/>
      <point x="262" y="566" type="curve"/>
      <point x="141" y="566" type="line"/>
      <point x="155" y="646"/>
      <point x="231" y="709"/>
      <point x="333" y="709" type="curve" smooth="yes"/>
      <point x="441" y="709"/>
      <point x="491" y="658"/>
      <point x="479" y="590" type="curve" smooth="yes"/>
      <point x="465" y="510"/>
      <point x="368" y="481"/>
    </contour>
    <contour>
      <point x="249" y="268" type="curve" smooth="yes"/>
      <point x="135" y="268"/>
      <point x="84" y="347"/>
      <point x="98" y="427" type="curve"/>
      <point x="228" y="427" type="line"/>
      <point x="220" y="384"/>
      <point x="246" y="370"/>
      <point x="273" y="370" type="curve" smooth="yes"/>
      <point x="300" y="370"/>
      <point x="324" y="378"/>
      <point x="329" y="409" type="curve" smooth="yes"/>
      <point x="333" y="434"/>
      <point x="319" y="457"/>
      <point x="253" y="457" type="curve"/>
      <point x="264" y="519" type="line"/>
      <point x="393" y="519"/>
      <point x="472" y="483"/>
      <point x="457" y="397" type="curve" smooth="yes"/>
      <point x="444" y="323"/>
      <point x="369" y="268"/>
    </contour>
    <contour>
      <point x="476" y="69" type="line"/>
      <point x="600" y="159" type="line"/>
      <point x="788" y="159" type="line" smooth="yes"/>
      <point x="802" y="180" type="line" smooth="yes"/>
      <point x="921" y="180" type="line"/>
      <point x="901" y="69" type="line"/>
    </contour>
    <contour>
      <point x="617" y="117" type="line"/>
      <point x="476" y="69" type="line"/>
      <point x="789" y="420" type="line"/>
      <point x="897" y="420" type="line"/>
      <point x="823" y="0" type="line"/>
      <point x="685" y="0" type="line"/>
      <point x="701" y="91" type="line" smooth="yes"/>
      <point x="720" y="97" type="line" smooth="yes"/>
      <point x="748" y="253" type="line"/>
    </contour>
  </outline>
</glyph>
<glyph name="Aacute" format="1">
  <advance width="780"/>
  <unicode hex="00C1"/>
  <outline>
    <contour>
      <point x="223" y="90" type="line"/>
      <point x="251" y="248" type="line"/>
      <point x="621" y="248" type="line"/>
      <point x="593" y="90" type="line"/>
    </contour>
    <contour>
      <point x="457" y="382" type="line"/>
      <point x="337" y="189" type="line"/>
      <point x="346" y="139" type="line"/>
      <point x="245" y="0" type="line"/>
      <point x="-5" y="0" type="line"/>
      <point x="522" y="750" type="line"/>
      <point x="785" y="0" type="line"/>
      <point x="535" y="0" type="line"/>
      <point x="484" y="132" type="line"/>
      <point x="509" y="189" type="line"/>
    </contour>
    <contour>
      <point x="734" y="960" type="line"/>
      <point x="528" y="810" type="line"/>
      <point x="427" y="860" type="line"/>
      <point x="605" y="1020" type="line"/>
    </contour>
  </outline>
</glyph>
<glyph name="Atilde" format="1">
  <advance width="780"/>
  <unicode hex="00C3"/>
  <outline>
    <contour>
      <point x="223" y="90" type="line"/>
      <point x="251" y="248" type="line"/>
      <point x="621" y="248" type="line"/>
      <point x="593" y="90" type="line"/>
    </contour>
    <contour>
      <point x="457" y="382" type="line"/>
      <point x="337" y="189" type="line"/>
      <point x="346" y="139" type="line"/>
      <point x="245" y="0" type="line"/>
      <point x="-5" y="0" type="line"/>
      <point x="522" y="750" type="line"/>
      <point x="785" y="0" type="line"/>
      <point x="535" y="0" type="line"/>
      <point x="484" y="132" type="line"/>
      <point x="509" y="189" type="line"/>
    </contour>
    <contour>
      <point x="332" y="893" type="line"/>
      <point x="351" y="942"/>
      <point x="404" y="995"/>
      <point x="479" y="995" type="curve" smooth="yes"/>
      <point x="546" y="995"/>
      <point x="556" y="940"/>
      <point x="614" y="940" type="curve" smooth="yes"/>
      <point x="643" y="940"/>
      <point x="669" y="964"/>
      <point x="695" y="996" type="curve"/>
      <point x="764" y="903" type="line"/>
      <point x="741" y="866"/>
      <point x="667" y="810"/>
      <point x="597" y="810" type="curve" smooth="yes"/>
      <point x="542" y="810"/>
      <point x="508" y="867"/>
      <point x="456" y="867" type="curve" smooth="yes"/>
      <point x="420" y="867"/>
      <point x="405" y="831"/>
      <point x="402" y="816" type="curve"/>
    </contour>
  </outline>
</glyph>
<glyph name="Adieresis" format="1">
  <advance width="780"/>
  <unicode hex="00C4"/>
  <outline>
    <contour>
      <point x="223" y="90" type="line"/>
      <point x="251" y="248" type="line"/>
      <point x="621" y="248" type="line"/>
      <point x="593" y="90" type="line"/>
    </contour>
    <contour>
      <point x="457" y="382" type="line"/>
      <point x="337" y="189" type="line"/>
      <point x="346" y="139" type="line"/>
      <point x="245" y="0" type="line"/>
      <point x="-5" y="0" type="line"/>
      <point x="522" y="750" type="line"/>
      <point x="785" y="0" type="line"/>
      <point x="535" y="0" type="line"/>
      <point x="484" y="132" type="line"/>
      <point x="509" y="189" type="line"/>
    </contour>
    <contour>
      <point x="591" y="818" type="curve" smooth="yes"/>
      <point x="601" y="877"/>
      <point x="657" y="916"/>
      <point x="717" y="916" type="curve" smooth="yes"/>
      <point x="777" y="916"/>
      <point x="817" y="877"/>
      <point x="807" y="818" type="curve" smooth="yes"/>
      <point x="797" y="759"/>
      <point x="742" y="720"/>
      <point x="682" y="720" type="curve" smooth="yes"/>
      <point x="622" y="720"/>
      <point x="581" y="759"/>
    </contour>
    <contour>
      <point x="253" y="828" type="curve" smooth="yes"/>
      <point x="263" y="887"/>
      <point x="318" y="926"/>
      <point x="378" y="926" type="curve" smooth="yes"/>
      <point x="438" y="926"/>
      <point x="479" y="887"/>
      <point x="469" y="828" type="curve" smooth="yes"/>
      <point x="459" y="769"/>
      <point x="404" y="730"/>
      <point x="344" y="730" type="curve" smooth="yes"/>
      <point x="284" y="730"/>
      <point x="243" y="769"/>
    </contour>
  </outline>
</glyph>
<glyph name="AE" format="1">
  <advance width="1160"/>
  <unicode hex="00C6"/>
  <outline>
    <contour>
      <point x="322" y="115" type="line"/>
      <point x="368" y="315" type="line"/>
      <point x="668" y="315" type="line"/>
      <point x="632" y="115" type="line"/>
    </contour>
    <contour>
      <point x="563" y="700" type="line"/>
      <point x="775" y="660" type="line"/>
      <point x="305" y="0" type="line"/>
      <point x="20" y="0" type="line"/>
    </contour>
    <contour>
      <point x="687" y="0" type="line"/>
      <point x="718" y="175" type="line"/>
      <point x="1121" y="175" type="line"/>
      <point x="1090" y="0" type="line"/>
    </contour>
    <contour>
      <point x="788" y="525" type="line"/>
      <point x="563" y="700" type="line"/>
      <point x="1213" y="700" type="line"/>
      <point x="1183" y="525" type="line"/>
    </contour>
    <contour>
      <point x="735" y="275" type="line"/>
      <point x="765" y="445" type="line"/>
      <point x="1148" y="445" type="line"/>
      <point x="1118" y="275" type="line"/>
    </contour>
    <contour>
      <point x="708" y="700" type="line"/>
      <point x="948" y="700" type="line"/>
      <point x="825" y="0" type="line"/>
      <point x="585" y="0" type="line"/>
    </contour>
  </outline>
</glyph>
<glyph name="Ccedilla" format="1">
  <advance width="710"/>
  <unicode hex="00C7"/>
  <outline>
    <contour>
      <point x="334" y="350" type="curve" smooth="yes"/>
      <point x="315" y="242"/>
      <point x="386" y="187"/>
      <point x="484" y="187" type="curve" smooth="yes"/>
      <point x="583" y="187"/>
      <point x="647" y="231"/>
      <point x="698" y="273" type="curve"/>
      <point x="658" y="47" type="line"/>
      <point x="596" y="9"/>
      <point x="533" y="-20"/>
      <point x="431" y="-20" type="curve" smooth="yes"/>
      <point x="187" y="-20"/>
      <point x="53" y="126"/>
      <point x="92" y="350" type="curve" smooth="yes"/>
      <point x="131" y="574"/>
      <point x="318" y="720"/>
      <point x="562" y="720" type="curve" smooth="yes"/>
      <point x="664" y="720"/>
      <point x="717" y="691"/>
      <point x="765" y="653" type="curve"/>
      <point x="725" y="427" type="line"/>
      <point x="688" y="469"/>
      <point x="640" y="513"/>
      <point x="541" y="513" type="curve" smooth="yes"/>
      <point x="443" y="513"/>
      <point x="353" y="458"/>
    </contour>
    <contour>
      <point x="356" y="62" type="line"/>
      <point x="495" y="56" type="line"/>
      <point x="336" y="-110" type="line"/>
      <point x="230" y="-149" type="line"/>
    </contour>
    <contour>
      <point x="510" y="-178" type="curve"/>
      <point x="391" y="-164" type="line"/>
      <point x="396" y="-136"/>
      <point x="358" y="-134"/>
      <point x="329" y="-134" type="curve" smooth="yes"/>
      <point x="319" y="-134"/>
      <point x="275" y="-135"/>
      <point x="230" y="-149" type="curve"/>
      <point x="317" y="-102" type="line"/>
      <point x="350" y="-72"/>
      <point x="383" y="-66"/>
      <point x="426" y="-66" type="curve" smooth="yes"/>
      <point x="470" y="-66"/>
      <point x="523" y="-102"/>
    </contour>
    <contour>
      <point x="510" y="-178" type="line"/>
      <point x="496" y="-257"/>
      <point x="411" y="-296"/>
      <point x="343" y="-296" type="curve" smooth="yes"/>
      <point x="276" y="-296"/>
      <point x="226" y="-287"/>
      <point x="173" y="-256" type="curve"/>
      <point x="241" y="-170" type="line"/>
      <point x="266" y="-190"/>
      <point x="312" y="-196"/>
      <point x="328" y="-196" type="curve" smooth="yes"/>
      <point x="362" y="-196"/>
      <point x="387" y="-188"/>
      <point x="391" y="-164" type="curve"/>
    </contour>
  </outline>
</glyph>
<glyph name="Eacute" format="1">
  <advance width="635"/>
  <unicode hex="00C9"/>
  <outline>
    <contour>
      <point x="222" y="0" type="line"/>
      <point x="253" y="175" type="line"/>
      <point x="606" y="175" type="line"/>
      <point x="575" y="0" type="line"/>
    </contour>
    <contour>
      <point x="315" y="525" type="line"/>
      <point x="345" y="700" type="line"/>
      <point x="698" y="700" type="line"/>
      <point x="668" y="525" type="line"/>
    </contour>
    <contour>
      <point x="270" y="275" type="line"/>
      <point x="300" y="445" type="line"/>
      <point x="633" y="445" type="line"/>
      <point x="603" y="275" type="line"/>
    </contour>
    <contour>
      <point x="193" y="700" type="line"/>
      <point x="403" y="700" type="line"/>
      <point x="280" y="0" type="line"/>
      <point x="70" y="0" type="line"/>
    </contour>
    <contour>
      <point x="664" y="940" type="line"/>
      <point x="457" y="790" type="line"/>
      <point x="356" y="840" type="line"/>
      <point x="534" y="1000" type="line"/>
    </contour>
  </outline>
</glyph>
<glyph name="Edieresis" format="1">
  <advance width="635"/>
  <unicode hex="00CB"/>
  <outline>
    <contour>
      <point x="222" y="0" type="line"/>
      <point x="253" y="175" type="line"/>
      <point x="606" y="175" type="line"/>
      <point x="575" y="0" type="line"/>
    </contour>
    <contour>
      <point x="315" y="525" type="line"/>
      <point x="345" y="700" type="line"/>
      <point x="698" y="700" type="line"/>
      <point x="668" y="525" type="line"/>
    </contour>
    <contour>
      <point x="270" y="275" type="line"/>
      <point x="300" y="445" type="line"/>
      <point x="633" y="445" type="line"/>
      <point x="603" y="275" type="line"/>
    </contour>
    <contour>
      <point x="193" y="700" type="line"/>
      <point x="403" y="700" type="line"/>
      <point x="280" y="0" type="line"/>
      <point x="70" y="0" type="line"/>
    </contour>
    <contour>
      <point x="505" y="878" type="curve" smooth="yes"/>
      <point x="515" y="937"/>
      <point x="570" y="976"/>
      <point x="630" y="976" type="curve" smooth="yes"/>
      <point x="690" y="976"/>
      <point x="731" y="937"/>
      <point x="721" y="878" type="curve" smooth="yes"/>
      <point x="711" y="819"/>
      <point x="656" y="780"/>
      <point x="596" y="780" type="curve" smooth="yes"/>
      <point x="536" y="780"/>
      <point x="495" y="819"/>
    </contour>
    <contour>
      <point x="235" y="878" type="curve" smooth="yes"/>
      <point x="245" y="937"/>
      <point x="300" y="976"/>
      <point x="360" y="976" type="curve" smooth="yes"/>
      <point x="420" y="976"/>
      <point x="461" y="937"/>
      <point x="451" y="878" type="curve" smooth="yes"/>
      <point x="441" y="819"/>
      <point x="386" y="780"/>
      <point x="326" y="780" type="curve" smooth="yes"/>
      <point x="266" y="780"/>
      <point x="225" y="819"/>
    </contour>
  </outline>
</glyph>
<glyph name="Icircumflex" format="1">
  <advance width="365"/>
  <unicode hex="00CE"/>
  <outline>
    <contour>
      <point x="193" y="700" type="line"/>
      <point x="418" y="700" type="line"/>
      <point x="295" y="0" type="line"/>
      <point x="70" y="0" type="line"/>
    </contour>
    <contour>
      <point x="330" y="895" type="line"/>
      <point x="203" y="800" type="line"/>
      <point x="160" y="840" type="line"/>
      <point x="345" y="980" type="line"/>
      <point x="480" y="840" type="line"/>
      <point x="423" y="800" type="line"/>
    </contour>
  </outline>
</glyph>
<glyph name="Idieresis" format="1">
  <advance width="365"/>
  <unicode hex="00CF"/>
  <outline>
    <contour>
      <point x="193" y="700" type="line"/>
      <point x="418" y="700" type="line"/>
      <point x="295" y="0" type="line"/>
      <point x="70" y="0" type="line"/>
    </contour>
    <contour>
      <point x="365" y="878" type="curve" smooth="yes"/>
      <point x="375" y="937"/>
      <point x="430" y="976"/>
      <point x="490" y="976" type="curve" smooth="yes"/>
      <point x="550" y="976"/>
      <point x="591" y="937"/>
      <point x="581" y="878" type="curve" smooth="yes"/>
      <point x="571" y="819"/>
      <point x="516" y="780"/>
      <point x="456" y="780" type="curve" smooth="yes"/>
      <point x="396" y="780"/>
      <point x="355" y="819"/>
    </contour>
    <contour>
      <point x="95" y="878" type="curve" smooth="yes"/>
      <point x="105" y="937"/>
      <point x="160" y="976"/>
      <point x="220" y="976" type="curve" smooth="yes"/>
      <point x="280" y="976"/>
      <point x="321" y="937"/>
      <point x="311" y="878" type="curve" smooth="yes"/>
      <point x="301" y="819"/>
      <point x="246" y="780"/>
      <point x="186" y="780" type="curve" smooth="yes"/>
      <point x="126" y="780"/>
      <point x="85" y="819"/>
    </contour>
  </outline>
</glyph>
<glyph name="Ntilde" format="1">
  <advance width="805"/>
  <unicode hex="00D1"/>
  <outline>
    <contour>
      <point x="159" y="475" type="line"/>
      <point x="200" y="735" type="line"/>
      <point x="770" y="225" type="line"/>
      <point x="729" y="-35" type="line"/>
    </contour>
    <contour>
      <point x="648" y="700" type="line"/>
      <point x="858" y="700" type="line"/>
      <point x="729" y="-35" type="line"/>
      <point x="559" y="195" type="line"/>
    </contour>
    <contour>
      <point x="200" y="735" type="line"/>
      <point x="369" y="505" type="line"/>
      <point x="280" y="0" type="line"/>
      <point x="70" y="0" type="line"/>
    </contour>
    <contour>
      <point x="378" y="868" type="line"/>
      <point x="397" y="917"/>
      <point x="452" y="950"/>
      <point x="497" y="950" type="curve" smooth="yes"/>
      <point x="562" y="950"/>
      <point x="558" y="903"/>
      <point x="612" y="903" type="curve" smooth="yes"/>
      <point x="631" y="903"/>
      <point x="651" y="919"/>
      <point x="677" y="951" type="curve"/>
      <point x="715" y="908" type="line"/>
      <point x="692" y="871"/>
      <point x="646" y="835"/>
      <point x="596" y="835" type="curve" smooth="yes"/>
      <point x="541" y="835"/>
      <point x="529" y="882"/>
      <point x="484" y="882" type="curve" smooth="yes"/>
      <point x="443" y="882"/>
      <point x="428" y="846"/>
      <point x="425" y="831" type="curve"/>
    </contour>
  </outline>
</glyph>
<glyph name="Ograve" format="1">
  <advance width="840"/>
  <unicode hex="00D2"/>
  <outline>
    <contour>
      <point x="325" y="350" type="curve" smooth="yes"/>
      <point x="307" y="247"/>
      <point x="353" y="178"/>
      <point x="451" y="178" type="curve" smooth="yes"/>
      <point x="549" y="178"/>
      <point x="621" y="247"/>
      <point x="639" y="350" type="curve" smooth="yes"/>
      <point x="657" y="453"/>
      <point x="615" y="522"/>
      <point x="512" y="522" type="curve" smooth="yes"/>
      <point x="414" y="522"/>
      <point x="343" y="453"/>
    </contour>
    <contour>
      <point x="92" y="350" type="curve" smooth="yes"/>
      <point x="131" y="574"/>
      <point x="328" y="720"/>
      <point x="547" y="720" type="curve" smooth="yes"/>
      <point x="771" y="720"/>
      <point x="911" y="574"/>
      <point x="872" y="350" type="curve" smooth="yes"/>
      <point x="833" y="126"/>
      <point x="644" y="-30"/>
      <point x="415" y="-30" type="curve" smooth="yes"/>
      <point x="186" y="-30"/>
      <point x="53" y="126"/>
    </contour>
    <contour>
      <point x="421" y="940" type="line"/>
      <point x="571" y="1000" type="line"/>
      <point x="693" y="840" type="line"/>
      <point x="574" y="790" type="line"/>
    </contour>
  </outline>
</glyph>
<glyph name="Odieresis" format="1">
  <advance width="840"/>
  <unicode hex="00D6"/>
  <outline>
    <contour>
      <point x="325" y="350" type="curve" smooth="yes"/>
      <point x="307" y="247"/>
      <point x="353" y="178"/>
      <point x="451" y="178" type="curve" smooth="yes"/>
      <point x="549" y="178"/>
      <point x="621" y="247"/>
      <point x="639" y="350" type="curve" smooth="yes"/>
      <point x="657" y="453"/>
      <point x="615" y="522"/>
      <point x="512" y="522" type="curve" smooth="yes"/>
      <point x="414" y="522"/>
      <point x="343" y="453"/>
    </contour>
    <contour>
      <point x="92" y="350" type="curve" smooth="yes"/>
      <point x="131" y="574"/>
      <point x="328" y="720"/>
      <point x="547" y="720" type="curve" smooth="yes"/>
      <point x="771" y="720"/>
      <point x="911" y="574"/>
      <point x="872" y="350" type="curve" smooth="yes"/>
      <point x="833" y="126"/>
      <point x="644" y="-30"/>
      <point x="415" y="-30" type="curve" smooth="yes"/>
      <point x="186" y="-30"/>
      <point x="53" y="126"/>
    </contour>
    <contour>
      <point x="602" y="878" type="curve" smooth="yes"/>
      <point x="612" y="937"/>
      <point x="667" y="976"/>
      <point x="727" y="976" type="curve" smooth="yes"/>
      <point x="787" y="976"/>
      <point x="828" y="937"/>
      <point x="818" y="878" type="curve" smooth="yes"/>
      <point x="808" y="819"/>
      <point x="753" y="780"/>
      <point x="693" y="780" type="curve" smooth="yes"/>
      <point x="633" y="780"/>
      <point x="592" y="819"/>
    </contour>
    <contour>
      <point x="332" y="878" type="curve" smooth="yes"/>
      <point x="342" y="937"/>
      <point x="397" y="976"/>
      <point x="457" y="976" type="curve" smooth="yes"/>
      <point x="517" y="976"/>
      <point x="558" y="937"/>
      <point x="548" y="878" type="curve" smooth="yes"/>
      <point x="538" y="819"/>
      <point x="483" y="780"/>
      <point x="423" y="780" type="curve" smooth="yes"/>
      <point x="363" y="780"/>
      <point x="322" y="819"/>
    </contour>
  </outline>
</glyph>
<glyph name="multiply" format="1">
  <advance width="596"/>
  <unicode hex="00D7"/>
  <outline>
    <contour>
      <point x="150" y="-8" type="line"/>
      <point x="54" y="108" type="line"/>
      <point x="231" y="255" type="line"/>
      <point x="106" y="402" type="line"/>
      <point x="242" y="518" type="line"/>
      <point x="363" y="367" type="line"/>
      <point x="536" y="518" type="line"/>
      <point x="632" y="402" type="line"/>
      <point x="455" y="255" type="line"/>
      <point x="580" y="108" type="line"/>
      <point x="444" y="-8" type="line"/>
      <point x="323" y="143" type="line"/>
    </contour>
  </outline>
</glyph>
<glyph name="Ucircumflex" format="1">
  <advance width="746"/>
  <unicode hex="00DB"/>
  <outline>
    <contour>
      <point x="188" y="700" type="line"/>
      <point x="408" y="700" type="line"/>
      <point x="329" y="250" type="line" smooth="yes"/>
      <point x="319" y="194"/>
      <point x="340" y="155"/>
      <point x="400" y="155" type="curve" smooth="yes"/>
      <point x="460" y="155"/>
      <point x="495" y="194"/>
      <point x="505" y="250" type="curve" smooth="yes"/>
      <point x="584" y="700" type="line"/>
      <point x="804" y="700" type="line"/>
      <point x="722" y="230" type="line" smooth="yes"/>
      <point x="687" y="31"/>
      <point x="531" y="-40"/>
      <point x="366" y="-40" type="curve" smooth="yes"/>
      <point x="201" y="-40"/>
      <point x="71" y="31"/>
      <point x="106" y="230" type="curve" smooth="yes"/>
    </contour>
    <contour>
      <point x="525" y="860" type="line"/>
      <point x="431" y="780" type="line"/>
      <point x="306" y="870" type="line"/>
      <point x="551" y="1010" type="line"/>
      <point x="746" y="870" type="line"/>
      <point x="591" y="780" type="line"/>
    </contour>
  </outline>
</glyph>
<glyph name="Udieresis" format="1">
  <advance width="746"/>
  <unicode hex="00DC"/>
  <outline>
    <contour>
      <point x="188" y="700" type="line"/>
      <point x="408" y="700" type="line"/>
      <point x="329" y="250" type="line" smooth="yes"/>
      <point x="319" y="194"/>
      <point x="340" y="155"/>
      <point x="400" y="155" type="curve" smooth="yes"/>
      <point x="460" y="155"/>
      <point x="495" y="194"/>
      <point x="505" y="250" type="curve" smooth="yes"/>
      <point x="584" y="700" type="line"/>
      <point x="804" y="700" type="line"/>
      <point x="722" y="230" type="line" smooth="yes"/>
      <point x="687" y="31"/>
      <point x="531" y="-40"/>
      <point x="366" y="-40" type="curve" smooth="yes"/>
      <point x="201" y="-40"/>
      <point x="71" y="31"/>
      <point x="106" y="230" type="curve" smooth="yes"/>
    </contour>
    <contour>
      <point x="585" y="878" type="curve" smooth="yes"/>
      <point x="595" y="937"/>
      <point x="650" y="976"/>
      <point x="710" y="976" type="curve" smooth="yes"/>
      <point x="770" y="976"/>
      <point x="811" y="937"/>
      <point x="801" y="878" type="curve" smooth="yes"/>
      <point x="791" y="819"/>
      <point x="736" y="780"/>
      <point x="676" y="780" type="curve" smooth="yes"/>
      <point x="616" y="780"/>
      <point x="575" y="819"/>
    </contour>
    <contour>
      <point x="255" y="878" type="curve" smooth="yes"/>
      <point x="265" y="937"/>
      <point x="320" y="976"/>
      <point x="380" y="976" type="curve" smooth="yes"/>
      <point x="440" y="976"/>
      <point x="481" y="937"/>
      <point x="471" y="878" type="curve" smooth="yes"/>
      <point x="461" y="819"/>
      <point x="406" y="780"/>
      <point x="346" y="780" type="curve" smooth="yes"/>
      <point x="286" y="780"/>
      <point x="245" y="819"/>
    </contour>
  </outline>
</glyph>
<glyph name="Yacute" format="1">
  <advance width="720"/>
  <unicode hex="00DD"/>
  <outline>
    <contour>
      <point x="311" y="360" type="line"/>
      <point x="536" y="360" type="line"/>
      <point x="473" y="0" type="line"/>
      <point x="248" y="0" type="line"/>
    </contour>
    <contour>
      <point x="593" y="700" type="line"/>
      <point x="848" y="700" type="line"/>
      <point x="375" y="84" type="line"/>
      <point x="118" y="700" type="line"/>
      <point x="373" y="700" type="line"/>
      <point x="444" y="474" type="line"/>
    </contour>
    <contour>
      <point x="704" y="930" type="line"/>
      <point x="498" y="780" type="line"/>
      <point x="396" y="830" type="line"/>
      <point x="575" y="990" type="line"/>
    </contour>
  </outline>
</glyph>
<glyph name="germandbls" format="1">
  <advance width="605"/>
  <unicode hex="00DF"/>
  <outline>
    <contour>
      <point x="147" y="606" type="line"/>
      <point x="327" y="576" type="line"/>
      <point x="225" y="0" type="line"/>
      <point x="40" y="0" type="line"/>
    </contour>
    <contour>
      <point x="348" y="405" type="curve"/>
      <point x="369" y="520" type="line"/>
      <point x="439" y="520"/>
      <point x="455" y="540"/>
      <point x="461" y="576" type="curve" smooth="yes"/>
      <point x="467" y="612"/>
      <point x="442" y="625"/>
      <point x="402" y="625" type="curve" smooth="yes"/>
      <point x="352" y="625"/>
      <point x="332" y="602"/>
      <point x="327" y="576" type="curve"/>
      <point x="147" y="606" type="line"/>
      <point x="170" y="735"/>
      <point x="298" y="800"/>
      <point x="433" y="800" type="curve" smooth="yes"/>
      <point x="598" y="800"/>
      <point x="671" y="715"/>
      <point x="652" y="606" type="curve" smooth="yes"/>
      <point x="631" y="487"/>
      <point x="523" y="405"/>
    </contour>
    <contour>
      <point x="316" y="165" type="line"/>
      <point x="396" y="165"/>
      <point x="436" y="209"/>
      <point x="446" y="265" type="curve" smooth="yes"/>
      <point x="454" y="311"/>
      <point x="448" y="345"/>
      <point x="338" y="345" type="curve"/>
      <point x="362" y="480" type="line"/>
      <point x="537" y="480"/>
      <point x="663" y="384"/>
      <point x="635" y="225" type="curve" smooth="yes"/>
      <point x="607" y="66"/>
      <point x="480" y="-10"/>
      <point x="285" y="-10" type="curve"/>
    </contour>
  </outline>
</glyph>
<glyph name="atilde" format="1">
  <advance width="645"/>
  <unicode hex="00E3"/>
  <outline>
    <contour>
      <point x="481" y="460" type="line"/>
      <point x="676" y="460" type="line"/>
      <point x="595" y="0" type="line"/>
      <point x="400" y="0" type="line"/>
    </contour>
    <contour>
      <point x="71" y="230" type="curve" smooth="yes"/>
      <point x="99" y="389"/>
      <point x="221" y="470"/>
      <point x="326" y="470" type="curve" smooth="yes"/>
      <point x="441" y="470"/>
      <point x="513" y="379"/>
      <point x="487" y="230" type="curve" smooth="yes"/>
      <point x="461" y="81"/>
      <point x="356" y="-10"/>
      <point x="241" y="-10" type="curve" smooth="yes"/>
      <point x="136" y="-10"/>
      <point x="43" y="71"/>
    </contour>
    <contour>
      <point x="277" y="230" type="curve" smooth="yes"/>
      <point x="268" y="179"/>
      <point x="298" y="140"/>
      <point x="343" y="140" type="curve" smooth="yes"/>
      <point x="383" y="140"/>
      <point x="431" y="174"/>
      <point x="441" y="230" type="curve" smooth="yes"/>
      <point x="451" y="286"/>
      <point x="414" y="320"/>
      <point x="374" y="320" type="curve" smooth="yes"/>
      <point x="329" y="320"/>
      <point x="286" y="281"/>
    </contour>
    <contour>
      <point x="236" y="614" type="line"/>
      <point x="255" y="663"/>
      <point x="308" y="716"/>
      <point x="383" y="716" type="curve" smooth="yes"/>
      <point x="450" y="716"/>
      <point x="460" y="661"/>
      <point x="518" y="661" type="curve" smooth="yes"/>
      <point x="547" y="661"/>
      <point x="572" y="685"/>
      <point x="598" y="717" type="curve"/>
      <point x="668" y="624" type="line"/>
      <point x="645" y="587"/>
      <point x="571" y="531"/>
      <point x="501" y="531" type="curve" smooth="yes"/>
      <point x="446" y="531"/>
      <point x="412" y="588"/>
      <point x="360" y="588" type="curve" smooth="yes"/>
      <point x="324" y="588"/>
      <point x="309" y="552"/>
      <point x="306" y="537" type="curve"/>
    </contour>
  </outline>
</glyph>
<glyph name="aring" format="1">
  <advance width="645"/>
  <unicode hex="00E5"/>
  <outline>
    <contour>
      <point x="481" y="460" type="line"/>
      <point x="676" y="460" type="line"/>
      <point x="595" y="0" type="line"/>
      <point x="400" y="0" type="line"/>
    </contour>
    <contour>
      <point x="71" y="230" type="curve" smooth="yes"/>
      <point x="99" y="389"/>
      <point x="221" y="470"/>
      <point x="326" y="470" type="curve" smooth="yes"/>
      <point x="441" y="470"/>
      <point x="513" y="379"/>
      <point x="487" y="230" type="curve" smooth="yes"/>
      <point x="461" y="81"/>
      <point x="356" y="-10"/>
      <point x="241" y="-10" type="curve" smooth="yes"/>
      <point x="136" y="-10"/>
      <point x="43" y="71"/>
    </contour>
    <contour>
      <point x="277" y="230" type="curve" smooth="yes"/>
      <point x="268" y="179"/>
      <point x="298" y="140"/>
      <point x="343" y="140" type="curve" smooth="yes"/>
      <point x="383" y="140"/>
      <point x="431" y="174"/>
      <point x="441" y="230" type="curve" smooth="yes"/>
      <point x="451" y="286"/>
      <point x="414" y="320"/>
      <point x="374" y="320" type="curve" smooth="yes"/>
      <point x="329" y="320"/>
      <point x="286" y="281"/>
    </contour>
    <contour>
      <point x="300" y="656" type="curve" smooth="yes"/>
      <point x="313" y="730"/>
      <point x="380" y="781"/>
      <point x="460" y="781" type="curve" smooth="yes"/>
      <point x="540" y="781"/>
      <point x="591" y="730"/>
      <point x="578" y="656" type="curve" smooth="yes"/>
      <point x="565" y="582"/>
      <point x="496" y="531"/>
      <point x="416" y="531" type="curve" smooth="yes"/>
      <point x="336" y="531"/>
      <point x="287" y="582"/>
    </contour>
    <contour>
      <point x="395" y="656" type="curve" smooth="yes"/>
      <point x="390" y="628"/>
      <point x="405" y="612"/>
      <point x="430" y="612" type="curve" smooth="yes"/>
      <point x="455" y="612"/>
      <point x="477" y="628"/>
      <point x="482" y="656" type="curve" smooth="yes"/>
      <point x="487" y="684"/>
      <point x="471" y="701"/>
      <point x="446" y="701" type="curve" smooth="yes"/>
      <point x="421" y="701"/>
      <point x="400" y="684"/>
    </contour>
  </outline>
</glyph>
<glyph name="ae" format="1">
  <advance width="939"/>
  <unicode hex="00E6"/>
  <outline>
    <contour>
      <point x="241" y="139" type="curve" smooth="yes"/>
      <point x="237" y="115"/>
      <point x="257" y="106"/>
      <point x="282" y="106" type="curve" smooth="yes"/>
      <point x="322" y="106"/>
      <point x="367" y="124"/>
      <point x="379" y="190" type="curve"/>
      <point x="454" y="130" type="line"/>
      <point x="438" y="41"/>
      <point x="366" y="-10"/>
      <point x="221" y="-10" type="curve" smooth="yes"/>
      <point x="96" y="-10"/>
      <point x="27" y="41"/>
      <point x="43" y="130" type="curve" smooth="yes"/>
      <point x="58" y="217"/>
      <point x="148" y="275"/>
      <point x="269" y="275" type="curve" smooth="yes"/>
      <point x="327" y="275"/>
      <point x="399" y="257"/>
      <point x="419" y="233" type="curve"/>
      <point x="404" y="147" type="line"/>
      <point x="380" y="169"/>
      <point x="355" y="180"/>
      <point x="307" y="180" type="curve" smooth="yes"/>
      <point x="273" y="180"/>
      <point x="245" y="163"/>
    </contour>
    <contour>
      <point x="174" y="298" type="curve"/>
      <point x="137" y="424" type="line"/>
      <point x="205" y="449"/>
      <point x="294" y="475"/>
      <point x="377" y="475" type="curve" smooth="yes"/>
      <point x="512" y="475"/>
      <point x="533" y="419"/>
      <point x="516" y="320" type="curve" smooth="yes"/>
      <point x="483" y="130" type="line"/>
      <point x="368" y="130" type="line"/>
      <point x="393" y="272" type="line" smooth="yes"/>
      <point x="399" y="307"/>
      <point x="382" y="333"/>
      <point x="332" y="333" type="curve" smooth="yes"/>
      <point x="266" y="333"/>
      <point x="198" y="309"/>
    </contour>
    <contour>
      <point x="460" y="190" type="line"/>
      <point x="476" y="284" type="line"/>
      <point x="939" y="284" type="line"/>
      <point x="937" y="190" type="line"/>
    </contour>
    <contour>
      <point x="742" y="240" type="line" smooth="yes"/>
      <point x="755" y="316"/>
      <point x="745" y="350"/>
      <point x="695" y="350" type="curve" smooth="yes"/>
      <point x="645" y="350"/>
      <point x="614" y="316"/>
      <point x="602" y="250" type="curve"/>
      <point x="597" y="230" type="line"/>
      <point x="582" y="144"/>
      <point x="619" y="120"/>
      <point x="659" y="120" type="curve" smooth="yes"/>
      <point x="706" y="120"/>
      <point x="742" y="135"/>
      <point x="763" y="165" type="curve"/>
      <point x="936" y="137" type="line"/>
      <point x="874" y="47"/>
      <point x="785" y="-10"/>
      <point x="646" y="-10" type="curve" smooth="yes"/>
      <point x="451" y="-10"/>
      <point x="426" y="91"/>
      <point x="451" y="230" type="curve" smooth="yes"/>
      <point x="454" y="247"/>
      <point x="457" y="263"/>
      <point x="463" y="279" type="curve" smooth="yes"/>
      <point x="502" y="392"/>
      <point x="602" y="470"/>
      <point x="751" y="470" type="curve" smooth="yes"/>
      <point x="901" y="470"/>
      <point x="973" y="384"/>
      <point x="947" y="239" type="curve" smooth="yes"/>
      <point x="946" y="231"/>
      <point x="943" y="211"/>
      <point x="937" y="190" type="curve"/>
      <point x="737" y="210" type="line"/>
    </contour>
  </outline>
</glyph>
<glyph name="egrave" format="1">
  <advance width="609"/>
  <unicode hex="00E8"/>
  <outline>
    <contour>
      <point x="130" y="190" type="line"/>
      <point x="146" y="284" type="line"/>
      <point x="609" y="284" type="line"/>
      <point x="607" y="190" type="line"/>
    </contour>
    <contour>
      <point x="412" y="240" type="line" smooth="yes"/>
      <point x="425" y="316"/>
      <point x="415" y="350"/>
      <point x="365" y="350" type="curve" smooth="yes"/>
      <point x="315" y="350"/>
      <point x="284" y="316"/>
      <point x="272" y="250" type="curve"/>
      <point x="267" y="230" type="line"/>
      <point x="252" y="144"/>
      <point x="289" y="120"/>
      <point x="329" y="120" type="curve" smooth="yes"/>
      <point x="376" y="120"/>
      <point x="412" y="135"/>
      <point x="433" y="165" type="curve"/>
      <point x="606" y="137" type="line"/>
      <point x="544" y="47"/>
      <point x="455" y="-10"/>
      <point x="316" y="-10" type="curve" smooth="yes"/>
      <point x="121" y="-10"/>
      <point x="46" y="91"/>
      <point x="71" y="230" type="curve" smooth="yes"/>
      <point x="74" y="247"/>
      <point x="77" y="263"/>
      <point x="83" y="279" type="curve" smooth="yes"/>
      <point x="122" y="392"/>
      <point x="222" y="470"/>
      <point x="391" y="470" type="curve" smooth="yes"/>
      <point x="571" y="470"/>
      <point x="643" y="384"/>
      <point x="617" y="239" type="curve" smooth="yes"/>
      <point x="616" y="231"/>
      <point x="613" y="211"/>
      <point x="607" y="190" type="curve"/>
      <point x="407" y="210" type="line"/>
    </contour>
    <contour>
      <point x="268" y="681" type="line"/>
      <point x="419" y="741" type="line"/>
      <point x="540" y="581" type="line"/>
      <point x="422" y="531" type="line"/>
    </contour>
  </outline>
</glyph>
<glyph name="igrave" format="1">
  <advance width="286"/>
  <unicode hex="00EC"/>
  <outline>
    <contour>
      <point x="130" y="460" type="line"/>
      <point x="317" y="460" type="line"/>
      <point x="236" y="0" type="line"/>
      <point x="49" y="0" type="line"/>
    </contour>
    <contour>
      <point x="70" y="681" type="line"/>
      <point x="221" y="741" type="line"/>
      <point x="342" y="581" type="line"/>
      <point x="224" y="531" type="line"/>
    </contour>
  </outline>
</glyph>
<glyph name="idieresis" format="1">
  <advance width="286"/>
  <unicode hex="00EF"/>
  <outline>
    <contour>
      <point x="130" y="460" type="line"/>
      <point x="317" y="460" type="line"/>
      <point x="236" y="0" type="line"/>
      <point x="49" y="0" type="line"/>
    </contour>
    <contour>
      <point x="281" y="629" type="curve" smooth="yes"/>
      <point x="291" y="688"/>
      <point x="346" y="727"/>
      <point x="406" y="727" type="curve" smooth="yes"/>
      <point x="466" y="727"/>
      <point x="507" y="688"/>
      <point x="497" y="629" type="curve" smooth="yes"/>
      <point x="487" y="570"/>
      <point x="432" y="531"/>
      <point x="372" y="531" type="curve" smooth="yes"/>
      <point x="312" y="531"/>
      <point x="271" y="570"/>
    </contour>
    <contour>
      <point x="11" y="629" type="curve" smooth="yes"/>
      <point x="21" y="688"/>
      <point x="76" y="727"/>
      <point x="136" y="727" type="curve" smooth="yes"/>
      <point x="196" y="727"/>
      <point x="237" y="688"/>
      <point x="227" y="629" type="curve" smooth="yes"/>
      <point x="217" y="570"/>
      <point x="162" y="531"/>
      <point x="102" y="531" type="curve" smooth="yes"/>
      <point x="42" y="531"/>
      <point x="1" y="570"/>
    </contour>
  </outline>
</glyph>
<glyph name="eth" format="1">
  <advance width="726"/>
  <unicode hex="00F0"/>
  <outline>
    <contour>
      <point x="502" y="255" type="curve" smooth="yes"/>
      <point x="512" y="311"/>
      <point x="477" y="347"/>
      <point x="424" y="347" type="curve" smooth="yes"/>
      <point x="371" y="347"/>
      <point x="324" y="311"/>
      <point x="314" y="255" type="curve" smooth="yes"/>
      <point x="304" y="199"/>
      <point x="339" y="165"/>
      <point x="392" y="165" type="curve" smooth="yes"/>
      <point x="445" y="165"/>
      <point x="492" y="199"/>
    </contour>
    <contour>
      <point x="514" y="695" type="line"/>
      <point x="657" y="480" type="line" smooth="yes"/>
      <point x="702" y="412"/>
      <point x="736" y="342"/>
      <point x="721" y="255" type="curve" smooth="yes"/>
      <point x="688" y="66"/>
      <point x="529" y="-20"/>
      <point x="359" y="-20" type="curve" smooth="yes"/>
      <point x="189" y="-20"/>
      <point x="62" y="66"/>
      <point x="95" y="255" type="curve" smooth="yes"/>
      <point x="121" y="404"/>
      <point x="258" y="483"/>
      <point x="357" y="483" type="curve" smooth="yes"/>
      <point x="410" y="483"/>
      <point x="435" y="475"/>
      <point x="472" y="437" type="curve"/>
      <point x="425" y="464" type="line"/>
      <point x="235" y="695" type="line"/>
    </contour>
    <contour>
      <point x="217" y="520" type="line"/>
      <point x="232" y="605" type="line"/>
      <point x="752" y="605" type="line"/>
      <point x="737" y="520" type="line"/>
    </contour>
  </outline>
</glyph>
<glyph name="oacute" format="1">
  <advance width="616"/>
  <unicode hex="00F3"/>
  <outline>
    <contour>
      <point x="71" y="230" type="curve" smooth="yes"/>
      <point x="97" y="379"/>
      <point x="231" y="471"/>
      <point x="391" y="471" type="curve" smooth="yes"/>
      <point x="551" y="471"/>
      <point x="653" y="379"/>
      <point x="627" y="230" type="curve" smooth="yes"/>
      <point x="601" y="81"/>
      <point x="466" y="-10"/>
      <point x="306" y="-10" type="curve" smooth="yes"/>
      <point x="146" y="-10"/>
      <point x="45" y="81"/>
    </contour>
    <contour>
      <point x="272" y="230" type="curve" smooth="yes"/>
      <point x="262" y="174"/>
      <point x="294" y="145"/>
      <point x="334" y="145" type="curve" smooth="yes"/>
      <point x="374" y="145"/>
      <point x="416" y="174"/>
      <point x="426" y="230" type="curve" smooth="yes"/>
      <point x="436" y="286"/>
      <point x="404" y="316"/>
      <point x="364" y="316" type="curve" smooth="yes"/>
      <point x="324" y="316"/>
      <point x="282" y="286"/>
    </contour>
    <contour>
      <point x="588" y="681" type="line"/>
      <point x="382" y="531" type="line"/>
      <point x="280" y="581" type="line"/>
      <point x="459" y="741" type="line"/>
    </contour>
  </outline>
</glyph>
<glyph name="otilde" format="1">
  <advance width="616"/>
  <unicode hex="00F5"/>
  <outline>
    <contour>
      <point x="71" y="230" type="curve" smooth="yes"/>
      <point x="97" y="379"/>
      <point x="231" y="471"/>
      <point x="391" y="471" type="curve" smooth="yes"/>
      <point x="551" y="471"/>
      <point x="653" y="379"/>
      <point x="627" y="230" type="curve" smooth="yes"/>
      <point x="601" y="81"/>
      <point x="466" y="-10"/>
      <point x="306" y="-10" type="curve" smooth="yes"/>
      <point x="146" y="-10"/>
      <point x="45" y="81"/>
    </contour>
    <contour>
      <point x="272" y="230" type="curve" smooth="yes"/>
      <point x="262" y="174"/>
      <point x="294" y="145"/>
      <point x="334" y="145" type="curve" smooth="yes"/>
      <point x="374" y="145"/>
      <point x="416" y="174"/>
      <point x="426" y="230" type="curve" smooth="yes"/>
      <point x="436" y="286"/>
      <point x="404" y="316"/>
      <point x="364" y="316" type="curve" smooth="yes"/>
      <point x="324" y="316"/>
      <point x="282" y="286"/>
    </contour>
    <contour>
      <point x="201" y="614" type="line"/>
      <point x="220" y="663"/>
      <point x="273" y="716"/>
      <point x="348" y="716" type="curve" smooth="yes"/>
      <point x="415" y="716"/>
      <point x="425" y="661"/>
      <point x="483" y="661" type="curve" smooth="yes"/>
      <point x="512" y="661"/>
      <point x="537" y="685"/>
      <point x="563" y="717" type="curve"/>
      <point x="633" y="624" type="line"/>
      <point x="610" y="587"/>
      <point x="536" y="531"/>
      <point x="466" y="531" type="curve" smooth="yes"/>
      <point x="411" y="531"/>
      <point x="377" y="588"/>
      <point x="325" y="588" type="curve" smooth="yes"/>
      <point x="289" y="588"/>
      <point x="274" y="552"/>
      <point x="271" y="537" type="curve"/>
    </contour>
  </outline>
</glyph>
<glyph name="odieresis" format="1">
  <advance width="616"/>
  <unicode hex="00F6"/>
  <outline>
    <contour>
      <point x="71" y="230" type="curve" smooth="yes"/>
      <point x="97" y="379"/>
      <point x="231" y="471"/>
      <point x="391" y="471" type="curve" smooth="yes"/>
      <point x="551" y="471"/>
      <point x="653" y="379"/>
      <point x="627" y="230" type="curve" smooth="yes"/>
      <point x="601" y="81"/>
      <point x="466" y="-10"/>
      <point x="306" y="-10" type="curve" smooth="yes"/>
      <point x="146" y="-10"/>
      <point x="45" y="81"/>
    </contour>
    <contour>
      <point x="272" y="230" type="curve" smooth="yes"/>
      <point x="262" y="174"/>
      <point x="294" y="145"/>
      <point x="334" y="145" type="curve" smooth="yes"/>
      <point x="374" y="145"/>
      <point x="416" y="174"/>
      <point x="426" y="230" type="curve" smooth="yes"/>
      <point x="436" y="286"/>
      <point x="404" y="316"/>
      <point x="364" y="316" type="curve" smooth="yes"/>
      <point x="324" y="316"/>
      <point x="282" y="286"/>
    </contour>
    <contour>
      <point x="446" y="629" type="curve" smooth="yes"/>
      <point x="456" y="688"/>
      <point x="511" y="727"/>
      <point x="571" y="727" type="curve" smooth="yes"/>
      <point x="631" y="727"/>
      <point x="672" y="688"/>
      <point x="662" y="629" type="curve" smooth="yes"/>
      <point x="652" y="570"/>
      <point x="597" y="531"/>
      <point x="537" y="531" type="curve" smooth="yes"/>
      <point x="477" y="531"/>
      <point x="436" y="570"/>
    </contour>
    <contour>
      <point x="176" y="629" type="curve" smooth="yes"/>
      <point x="186" y="688"/>
      <point x="241" y="727"/>
      <point x="301" y="727" type="curve" smooth="yes"/>
      <point x="361" y="727"/>
      <point x="402" y="688"/>
      <point x="392" y="629" type="curve" smooth="yes"/>
      <point x="382" y="570"/>
      <point x="327" y="531"/>
      <point x="267" y="531" type="curve" smooth="yes"/>
      <point x="207" y="531"/>
      <point x="166" y="570"/>
    </contour>
  </outline>
</glyph>
<glyph name="oslash" format="1">
  <advance width="546"/>
  <unicode hex="00F8"/>
  <outline>
    <contour>
      <point x="71" y="230" type="curve" smooth="yes"/>
      <point x="99" y="389"/>
      <point x="236" y="470"/>
      <point x="391" y="470" type="curve" smooth="yes"/>
      <point x="546" y="470"/>
      <point x="655" y="389"/>
      <point x="627" y="230" type="curve" smooth="yes"/>
      <point x="599" y="71"/>
      <point x="461" y="-10"/>
      <point x="306" y="-10" type="curve" smooth="yes"/>
      <point x="151" y="-10"/>
      <point x="43" y="71"/>
    </contour>
    <contour>
      <point x="252" y="230" type="curve" smooth="yes"/>
      <point x="240" y="164"/>
      <point x="282" y="135"/>
      <point x="332" y="135" type="curve" smooth="yes"/>
      <point x="382" y="135"/>
      <point x="434" y="164"/>
      <point x="446" y="230" type="curve" smooth="yes"/>
      <point x="456" y="286"/>
      <point x="415" y="325"/>
      <point x="365" y="325" type="curve" smooth="yes"/>
      <point x="315" y="325"/>
      <point x="262" y="286"/>
    </contour>
    <contour>
      <point x="555" y="510" type="line"/>
      <point x="613" y="470" type="line"/>
      <point x="130" y="-54" type="line"/>
      <point x="73" y="-14" type="line"/>
    </contour>
  </outline>
</glyph>
<glyph name="udieresis" format="1">
  <advance width="605"/>
  <unicode hex="00FC"/>
  <outline>
    <contour>
      <point x="360" y="0" type="line"/>
      <point x="441" y="460" type="line"/>
      <point x="636" y="460" type="line"/>
      <point x="555" y="0" type="line"/>
    </contour>
    <contour>
      <point x="287" y="180" type="line" smooth="yes"/>
      <point x="280" y="139"/>
      <point x="283" y="114"/>
      <point x="323" y="114" type="curve" smooth="yes"/>
      <point x="358" y="114"/>
      <point x="384" y="134"/>
      <point x="392" y="180" type="curve"/>
      <point x="420" y="190" type="line"/>
      <point x="401" y="81"/>
      <point x="341" y="-11"/>
      <point x="216" y="-11" type="curve" smooth="yes"/>
      <point x="91" y="-11"/>
      <point x="59" y="51"/>
      <point x="78" y="160" type="curve" smooth="yes"/>
      <point x="131" y="460" type="line"/>
      <point x="336" y="460" type="line"/>
    </contour>
    <contour>
      <point x="441" y="629" type="curve" smooth="yes"/>
      <point x="451" y="688"/>
      <point x="506" y="727"/>
      <point x="566" y="727" type="curve" smooth="yes"/>
      <point x="626" y="727"/>
      <point x="667" y="688"/>
      <point x="657" y="629" type="curve" smooth="yes"/>
      <point x="647" y="570"/>
      <point x="592" y="531"/>
      <point x="532" y="531" type="curve" smooth="yes"/>
      <point x="472" y="531"/>
      <point x="431" y="570"/>
    </contour>
    <contour>
      <point x="171" y="629" type="curve" smooth="yes"/>
      <point x="181" y="688"/>
      <point x="236" y="727"/>
      <point x="296" y="727" type="curve" smooth="yes"/>
      <point x="356" y="727"/>
      <point x="397" y="688"/>
      <point x="387" y="629" type="curve" smooth="yes"/>
      <point x="377" y="570"/>
      <point x="322" y="531"/>
      <point x="262" y="531" type="curve" smooth="yes"/>
      <point x="202" y="531"/>
      <point x="161" y="570"/>
    </contour>
  </outline>
</glyph>
<glyph name="ydieresis" format="1">
  <advance width="570"/>
  <unicode hex="00FF"/>
  <outline>
    <contour>
      <point x="666" y="460" type="line"/>
      <point x="246" y="-220" type="line"/>
      <point x="56" y="-220" type="line"/>
      <point x="202" y="20" type="line"/>
      <point x="66" y="460" type="line"/>
      <point x="276" y="460" type="line"/>
      <point x="360" y="85" type="line"/>
      <point x="255" y="85" type="line"/>
      <point x="471" y="460" type="line"/>
    </contour>
    <contour>
      <point x="423" y="629" type="curve" smooth="yes"/>
      <point x="433" y="688"/>
      <point x="488" y="727"/>
      <point x="548" y="727" type="curve" smooth="yes"/>
      <point x="608" y="727"/>
      <point x="649" y="688"/>
      <point x="639" y="629" type="curve" smooth="yes"/>
      <point x="629" y="570"/>
      <point x="574" y="531"/>
      <point x="514" y="531" type="curve" smooth="yes"/>
      <point x="454" y="531"/>
      <point x="413" y="570"/>
    </contour>
    <contour>
      <point x="153" y="629" type="curve" smooth="yes"/>
      <point x="163" y="688"/>
      <point x="218" y="727"/>
      <point x="278" y="727" type="curve" smooth="yes"/>
      <point x="338" y="727"/>
      <point x="379" y="688"/>
      <point x="369" y="629" type="curve" smooth="yes"/>
      <point x="359" y="570"/>
      <point x="304" y="531"/>
      <point x="244" y="531" type="curve" smooth="yes"/>
      <point x="184" y="531"/>
      <point x="143" y="570"/>
    </contour>
  </outline>
</glyph>
<glyph name="abreve" format="1">
  <advance width="645"/>
  <unicode hex="0103"/>
  <outline>
    <contour>
      <point x="481" y="460" type="line"/>
      <point x="676" y="460" type="line"/>
      <point x="595" y="0" type="line"/>
      <point x="400" y="0" type="line"/>
    </contour>
    <contour>
      <point x="71" y="230" type="curve" smooth="yes"/>
      <point x="99" y="389"/>
      <point x="221" y="470"/>
      <point x="326" y="470" type="curve" smooth="yes"/>
      <point x="441" y="470"/>
      <point x="513" y="379"/>
      <point x="487" y="230" type="curve" smooth="yes"/>
      <point x="461" y="81"/>
      <point x="356" y="-10"/>
      <point x="241" y="-10" type="curve" smooth="yes"/>
      <point x="136" y="-10"/>
      <point x="43" y="71"/>
    </contour>
    <contour>
      <point x="277" y="230" type="curve" smooth="yes"/>
      <point x="268" y="179"/>
      <point x="298" y="140"/>
      <point x="343" y="140" type="curve" smooth="yes"/>
      <point x="383" y="140"/>
      <point x="431" y="174"/>
      <point x="441" y="230" type="curve" smooth="yes"/>
      <point x="451" y="286"/>
      <point x="414" y="320"/>
      <point x="374" y="320" type="curve" smooth="yes"/>
      <point x="329" y="320"/>
      <point x="286" y="281"/>
    </contour>
    <contour>
      <point x="275" y="681" type="curve"/>
      <point x="391" y="681" type="line"/>
      <point x="384" y="640"/>
      <point x="414" y="631"/>
      <point x="434" y="631" type="curve" smooth="yes"/>
      <point x="454" y="631"/>
      <point x="488" y="640"/>
      <point x="495" y="681" type="curve"/>
      <point x="611" y="681" type="line"/>
      <point x="595" y="592"/>
      <point x="522" y="531"/>
      <point x="417" y="531" type="curve" smooth="yes"/>
      <point x="312" y="531"/>
      <point x="259" y="592"/>
    </contour>
  </outline>
</glyph>
<glyph name="Aogonek" format="1">
  <advance width="780"/>
  <unicode hex="0104"/>
  <outline>
    <contour>
      <point x="223" y="90" type="line"/>
      <point x="251" y="248" type="line"/>
      <point x="621" y="248" type="line"/>
      <point x="593" y="90" type="line"/>
    </contour>
    <contour>
      <point x="457" y="382" type="line"/>
      <point x="337" y="189" type="line"/>
      <point x="346" y="139" type="line"/>
      <point x="245" y="0" type="line"/>
      <point x="-5" y="0" type="line"/>
      <point x="522" y="750" type="line"/>
      <point x="785" y="0" type="line"/>
      <point x="535" y="0" type="line"/>
      <point x="484" y="132" type="line"/>
      <point x="509" y="189" type="line"/>
    </contour>
    <contour>
      <point x="721" y="-87" type="curve"/>
      <point x="740" y="-167" type="line"/>
      <point x="721" y="-187"/>
      <point x="687" y="-207"/>
      <point x="624" y="-207" type="curve" smooth="yes"/>
      <point x="570" y="-207"/>
      <point x="517" y="-176"/>
      <point x="529" y="-107" type="curve"/>
      <point x="644" y="-77" type="line"/>
      <point x="641" y="-95"/>
      <point x="647" y="-107"/>
      <point x="667" y="-107" type="curve" smooth="yes"/>
      <point x="683" y="-107"/>
      <point x="705" y="-100"/>
    </contour>
    <contour>
      <point x="644" y="-77" type="curve"/>
      <point x="529" y="-107" type="line"/>
      <point x="541" y="-38"/>
      <point x="621" y="2"/>
      <point x="697" y="38" type="curve"/>
      <point x="733" y="13" type="line"/>
      <point x="675" y="-19"/>
      <point x="649" y="-50"/>
    </contour>
  </outline>
</glyph>
<glyph name="aogonek" format="1">
  <advance width="645"/>
  <unicode hex="0105"/>
  <outline>
    <contour>
      <point x="481" y="460" type="line"/>
      <point x="676" y="460" type="line"/>
      <point x="595" y="0" type="line"/>
      <point x="400" y="0" type="line"/>
    </contour>
    <contour>
      <point x="71" y="230" type="curve" smooth="yes"/>
      <point x="99" y="389"/>
      <point x="221" y="470"/>
      <point x="326" y="470" type="curve" smooth="yes"/>
      <point x="441" y="470"/>
      <point x="513" y="379"/>
      <point x="487" y="230" type="curve" smooth="yes"/>
      <point x="461" y="81"/>
      <point x="356" y="-10"/>
      <point x="241" y="-10" type="curve" smooth="yes"/>
      <point x="136" y="-10"/>
      <point x="43" y="71"/>
    </contour>
    <contour>
      <point x="277" y="230" type="curve" smooth="yes"/>
      <point x="268" y="179"/>
      <point x="298" y="140"/>
      <point x="343" y="140" type="curve" smooth="yes"/>
      <point x="383" y="140"/>
      <point x="431" y="174"/>
      <point x="441" y="230" type="curve" smooth="yes"/>
      <point x="451" y="286"/>
      <point x="414" y="320"/>
      <point x="374" y="320" type="curve" smooth="yes"/>
      <point x="329" y="320"/>
      <point x="286" y="281"/>
    </contour>
    <contour>
      <point x="522" y="-100" type="curve"/>
      <point x="541" y="-180" type="line"/>
      <point x="522" y="-200"/>
      <point x="489" y="-220"/>
      <point x="426" y="-220" type="curve" smooth="yes"/>
      <point x="372" y="-220"/>
      <point x="319" y="-189"/>
      <point x="331" y="-120" type="curve"/>
      <point x="446" y="-90" type="line"/>
      <point x="443" y="-108"/>
      <point x="449" y="-120"/>
      <point x="469" y="-120" type="curve" smooth="yes"/>
      <point x="485" y="-120"/>
      <point x="506" y="-113"/>
    </contour>
    <contour>
      <point x="446" y="-90" type="curve"/>
      <point x="331" y="-120" type="line"/>
      <point x="343" y="-51"/>
      <point x="422" y="-11"/>
      <point x="498" y="25" type="curve"/>
      <point x="535" y="0" type="line"/>
      <point x="477" y="-32"/>
      <point x="451" y="-63"/>
    </contour>
  </outline>
</glyph>
<glyph name="Cdotaccent" format="1">
  <advance width="710"/>
  <unicode hex="010A"/>
  <outline>
    <contour>
      <point x="334" y="350" type="curve" smooth="yes"/>
      <point x="315" y="242"/>
      <point x="386" y="187"/>
      <point x="484" y="187" type="curve" smooth="yes"/>
      <point x="583" y="187"/>
      <point x="647" y="231"/>
      <point x="698" y="273" type="curve"/>
      <point x="658" y="47" type="line"/>
      <point x="596" y="9"/>
      <point x="533" y="-20"/>
      <point x="431" y="-20" type="curve" smooth="yes"/>
      <point x="187" y="-20"/>
      <point x="53" y="126"/>
      <point x="92" y="350" type="curve" smooth="yes"/>
      <point x="131" y="574"/>
      <point x="318" y="720"/>
      <point x="562" y="720" type="curve" smooth="yes"/>
      <point x="664" y="720"/>
      <point x="717" y="691"/>
      <point x="765" y="653" type="curve"/>
      <point x="725" y="427" type="line"/>
      <point x="688" y="469"/>
      <point x="640" y="513"/>
      <point x="541" y="513" type="curve" smooth="yes"/>
      <point x="443" y="513"/>
      <point x="353" y="458"/>
    </contour>
    <contour>
      <point x="442" y="878" type="curve" smooth="yes"/>
      <point x="452" y="937"/>
      <point x="507" y="976"/>
      <point x="567" y="976" type="curve" smooth="yes"/>
      <point x="627" y="976"/>
      <point x="668" y="937"/>
      <point x="658" y="878" type="curve" smooth="yes"/>
      <point x="648" y="819"/>
      <point x="593" y="780"/>
      <point x="533" y="780" type="curve" smooth="yes"/>
      <point x="473" y="780"/>
      <point x="432" y="819"/>
    </contour>
  </outline>
</glyph>
<glyph name="Ebreve" format="1">
  <advance width="635"/>
  <unicode hex="0114"/>
  <outline>
    <contour>
      <point x="222" y="0" type="line"/>
      <point x="253" y="175" type="line"/>
      <point x="606" y="175" type="line"/>
      <point x="575" y="0" type="line"/>
    </contour>
    <contour>
      <point x="315" y="525" type="line"/>
      <point x="345" y="700" type="line"/>
      <point x="698" y="700" type="line"/>
      <point x="668" y="525" type="line"/>
    </contour>
    <contour>
      <point x="270" y="275" type="line"/>
      <point x="300" y="445" type="line"/>
      <point x="633" y="445" type="line"/>
      <point x="603" y="275" type="line"/>
    </contour>
    <contour>
      <point x="193" y="700" type="line"/>
      <point x="403" y="700" type="line"/>
      <point x="280" y="0" type="line"/>
      <point x="70" y="0" type="line"/>
    </contour>
    <contour>
      <point x="318" y="930" type="curve"/>
      <point x="434" y="930" type="line"/>
      <point x="427" y="889"/>
      <point x="457" y="880"/>
      <point x="477" y="880" type="curve" smooth="yes"/>
      <point x="497" y="880"/>
      <point x="531" y="889"/>
      <point x="538" y="930" type="curve"/>
      <point x="654" y="930" type="line"/>
      <point x="638" y="841"/>
      <point x="565" y="780"/>
      <point x="460" y="780" type="curve" smooth="yes"/>
      <point x="355" y="780"/>
      <point x="302" y="841"/>
    </contour>
  </outline>
</glyph>
<glyph name="Edotaccent" format="1">
  <advance width="635"/>
  <unicode hex="0116"/>
  <outline>
    <contour>
      <point x="222" y="0" type="line"/>
      <point x="253" y="175" type="line"/>
      <point x="606" y="175" type="line"/>
      <point x="575" y="0" type="line"/>
    </contour>
    <contour>
      <point x="315" y="525" type="line"/>
      <point x="345" y="700" type="line"/>
      <point x="698" y="700" type="line"/>
      <point x="668" y="525" type="line"/>
    </contour>
    <contour>
      <point x="270" y="275" type="line"/>
      <point x="300" y="445" type="line"/>
      <point x="633" y="445" type="line"/>
      <point x="603" y="275" type="line"/>
    </contour>
    <contour>
      <point x="193" y="700" type="line"/>
      <point x="403" y="700" type="line"/>
      <point x="280" y="0" type="line"/>
      <point x="70" y="0" type="line"/>
    </contour>
    <contour>
      <point x="369" y="878" type="curve" smooth="yes"/>
      <point x="379" y="937"/>
      <point x="434" y="976"/>
      <point x="494" y="976" type="curve" smooth="yes"/>
      <point x="554" y="976"/>
      <point x="595" y="937"/>
      <point x="585" y="878" type="curve" smooth="yes"/>
      <point x="575" y="819"/>
      <point x="520" y="780"/>
      <point x="460" y="780" type="curve" smooth="yes"/>
      <point x="400" y="780"/>
      <point x="359" y="819"/>
    </contour>
  </outline>
</glyph>
<glyph name="edotaccent" format="1">
  <advance width="609"/>
  <unicode hex="0117"/>
  <outline>
    <contour>
      <point x="130" y="190" type="line"/>
      <point x="146" y="284" type="line"/>
      <point x="609" y="284" type="line"/>
      <point x="607" y="190" type="line"/>
    </contour>
    <contour>
      <point x="412" y="240" type="line" smooth="yes"/>
      <point x="425" y="316"/>
      <point x="415" y="350"/>
      <point x="365" y="350" type="curve" smooth="yes"/>
      <point x="315" y="350"/>
      <point x="284" y="316"/>
      <point x="272" y="250" type="curve"/>
      <point x="267" y="230" type="line"/>
      <point x="252" y="144"/>
      <point x="289" y="120"/>
      <point x="329" y="120" type="curve" smooth="yes"/>
      <point x="376" y="120"/>
      <point x="412" y="135"/>
      <point x="433" y="165" type="curve"/>
      <point x="606" y="137" type="line"/>
      <point x="544" y="47"/>
      <point x="455" y="-10"/>
      <point x="316" y="-10" type="curve" smooth="yes"/>
      <point x="121" y="-10"/>
      <point x="46" y="91"/>
      <point x="71" y="230" type="curve" smooth="yes"/>
      <point x="74" y="247"/>
      <point x="77" y="263"/>
      <point x="83" y="279" type="curve" smooth="yes"/>
      <point x="122" y="392"/>
      <point x="222" y="470"/>
      <point x="391" y="470" type="curve" smooth="yes"/>
      <point x="571" y="470"/>
      <point x="643" y="384"/>
      <point x="617" y="239" type="curve" smooth="yes"/>
      <point x="616" y="231"/>
      <point x="613" y="211"/>
      <point x="607" y="190" type="curve"/>
      <point x="407" y="210" type="line"/>
    </contour>
    <contour>
      <point x="311" y="629" type="curve" smooth="yes"/>
      <point x="321" y="688"/>
      <point x="376" y="727"/>
      <point x="436" y="727" type="curve" smooth="yes"/>
      <point x="496" y="727"/>
      <point x="537" y="688"/>
      <point x="527" y="629" type="curve" smooth="yes"/>
      <point x="517" y="570"/>
      <point x="462" y="531"/>
      <point x="402" y="531" type="curve" smooth="yes"/>
      <point x="342" y="531"/>
      <point x="301" y="570"/>
    </contour>
  </outline>
</glyph>
<glyph name="Eogonek" format="1">
  <advance width="635"/>
  <unicode hex="0118"/>
  <outline>
    <contour>
      <point x="222" y="0" type="line"/>
      <point x="253" y="175" type="line"/>
      <point x="606" y="175" type="line"/>
      <point x="575" y="0" type="line"/>
    </contour>
    <contour>
      <point x="315" y="525" type="line"/>
      <point x="345" y="700" type="line"/>
      <point x="698" y="700" type="line"/>
      <point x="668" y="525" type="line"/>
    </contour>
    <contour>
      <point x="270" y="275" type="line"/>
      <point x="300" y="445" type="line"/>
      <point x="633" y="445" type="line"/>
      <point x="603" y="275" type="line"/>
    </contour>
    <contour>
      <point x="193" y="700" type="line"/>
      <point x="403" y="700" type="line"/>
      <point x="280" y="0" type="line"/>
      <point x="70" y="0" type="line"/>
    </contour>
    <contour>
      <point x="521" y="-97" type="curve"/>
      <point x="541" y="-177" type="line"/>
      <point x="522" y="-197"/>
      <point x="489" y="-217"/>
      <point x="426" y="-217" type="curve" smooth="yes"/>
      <point x="372" y="-217"/>
      <point x="317" y="-186"/>
      <point x="329" y="-117" type="curve"/>
      <point x="445" y="-87" type="line"/>
      <point x="442" y="-105"/>
      <point x="447" y="-117"/>
      <point x="467" y="-117" type="curve" smooth="yes"/>
      <point x="483" y="-117"/>
      <point x="505" y="-110"/>
    </contour>
    <contour>
      <point x="445" y="-87" type="curve"/>
      <point x="329" y="-117" type="line"/>
      <point x="341" y="-48"/>
      <point x="421" y="-8"/>
      <point x="497" y="28" type="curve"/>
      <point x="535" y="3" type="line"/>
      <point x="477" y="-29"/>
      <point x="450" y="-60"/>
    </contour>
  </outline>
</glyph>
<glyph name="eogonek" format="1">
  <advance width="609"/>
  <unicode hex="0119"/>
  <outline>
    <contour>
      <point x="130" y="190" type="line"/>
      <point x="146" y="284" type="line"/>
      <point x="609" y="284" type="line"/>
      <point x="607" y="190" type="line"/>
    </contour>
    <contour>
      <point x="412" y="240" type="line" smooth="yes"/>
      <point x="425" y="316"/>
      <point x="415" y="350"/>
      <point x="365" y="350" type="curve" smooth="yes"/>
      <point x="315" y="350"/>
      <point x="284" y="316"/>
      <point x="272" y="250" type="curve"/>
      <point x="267" y="230" type="line"/>
      <point x="252" y="144"/>
      <point x="289" y="120"/>
      <point x="329" y="120" type="curve" smooth="yes"/>
      <point x="376" y="120"/>
      <point x="412" y="135"/>
      <point x="433" y="165" type="curve"/>
      <point x="606" y="137" type="line"/>
      <point x="544" y="47"/>
      <point x="455" y="-10"/>
      <point x="316" y="-10" type="curve" smooth="yes"/>
      <point x="121" y="-10"/>
      <point x="46" y="91"/>
      <point x="71" y="230" type="curve" smooth="yes"/>
      <point x="74" y="247"/>
      <point x="77" y="263"/>
      <point x="83" y="279" type="curve" smooth="yes"/>
      <point x="122" y="392"/>
      <point x="222" y="470"/>
      <point x="391" y="470" type="curve" smooth="yes"/>
      <point x="571" y="470"/>
      <point x="643" y="384"/>
      <point x="617" y="239" type="curve" smooth="yes"/>
      <point x="616" y="231"/>
      <point x="613" y="211"/>
      <point x="607" y="190" type="curve"/>
      <point x="407" y="210" type="line"/>
    </contour>
    <contour>
      <point x="335" y="-107" type="curve"/>
      <point x="354" y="-187" type="line"/>
      <point x="335" y="-207"/>
      <point x="302" y="-227"/>
      <point x="239" y="-227" type="curve" smooth="yes"/>
      <point x="185" y="-227"/>
      <point x="132" y="-196"/>
      <point x="144" y="-127" type="curve"/>
      <point x="259" y="-97" type="line"/>
      <point x="256" y="-115"/>
      <point x="262" y="-127"/>
      <point x="282" y="-127" type="curve" smooth="yes"/>
      <point x="298" y="-127"/>
      <point x="319" y="-120"/>
    </contour>
    <contour>
      <point x="259" y="-97" type="curve"/>
      <point x="144" y="-127" type="line"/>
      <point x="156" y="-58"/>
      <point x="235" y="-18"/>
      <point x="311" y="18" type="curve"/>
      <point x="348" y="-7" type="line"/>
      <point x="290" y="-39"/>
      <point x="264" y="-70"/>
    </contour>
  </outline>
</glyph>
<glyph name="Ecaron" format="1">
  <advance width="635"/>
  <unicode hex="011A"/>
  <outline>
    <contour>
      <point x="222" y="0" type="line"/>
      <point x="253" y="175" type="line"/>
      <point x="606" y="175" type="line"/>
      <point x="575" y="0" type="line"/>
    </contour>
    <contour>
      <point x="315" y="525" type="line"/>
      <point x="345" y="700" type="line"/>
      <point x="698" y="700" type="line"/>
      <point x="668" y="525" type="line"/>
    </contour>
    <contour>
      <point x="270" y="275" type="line"/>
      <point x="300" y="445" type="line"/>
      <point x="633" y="445" type="line"/>
      <point x="603" y="275" type="line"/>
    </contour>
    <contour>
      <point x="193" y="700" type="line"/>
      <point x="403" y="700" type="line"/>
      <point x="280" y="0" type="line"/>
      <point x="70" y="0" type="line"/>
    </contour>
    <contour>
      <point x="486" y="930" type="line"/>
      <point x="580" y="1010" type="line"/>
      <point x="704" y="920" type="line"/>
      <point x="460" y="780" type="line"/>
      <point x="264" y="920" type="line"/>
      <point x="420" y="1010" type="line"/>
    </contour>
  </outline>
</glyph>
<glyph name="Gdotaccent" format="1">
  <advance width="838"/>
  <unicode hex="0120"/>
  <outline>
    <contour>
      <point x="472" y="240" type="line"/>
      <point x="501" y="400" type="line"/>
      <point x="873" y="400" type="line"/>
      <point x="734" y="240" type="line"/>
    </contour>
    <contour>
      <point x="873" y="400" type="line"/>
      <point x="851" y="161"/>
      <point x="679" y="-30"/>
      <point x="425" y="-30" type="curve" smooth="yes"/>
      <point x="191" y="-30"/>
      <point x="52" y="121"/>
      <point x="92" y="350" type="curve" smooth="yes"/>
      <point x="132" y="579"/>
      <point x="333" y="720"/>
      <point x="567" y="720" type="curve" smooth="yes"/>
      <point x="726" y="720"/>
      <point x="814" y="641"/>
      <point x="867" y="544" type="curve"/>
      <point x="646" y="452" type="line"/>
      <point x="630" y="496"/>
      <point x="601" y="535"/>
      <point x="534" y="535" type="curve" smooth="yes"/>
      <point x="436" y="535"/>
      <point x="344" y="473"/>
      <point x="322" y="350" type="curve" smooth="yes"/>
      <point x="300" y="227"/>
      <point x="359" y="155"/>
      <point x="467" y="155" type="curve" smooth="yes"/>
      <point x="615" y="155"/>
      <point x="660" y="267"/>
      <point x="683" y="400" type="curve"/>
    </contour>
    <contour>
      <point x="487" y="878" type="curve" smooth="yes"/>
      <point x="497" y="937"/>
      <point x="552" y="976"/>
      <point x="612" y="976" type="curve" smooth="yes"/>
      <point x="672" y="976"/>
      <point x="713" y="937"/>
      <point x="703" y="878" type="curve" smooth="yes"/>
      <point x="693" y="819"/>
      <point x="638" y="780"/>
      <point x="578" y="780" type="curve" smooth="yes"/>
      <point x="518" y="780"/>
      <point x="477" y="819"/>
    </contour>
  </outline>
</glyph>
<glyph name="uni0122" format="1">
  <advance width="838"/>
  <unicode hex="0122"/>
  <outline>
    <contour>
      <point x="472" y="240" type="line"/>
      <point x="501" y="400" type="line"/>
      <point x="873" y="400" type="line"/>
      <point x="734" y="240" type="line"/>
    </contour>
    <contour>
      <point x="873" y="400" type="line"/>
      <point x="851" y="161"/>
      <point x="679" y="-30"/>
      <point x="425" y="-30" type="curve" smooth="yes"/>
      <point x="191" y="-30"/>
      <point x="52" y="121"/>
      <point x="92" y="350" type="curve" smooth="yes"/>
      <point x="132" y="579"/>
      <point x="333" y="720"/>
      <point x="567" y="720" type="curve" smooth="yes"/>
      <point x="726" y="720"/>
      <point x="814" y="641"/>
      <point x="867" y="544" type="curve"/>
      <point x="646" y="452" type="line"/>
      <point x="630" y="496"/>
      <point x="601" y="535"/>
      <point x="534" y="535" type="curve" smooth="yes"/>
      <point x="436" y="535"/>
      <point x="344" y="473"/>
      <point x="322" y="350" type="curve" smooth="yes"/>
      <point x="300" y="227"/>
      <point x="359" y="155"/>
      <point x="467" y="155" type="curve" smooth="yes"/>
      <point x="615" y="155"/>
      <point x="660" y="267"/>
      <point x="683" y="400" type="curve"/>
    </contour>
    <contour>
      <point x="310" y="-90" type="line"/>
      <point x="500" y="-124" type="line"/>
      <point x="320" y="-374" type="line"/>
      <point x="176" y="-349" type="line"/>
    </contour>
  </outline>
</glyph>
<glyph name="Hcircumflex" format="1">
  <advance width="830"/>
  <unicode hex="0124"/>
  <outline>
    <contour>
      <point x="164" y="265" type="line"/>
      <point x="198" y="460" type="line"/>
      <point x="758" y="460" type="line"/>
      <point x="724" y="265" type="line"/>
    </contour>
    <contour>
      <point x="663" y="700" type="line"/>
      <point x="883" y="700" type="line"/>
      <point x="760" y="0" type="line"/>
      <point x="540" y="0" type="line"/>
    </contour>
    <contour>
      <point x="193" y="700" type="line"/>
      <point x="413" y="700" type="line"/>
      <point x="290" y="0" type="line"/>
      <point x="70" y="0" type="line"/>
    </contour>
    <contour>
      <point x="567" y="860" type="line"/>
      <point x="473" y="780" type="line"/>
      <point x="348" y="870" type="line"/>
      <point x="593" y="1010" type="line"/>
      <point x="788" y="870" type="line"/>
      <point x="633" y="780" type="line"/>
    </contour>
  </outline>
</glyph>
<glyph name="hcircumflex" format="1">
  <advance width="595"/>
  <unicode hex="0125"/>
  <outline>
    <contour>
      <point x="383" y="780" type="line"/>
      <point x="245" y="0" type="line"/>
      <point x="50" y="0" type="line"/>
      <point x="188" y="780" type="line"/>
    </contour>
    <contour>
      <point x="399" y="280" type="line" smooth="yes"/>
      <point x="406" y="321"/>
      <point x="403" y="346"/>
      <point x="363" y="346" type="curve" smooth="yes"/>
      <point x="328" y="346"/>
      <point x="302" y="326"/>
      <point x="294" y="280" type="curve"/>
      <point x="268" y="280" type="line"/>
      <point x="287" y="389"/>
      <point x="347" y="481"/>
      <point x="472" y="481" type="curve" smooth="yes"/>
      <point x="597" y="481"/>
      <point x="619" y="419"/>
      <point x="600" y="310" type="curve" smooth="yes"/>
      <point x="545" y="0" type="line"/>
      <point x="350" y="0" type="line"/>
    </contour>
    <contour>
      <point x="460" y="920" type="line"/>
      <point x="366" y="840" type="line"/>
      <point x="242" y="930" type="line"/>
      <point x="487" y="1070" type="line"/>
      <point x="682" y="930" type="line"/>
      <point x="526" y="840" type="line"/>
    </contour>
  </outline>
</glyph>
<glyph name="Ibreve" format="1">
  <advance width="365"/>
  <unicode hex="012C"/>
  <outline>
    <contour>
      <point x="193" y="700" type="line"/>
      <point x="418" y="700" type="line"/>
      <point x="295" y="0" type="line"/>
      <point x="70" y="0" type="line"/>
    </contour>
    <contour>
      <point x="178" y="930" type="curve"/>
      <point x="294" y="930" type="line"/>
      <point x="287" y="889"/>
      <point x="317" y="880"/>
      <point x="337" y="880" type="curve" smooth="yes"/>
      <point x="357" y="880"/>
      <point x="391" y="889"/>
      <point x="398" y="930" type="curve"/>
      <point x="514" y="930" type="line"/>
      <point x="498" y="841"/>
      <point x="425" y="780"/>
      <point x="320" y="780" type="curve" smooth="yes"/>
      <point x="215" y="780"/>
      <point x="162" y="841"/>
    </contour>
  </outline>
</glyph>
<glyph name="iogonek" format="1">
  <advance width="286"/>
  <unicode hex="012F"/>
  <outline>
    <contour>
      <point x="145" y="622" type="curve" smooth="yes"/>
      <point x="155" y="681"/>
      <point x="210" y="720"/>
      <point x="270" y="720" type="curve" smooth="yes"/>
      <point x="330" y="720"/>
      <point x="371" y="681"/>
      <point x="361" y="622" type="curve" smooth="yes"/>
      <point x="351" y="563"/>
      <point x="295" y="524"/>
      <point x="235" y="524" type="curve" smooth="yes"/>
      <point x="175" y="524"/>
      <point x="135" y="563"/>
    </contour>
    <contour>
      <point x="130" y="460" type="line"/>
      <point x="317" y="460" type="line"/>
      <point x="236" y="0" type="line"/>
      <point x="49" y="0" type="line"/>
    </contour>
    <contour>
      <point x="201" y="-97" type="curve"/>
      <point x="221" y="-177" type="line"/>
      <point x="202" y="-197"/>
      <point x="169" y="-217"/>
      <point x="106" y="-217" type="curve" smooth="yes"/>
      <point x="52" y="-217"/>
      <point x="-3" y="-186"/>
      <point x="9" y="-117" type="curve"/>
      <point x="125" y="-87" type="line"/>
      <point x="122" y="-105"/>
      <point x="127" y="-117"/>
      <point x="147" y="-117" type="curve" smooth="yes"/>
      <point x="163" y="-117"/>
      <point x="185" y="-110"/>
    </contour>
    <contour>
      <point x="125" y="-87" type="curve"/>
      <point x="9" y="-117" type="line"/>
      <point x="21" y="-48"/>
      <point x="101" y="-8"/>
      <point x="177" y="28" type="curve"/>
      <point x="215" y="3" type="line"/>
      <point x="157" y="-29"/>
      <point x="130" y="-60"/>
    </contour>
  </outline>
</glyph>
<glyph name="Idotaccent" format="1">
  <advance width="365"/>
  <unicode hex="0130"/>
  <outline>
    <contour>
      <point x="193" y="700" type="line"/>
      <point x="418" y="700" type="line"/>
      <point x="295" y="0" type="line"/>
      <point x="70" y="0" type="line"/>
    </contour>
    <contour>
      <point x="229" y="878" type="curve" smooth="yes"/>
      <point x="239" y="937"/>
      <point x="294" y="976"/>
      <point x="354" y="976" type="curve" smooth="yes"/>
      <point x="414" y="976"/>
      <point x="455" y="937"/>
      <point x="445" y="878" type="curve" smooth="yes"/>
      <point x="435" y="819"/>
      <point x="380" y="780"/>
      <point x="320" y="780" type="curve" smooth="yes"/>
      <point x="260" y="780"/>
      <point x="219" y="819"/>
    </contour>
  </outline>
</glyph>
<glyph name="Jcircumflex" format="1">
  <advance width="385"/>
  <unicode hex="0134"/>
  <outline>
    <contour>
      <point x="-82" y="-39" type="line"/>
      <point x="-61" y="-54"/>
      <point x="-31" y="-70"/>
      <point x="-5" y="-70" type="curve" smooth="yes"/>
      <point x="25" y="-70"/>
      <point x="61" y="-51"/>
      <point x="71" y="5" type="curve" smooth="yes"/>
      <point x="193" y="700" type="line"/>
      <point x="438" y="700" type="line"/>
      <point x="306" y="-50" type="line" smooth="yes"/>
      <point x="280" y="-199"/>
      <point x="137" y="-250"/>
      <point x="-7" y="-250" type="curve" smooth="yes"/>
      <point x="-100" y="-250"/>
      <point x="-180" y="-220"/>
      <point x="-230" y="-190" type="curve"/>
    </contour>
    <contour>
      <point x="344" y="860" type="line"/>
      <point x="250" y="780" type="line"/>
      <point x="125" y="870" type="line"/>
      <point x="370" y="1010" type="line"/>
      <point x="565" y="870" type="line"/>
      <point x="410" y="780" type="line"/>
    </contour>
  </outline>
</glyph>
<glyph name="uni0136" format="1">
  <advance width="781"/>
  <unicode hex="0136"/>
  <outline>
    <contour>
      <point x="193" y="700" type="line"/>
      <point x="423" y="700" type="line"/>
      <point x="300" y="0" type="line"/>
      <point x="70" y="0" type="line"/>
    </contour>
    <contour>
      <point x="638" y="700" type="line"/>
      <point x="894" y="700" type="line"/>
      <point x="564" y="372" type="line"/>
      <point x="786" y="0" type="line"/>
      <point x="520" y="0" type="line"/>
      <point x="301" y="365" type="line"/>
    </contour>
    <contour>
      <point x="323" y="-60" type="line"/>
      <point x="513" y="-94" type="line"/>
      <point x="333" y="-344" type="line"/>
      <point x="190" y="-319" type="line"/>
    </contour>
  </outline>
</glyph>
<glyph name="uni0137" format="1">
  <advance width="660"/>
  <unicode hex="0137"/>
  <outline>
    <contour>
      <point x="188" y="780" type="line"/>
      <point x="373" y="780" type="line"/>
      <point x="235" y="0" type="line"/>
      <point x="50" y="0" type="line"/>
    </contour>
    <contour>
      <point x="482" y="460" type="line"/>
      <point x="711" y="460" type="line"/>
      <point x="483" y="270" type="line"/>
      <point x="650" y="0" type="line"/>
      <point x="425" y="0" type="line"/>
      <point x="254" y="270" type="line"/>
    </contour>
    <contour>
      <point x="245" y="-60" type="line"/>
      <point x="435" y="-94" type="line"/>
      <point x="255" y="-344" type="line"/>
      <point x="112" y="-319" type="line"/>
    </contour>
  </outline>
</glyph>
<glyph name="Lacute" format="1">
  <advance width="575"/>
  <unicode hex="0139"/>
  <outline>
    <contour>
      <point x="222" y="0" type="line"/>
      <point x="255" y="185" type="line"/>
      <point x="608" y="185" type="line"/>
      <point x="575" y="0" type="line"/>
    </contour>
    <contour>
      <point x="193" y="700" type="line"/>
      <point x="413" y="700" type="line"/>
      <point x="290" y="0" type="line"/>
      <point x="70" y="0" type="line"/>
    </contour>
    <contour>
      <point x="666" y="930" type="line"/>
      <point x="460" y="780" type="line"/>
      <point x="358" y="830" type="line"/>
      <point x="537" y="990" type="line"/>
    </contour>
  </outline>
</glyph>
<glyph name="lacute" format="1">
  <advance width="295"/>
  <unicode hex="013A"/>
  <outline>
    <contour>
      <point x="188" y="780" type="line"/>
      <point x="383" y="780" type="line"/>
      <point x="245" y="0" type="line"/>
      <point x="50" y="0" type="line"/>
    </contour>
    <contour>
      <point x="503" y="990" type="line"/>
      <point x="296" y="840" type="line"/>
      <point x="195" y="890" type="line"/>
      <point x="373" y="1050" type="line"/>
    </contour>
  </outline>
</glyph>
<glyph name="uni013C" format="1">
  <advance width="295"/>
  <unicode hex="013C"/>
  <outline>
    <contour>
      <point x="188" y="780" type="line"/>
      <point x="383" y="780" type="line"/>
      <point x="245" y="0" type="line"/>
      <point x="50" y="0" type="line"/>
    </contour>
    <contour>
      <point x="83" y="-60" type="line"/>
      <point x="272" y="-94" type="line"/>
      <point x="93" y="-344" type="line"/>
      <point x="-50" y="-319" type="line"/>
    </contour>
  </outline>
</glyph>
<glyph name="lcaron" format="1">
  <advance width="295"/>
  <unicode hex="013E"/>
  <outline>
    <contour>
      <point x="188" y="780" type="line"/>
      <point x="383" y="780" type="line"/>
      <point x="245" y="0" type="line"/>
      <point x="50" y="0" type="line"/>
    </contour>
    <contour>
      <point x="521" y="780" type="line"/>
      <point x="710" y="746" type="line"/>
      <point x="530" y="496" type="line"/>
      <point x="387" y="521" type="line"/>
    </contour>
  </outline>
</glyph>
<glyph name="Ldot" format="1">
  <advance width="575"/>
  <unicode hex="013F"/>
  <outline>
    <contour>
      <point x="222" y="0" type="line"/>
      <point x="255" y="185" type="line"/>
      <point x="608" y="185" type="line"/>
      <point x="575" y="0" type="line"/>
    </contour>
    <contour>
      <point x="193" y="700" type="line"/>
      <point x="413" y="700" type="line"/>
      <point x="290" y="0" type="line"/>
      <point x="70" y="0" type="line"/>
    </contour>
    <contour>
      <point x="403" y="438" type="curve" smooth="yes"/>
      <point x="414" y="501"/>
      <point x="472" y="553"/>
      <point x="542" y="553" type="curve" smooth="yes"/>
      <point x="612" y="553"/>
      <point x="650" y="501"/>
      <point x="639" y="438" type="curve" smooth="yes"/>
      <point x="628" y="375"/>
      <point x="571" y="323"/>
      <point x="501" y="323" type="curve" smooth="yes"/>
      <point x="431" y="323"/>
      <point x="392" y="375"/>
    </contour>
  </outline>
</glyph>
<glyph name="ldot" format="1">
  <advance width="541"/>
  <unicode hex="0140"/>
  <outline>
    <contour>
      <point x="188" y="780" type="line"/>
      <point x="383" y="780" type="line"/>
      <point x="245" y="0" type="line"/>
      <point x="50" y="0" type="line"/>
    </contour>
    <contour>
      <point x="346" y="405" type="curve" smooth="yes"/>
      <point x="357" y="468"/>
      <point x="415" y="520"/>
      <point x="485" y="520" type="curve" smooth="yes"/>
      <point x="555" y="520"/>
      <point x="593" y="468"/>
      <point x="582" y="405" type="curve" smooth="yes"/>
      <point x="571" y="342"/>
      <point x="514" y="290"/>
      <point x="444" y="290" type="curve" smooth="yes"/>
      <point x="374" y="290"/>
      <point x="335" y="342"/>
    </contour>
  </outline>
</glyph>
<glyph name="Lslash" format="1">
  <advance width="585"/>
  <unicode hex="0141"/>
  <outline>
    <contour>
      <point x="56" y="290" type="line"/>
      <point x="21" y="375" type="line"/>
      <point x="492" y="665" type="line"/>
      <point x="527" y="580" type="line"/>
    </contour>
    <contour>
      <point x="252" y="0" type="line"/>
      <point x="285" y="185" type="line"/>
      <point x="608" y="185" type="line"/>
      <point x="575" y="0" type="line"/>
    </contour>
    <contour>
      <point x="193" y="700" type="line"/>
      <point x="413" y="700" type="line"/>
      <point x="290" y="0" type="line"/>
      <point x="70" y="0" type="line"/>
    </contour>
  </outline>
</glyph>
<glyph name="ncaron" format="1">
  <advance width="605"/>
  <unicode hex="0148"/>
  <outline>
    <contour>
      <point x="326" y="460" type="line"/>
      <point x="245" y="0" type="line"/>
      <point x="50" y="0" type="line"/>
      <point x="131" y="460" type="line"/>
    </contour>
    <contour>
      <point x="399" y="280" type="line" smooth="yes"/>
      <point x="406" y="321"/>
      <point x="403" y="346"/>
      <point x="363" y="346" type="curve" smooth="yes"/>
      <point x="328" y="346"/>
      <point x="302" y="326"/>
      <point x="294" y="280" type="curve"/>
      <point x="267" y="270" type="line"/>
      <point x="286" y="379"/>
      <point x="345" y="471"/>
      <point x="470" y="471" type="curve" smooth="yes"/>
      <point x="595" y="471"/>
      <point x="627" y="409"/>
      <point x="608" y="300" type="curve" smooth="yes"/>
      <point x="555" y="0" type="line"/>
      <point x="350" y="0" type="line"/>
    </contour>
    <contour>
      <point x="422" y="681" type="line"/>
      <point x="516" y="761" type="line"/>
      <point x="640" y="671" type="line"/>
      <point x="396" y="531" type="line"/>
      <point x="200" y="671" type="line"/>
      <point x="356" y="761" type="line"/>
    </contour>
  </outline>
</glyph>
<glyph name="omacron" format="1">
  <advance width="616"/>
  <unicode hex="014D"/>
  <outline>
    <contour>
      <point x="71" y="230" type="curve" smooth="yes"/>
      <point x="97" y="379"/>
      <point x="231" y="471"/>
      <point x="391" y="471" type="curve" smooth="yes"/>
      <point x="551" y="471"/>
      <point x="653" y="379"/>
      <point x="627" y="230" type="curve" smooth="yes"/>
      <point x="601" y="81"/>
      <point x="466" y="-10"/>
      <point x="306" y="-10" type="curve" smooth="yes"/>
      <point x="146" y="-10"/>
      <point x="45" y="81"/>
    </contour>
    <contour>
      <point x="272" y="230" type="curve" smooth="yes"/>
      <point x="262" y="174"/>
      <point x="294" y="145"/>
      <point x="334" y="145" type="curve" smooth="yes"/>
      <point x="374" y="145"/>
      <point x="416" y="174"/>
      <point x="426" y="230" type="curve" smooth="yes"/>
      <point x="436" y="286"/>
      <point x="404" y="316"/>
      <point x="364" y="316" type="curve" smooth="yes"/>
      <point x="324" y="316"/>
      <point x="282" y="286"/>
    </contour>
    <contour>
      <point x="210" y="531" type="line"/>
      <point x="239" y="696" type="line"/>
      <point x="623" y="696" type="line"/>
      <point x="594" y="531" type="line"/>
    </contour>
  </outline>
</glyph>
<glyph name="OE" format="1">
  <advance width="985"/>
  <unicode hex="0152"/>
  <outline>
    <contour>
      <point x="610" y="275" type="line"/>
      <point x="640" y="445" type="line"/>
      <point x="1028" y="445" type="line"/>
      <point x="998" y="275" type="line"/>
    </contour>
    <contour>
      <point x="583" y="670" type="line"/>
      <point x="793" y="670" type="line"/>
      <point x="680" y="30" type="line"/>
      <point x="470" y="30" type="line"/>
    </contour>
    <contour>
      <point x="1002" y="175" type="line"/>
      <point x="971" y="0" type="line"/>
      <point x="390" y="0" type="line" smooth="yes"/>
      <point x="187" y="0"/>
      <point x="55" y="141"/>
      <point x="92" y="350" type="curve" smooth="yes"/>
      <point x="129" y="559"/>
      <point x="309" y="700"/>
      <point x="513" y="700" type="curve" smooth="yes"/>
      <point x="1093" y="700" type="line"/>
      <point x="1063" y="525" type="line"/>
      <point x="661" y="525" type="line"/>
      <point x="641" y="510" type="line"/>
      <point x="530" y="510" type="line" smooth="yes"/>
      <point x="402" y="510"/>
      <point x="342" y="463"/>
      <point x="322" y="350" type="curve" smooth="yes"/>
      <point x="302" y="237"/>
      <point x="347" y="190"/>
      <point x="474" y="190" type="curve" smooth="yes"/>
      <point x="582" y="190" type="line"/>
      <point x="603" y="175" type="line"/>
    </contour>
  </outline>
</glyph>
<glyph name="oe" format="1">
  <advance width="900"/>
  <unicode hex="0153"/>
  <outline>
    <contour>
      <point x="704" y="250" type="line" smooth="yes"/>
      <point x="716" y="316"/>
      <point x="700" y="350"/>
      <point x="660" y="350" type="curve" smooth="yes"/>
      <point x="620" y="350"/>
      <point x="581" y="326"/>
      <point x="569" y="260" type="curve"/>
      <point x="562" y="230" type="line"/>
      <point x="549" y="154"/>
      <point x="572" y="115"/>
      <point x="622" y="115" type="curve" smooth="yes"/>
      <point x="669" y="115"/>
      <point x="696" y="136"/>
      <point x="725" y="166" type="curve"/>
      <point x="896" y="137" type="line"/>
      <point x="846" y="57"/>
      <point x="735" y="-10"/>
      <point x="636" y="-10" type="curve" smooth="yes"/>
      <point x="511" y="-10"/>
      <point x="446" y="91"/>
      <point x="471" y="230" type="curve" smooth="yes"/>
      <point x="474" y="247"/>
      <point x="477" y="263"/>
      <point x="483" y="279" type="curve" smooth="yes"/>
      <point x="522" y="392"/>
      <point x="622" y="470"/>
      <point x="741" y="470" type="curve" smooth="yes"/>
      <point x="851" y="470"/>
      <point x="932" y="379"/>
      <point x="906" y="234" type="curve" smooth="yes"/>
      <point x="905" y="226"/>
      <point x="898" y="198"/>
      <point x="896" y="190" type="curve"/>
      <point x="701" y="230" type="line"/>
    </contour>
    <contour>
      <point x="515" y="190" type="line"/>
      <point x="531" y="283" type="line"/>
      <point x="894" y="283" type="line"/>
      <point x="896" y="190" type="line"/>
    </contour>
    <contour>
      <point x="76" y="230" type="curve" smooth="yes"/>
      <point x="102" y="379"/>
      <point x="221" y="470"/>
      <point x="346" y="470" type="curve" smooth="yes"/>
      <point x="471" y="470"/>
      <point x="533" y="379"/>
      <point x="507" y="230" type="curve" smooth="yes"/>
      <point x="481" y="81"/>
      <point x="386" y="-10"/>
      <point x="261" y="-10" type="curve" smooth="yes"/>
      <point x="136" y="-10"/>
      <point x="50" y="81"/>
    </contour>
    <contour>
      <point x="267" y="230" type="curve" smooth="yes"/>
      <point x="257" y="174"/>
      <point x="284" y="145"/>
      <point x="329" y="145" type="curve" smooth="yes"/>
      <point x="379" y="145"/>
      <point x="411" y="174"/>
      <point x="421" y="230" type="curve" smooth="yes"/>
      <point x="431" y="286"/>
      <point x="409" y="315"/>
      <point x="359" y="315" type="curve" smooth="yes"/>
      <point x="314" y="315"/>
      <point x="277" y="286"/>
    </contour>
  </outline>
</glyph>
<glyph name="scedilla" format="1">
  <advance width="488"/>
  <unicode hex="015F"/>
  <outline>
    <contour>
      <point x="110" y="183" type="line"/>
      <point x="201" y="121"/>
      <point x="254" y="117"/>
      <point x="271" y="117" type="curve" smooth="yes"/>
      <point x="284" y="117"/>
      <point x="296" y="118"/>
      <point x="298" y="131" type="curve" smooth="yes"/>
      <point x="302" y="156"/>
      <point x="223" y="159"/>
      <point x="174" y="186" type="curve" smooth="yes"/>
      <point x="120" y="216"/>
      <point x="78" y="247"/>
      <point x="92" y="329" type="curve" smooth="yes"/>
      <point x="109" y="425"/>
      <point x="207" y="470"/>
      <point x="321" y="470" type="curve" smooth="yes"/>
      <point x="404" y="470"/>
      <point x="464" y="446"/>
      <point x="527" y="415" type="curve"/>
      <point x="456" y="282" type="line"/>
      <point x="418" y="320"/>
      <point x="351" y="339"/>
      <point x="314" y="339" type="curve" smooth="yes"/>
      <point x="287" y="339"/>
      <point x="278" y="335"/>
      <point x="276" y="324" type="curve" smooth="yes"/>
      <point x="272" y="302"/>
      <point x="331" y="293"/>
      <point x="389" y="270" type="curve" smooth="yes"/>
      <point x="450" y="246"/>
      <point x="506" y="217"/>
      <point x="491" y="130" type="curve" smooth="yes"/>
      <point x="472" y="21"/>
      <point x="400" y="-25"/>
      <point x="281" y="-25" type="curve" smooth="yes"/>
      <point x="176" y="-25"/>
      <point x="99" y="1"/>
      <point x="23" y="46" type="curve"/>
    </contour>
    <contour>
      <point x="229" y="77" type="line"/>
      <point x="368" y="71" type="line"/>
      <point x="208" y="-95" type="line"/>
      <point x="102" y="-134" type="line"/>
    </contour>
    <contour>
      <point x="382" y="-163" type="curve"/>
      <point x="264" y="-149" type="line"/>
      <point x="269" y="-121"/>
      <point x="231" y="-119"/>
      <point x="202" y="-119" type="curve" smooth="yes"/>
      <point x="192" y="-119"/>
      <point x="147" y="-120"/>
      <point x="102" y="-134" type="curve"/>
      <point x="190" y="-87" type="line"/>
      <point x="223" y="-57"/>
      <point x="256" y="-51"/>
      <point x="299" y="-51" type="curve" smooth="yes"/>
      <point x="343" y="-51"/>
      <point x="395" y="-87"/>
    </contour>
    <contour>
      <point x="382" y="-163" type="line"/>
      <point x="368" y="-242"/>
      <point x="283" y="-281"/>
      <point x="215" y="-281" type="curve" smooth="yes"/>
      <point x="148" y="-281"/>
      <point x="99" y="-272"/>
      <point x="46" y="-241" type="curve"/>
      <point x="114" y="-155" type="line"/>
      <point x="139" y="-175"/>
      <point x="185" y="-181"/>
      <point x="201" y="-181" type="curve" smooth="yes"/>
      <point x="235" y="-181"/>
      <point x="260" y="-173"/>
      <point x="264" y="-149" type="curve"/>
    </contour>
  </outline>
</glyph>
<glyph name="Scaron" format="1">
  <advance width="672"/>
  <unicode hex="0160"/>
  <outline>
    <contour>
      <point x="225" y="266" type="line"/>
      <point x="264" y="190"/>
      <point x="301" y="158"/>
      <point x="368" y="158" type="curve" smooth="yes"/>
      <point x="408" y="158"/>
      <point x="434" y="169"/>
      <point x="439" y="199" type="curve" smooth="yes"/>
      <point x="446" y="239"/>
      <point x="395" y="247"/>
      <point x="321" y="280" type="curve" smooth="yes"/>
      <point x="258" y="308"/>
      <point x="138" y="363"/>
      <point x="164" y="510" type="curve" smooth="yes"/>
      <point x="186" y="636"/>
      <point x="310" y="720"/>
      <point x="474" y="720" type="curve" smooth="yes"/>
      <point x="647" y="720"/>
      <point x="711" y="635"/>
      <point x="726" y="564" type="curve"/>
      <point x="548" y="474" type="line"/>
      <point x="526" y="522"/>
      <point x="493" y="539"/>
      <point x="453" y="539" type="curve" smooth="yes"/>
      <point x="417" y="539"/>
      <point x="391" y="525"/>
      <point x="387" y="504" type="curve" smooth="yes"/>
      <point x="381" y="468"/>
      <point x="456" y="452"/>
      <point x="533" y="423" type="curve" smooth="yes"/>
      <point x="638" y="384"/>
      <point x="693" y="317"/>
      <point x="672" y="200" type="curve" smooth="yes"/>
      <point x="644" y="43"/>
      <point x="510" y="-30"/>
      <point x="331" y="-30" type="curve" smooth="yes"/>
      <point x="196" y="-30"/>
      <point x="82" y="43"/>
      <point x="58" y="158" type="curve"/>
    </contour>
    <contour>
      <point x="511" y="930" type="line"/>
      <point x="605" y="1010" type="line"/>
      <point x="729" y="920" type="line"/>
      <point x="485" y="780" type="line"/>
      <point x="289" y="920" type="line"/>
      <point x="445" y="1010" type="line"/>
    </contour>
  </outline>
</glyph>
<glyph name="Ydieresis" format="1">
  <advance width="720"/>
  <unicode hex="0178"/>
  <outline>
    <contour>
      <point x="311" y="360" type="line"/>
      <point x="536" y="360" type="line"/>
      <point x="473" y="0" type="line"/>
      <point x="248" y="0" type="line"/>
    </contour>
    <contour>
      <point x="593" y="700" type="line"/>
      <point x="848" y="700" type="line"/>
      <point x="375" y="84" type="line"/>
      <point x="118" y="700" type="line"/>
      <point x="373" y="700" type="line"/>
      <point x="444" y="474" type="line"/>
    </contour>
    <contour>
      <point x="575" y="895" type="curve" smooth="yes"/>
      <point x="585" y="954"/>
      <point x="640" y="993"/>
      <point x="700" y="993" type="curve" smooth="yes"/>
      <point x="760" y="993"/>
      <point x="801" y="954"/>
      <point x="791" y="895" type="curve" smooth="yes"/>
      <point x="781" y="836"/>
      <point x="726" y="797"/>
      <point x="666" y="797" type="curve" smooth="yes"/>
      <point x="606" y="797"/>
      <point x="565" y="836"/>
    </contour>
    <contour>
      <point x="245" y="895" type="curve" smooth="yes"/>
      <point x="255" y="954"/>
      <point x="310" y="993"/>
      <point x="370" y="993" type="curve" smooth="yes"/>
      <point x="430" y="993"/>
      <point x="471" y="954"/>
      <point x="461" y="895" type="curve" smooth="yes"/>
      <point x="451" y="836"/>
      <point x="396" y="797"/>
      <point x="336" y="797" type="curve" smooth="yes"/>
      <point x="276" y="797"/>
      <point x="235" y="836"/>
    </contour>
  </outline>
</glyph>
<glyph name="Zacute" format="1">
  <advance width="665"/>
  <unicode hex="0179"/>
  <outline>
    <contour>
      <point x="159" y="505" type="line"/>
      <point x="193" y="700" type="line"/>
      <point x="778" y="700" type="line"/>
      <point x="380" y="185" type="line"/>
      <point x="643" y="185" type="line"/>
      <point x="610" y="0" type="line"/>
      <point x="5" y="0" type="line"/>
      <point x="395" y="505" type="line"/>
    </contour>
    <contour>
      <point x="706.782" y="930" type="line"/>
      <point x="499.782" y="780" type="line"/>
      <point x="398.782" y="830" type="line"/>
      <point x="576.782" y="990" type="line"/>
    </contour>
  </outline>
</glyph>
<glyph name="zacute" format="1">
  <advance width="560"/>
  <unicode hex="017A"/>
  <outline>
    <contour>
      <point x="280" y="285" type="line"/>
      <point x="115" y="285" type="line"/>
      <point x="146" y="460" type="line"/>
      <point x="626" y="460" type="line"/>
      <point x="380" y="175" type="line"/>
      <point x="536" y="175" type="line"/>
      <point x="505" y="0" type="line"/>
      <point x="15" y="0" type="line"/>
    </contour>
    <contour>
      <point x="605.695" y="681" type="line"/>
      <point x="398.695" y="531" type="line"/>
      <point x="297.695" y="581" type="line"/>
      <point x="475.695" y="741" type="line"/>
    </contour>
  </outline>
</glyph>
<glyph name="Zdotaccent" format="1">
  <advance width="665"/>
  <unicode hex="017B"/>
  <outline>
    <contour>
      <point x="159" y="505" type="line"/>
      <point x="193" y="700" type="line"/>
      <point x="778" y="700" type="line"/>
      <point x="380" y="185" type="line"/>
      <point x="643" y="185" type="line"/>
      <point x="610" y="0" type="line"/>
      <point x="5" y="0" type="line"/>
      <point x="395" y="505" type="line"/>
    </contour>
    <contour>
      <point x="409.062" y="878" type="curve" smooth="yes"/>
      <point x="419.062" y="937"/>
      <point x="474.062" y="976"/>
      <point x="534.062" y="976" type="curve" smooth="yes"/>
      <point x="594.062" y="976"/>
      <point x="635.062" y="937"/>
      <point x="625.062" y="878" type="curve" smooth="yes"/>
      <point x="615.062" y="819"/>
      <point x="560.062" y="780"/>
      <point x="500.062" y="780" type="curve" smooth="yes"/>
      <point x="440.062" y="780"/>
      <point x="399.062" y="819"/>
    </contour>
  </outline>
</glyph>
<glyph name="zdotaccent" format="1">
  <advance width="560"/>
  <unicode hex="017C"/>
  <outline>
    <contour>
      <point x="280" y="285" type="line"/>
      <point x="115" y="285" type="line"/>
      <point x="146" y="460" type="line"/>
      <point x="626" y="460" type="line"/>
      <point x="380" y="175" type="line"/>
      <point x="536" y="175" type="line"/>
      <point x="505" y="0" type="line"/>
      <point x="15" y="0" type="line"/>
    </contour>
    <contour>
      <point x="307.976" y="629" type="curve" smooth="yes"/>
      <point x="317.976" y="688"/>
      <point x="372.976" y="727"/>
      <point x="432.976" y="727" type="curve" smooth="yes"/>
      <point x="492.976" y="727"/>
      <point x="533.976" y="688"/>
      <point x="523.976" y="629" type="curve" smooth="yes"/>
      <point x="513.976" y="570"/>
      <point x="458.976" y="531"/>
      <point x="398.976" y="531" type="curve" smooth="yes"/>
      <point x="338.976" y="531"/>
      <point x="297.976" y="570"/>
    </contour>
  </outline>
</glyph>
<glyph name="Zcaron" format="1">
  <advance width="665"/>
  <unicode hex="017D"/>
  <outline>
    <contour>
      <point x="159" y="505" type="line"/>
      <point x="193" y="700" type="line"/>
      <point x="778" y="700" type="line"/>
      <point x="380" y="185" type="line"/>
      <point x="643" y="185" type="line"/>
      <point x="610" y="0" type="line"/>
      <point x="5" y="0" type="line"/>
      <point x="395" y="505" type="line"/>
    </contour>
    <contour>
      <point x="526" y="930" type="line"/>
      <point x="620" y="1010" type="line"/>
      <point x="744" y="920" type="line"/>
      <point x="500" y="780" type="line"/>
      <point x="304" y="920" type="line"/>
      <point x="460" y="1010" type="line"/>
    </contour>
  </outline>
</glyph>
<glyph name="uni0237" format="1">
  <advance width="285"/>
  <unicode hex="0237"/>
  <outline>
    <contour>
      <point x="-53" y="-55" type="line"/>
      <point x="-43" y="-70"/>
      <point x="-31" y="-80"/>
      <point x="-12" y="-80" type="curve" smooth="yes"/>
      <point x="18" y="-80"/>
      <point x="40" y="-61"/>
      <point x="46" y="-25" type="curve" smooth="yes"/>
      <point x="131" y="460" type="line"/>
      <point x="316" y="460" type="line"/>
      <point x="221" y="-80" type="line" smooth="yes"/>
      <point x="204" y="-179"/>
      <point x="127" y="-250"/>
      <point x="-7" y="-250" type="curve" smooth="yes"/>
      <point x="-90" y="-250"/>
      <point x="-127" y="-213"/>
      <point x="-148" y="-193" type="curve"/>
    </contour>
  </outline>
</glyph>
<glyph name="breve" format="1">
  <advance width="546"/>
  <unicode hex="02D8"/>
  <outline>
    <contour>
      <point x="255" y="850" type="curve"/>
      <point x="371" y="850" type="line"/>
      <point x="364" y="809"/>
      <point x="394" y="800"/>
      <point x="414" y="800" type="curve" smooth="yes"/>
      <point x="434" y="800"/>
      <point x="468" y="809"/>
      <point x="475" y="850" type="curve"/>
      <point x="591" y="850" type="line"/>
      <point x="575" y="761"/>
      <point x="501" y="700"/>
      <point x="396" y="700" type="curve" smooth="yes"/>
      <point x="291" y="700"/>
      <point x="239" y="761"/>
    </contour>
  </outline>
</glyph>
<glyph name="dotaccent" format="1">
  <advance width="300"/>
  <unicode hex="02D9"/>
  <outline>
    <contour>
      <point x="188" y="827" type="curve" smooth="yes"/>
      <point x="198" y="886"/>
      <point x="253" y="925"/>
      <point x="313" y="925" type="curve" smooth="yes"/>
      <point x="373" y="925"/>
      <point x="414" y="886"/>
      <point x="404" y="827" type="curve" smooth="yes"/>
      <point x="394" y="768"/>
      <point x="339" y="729"/>
      <point x="279" y="729" type="curve" smooth="yes"/>
      <point x="219" y="729"/>
      <point x="178" y="768"/>
    </contour>
  </outline>
</glyph>
<glyph name="ogonek" format="1">
  <advance width="260"/>
  <unicode hex="02DB"/>
  <outline>
    <contour>
      <point x="176" y="-100" type="curve"/>
      <point x="195" y="-180" type="line"/>
      <point x="176" y="-200"/>
      <point x="143" y="-220"/>
      <point x="80" y="-220" type="curve" smooth="yes"/>
      <point x="26" y="-220"/>
      <point x="-27" y="-189"/>
      <point x="-15" y="-120" type="curve"/>
      <point x="100" y="-90" type="line"/>
      <point x="97" y="-108"/>
      <point x="103" y="-120"/>
      <point x="123" y="-120" type="curve" smooth="yes"/>
      <point x="139" y="-120"/>
      <point x="160" y="-113"/>
    </contour>
    <contour>
      <point x="100" y="-90" type="curve"/>
      <point x="-15" y="-120" type="line"/>
      <point x="-3" y="-51"/>
      <point x="76" y="-11"/>
      <point x="152" y="25" type="curve"/>
      <point x="189" y="0" type="line"/>
      <point x="131" y="-32"/>
      <point x="105" y="-63"/>
    </contour>
  </outline>
</glyph>
<glyph name="tilde" format="1">
  <advance width="530"/>
  <unicode hex="02DC"/>
  <outline>
    <contour>
      <point x="174" y="645" type="line"/>
      <point x="193" y="694"/>
      <point x="246" y="747"/>
      <point x="321" y="747" type="curve" smooth="yes"/>
      <point x="388" y="747"/>
      <point x="397" y="692"/>
      <point x="455" y="692" type="curve" smooth="yes"/>
      <point x="484" y="692"/>
      <point x="510" y="716"/>
      <point x="536" y="748" type="curve"/>
      <point x="605" y="655" type="line"/>
      <point x="582" y="618"/>
      <point x="508" y="562"/>
      <point x="438" y="562" type="curve" smooth="yes"/>
      <point x="383" y="562"/>
      <point x="349" y="619"/>
      <point x="297" y="619" type="curve" smooth="yes"/>
      <point x="261" y="619"/>
      <point x="246" y="583"/>
      <point x="243" y="568" type="curve"/>
    </contour>
  </outline>
</glyph>
<glyph name="pi" format="1">
  <advance width="640"/>
  <unicode hex="03C0"/>
  <outline>
    <contour>
      <point x="166" y="430" type="line"/>
      <point x="346" y="430" type="line"/>
      <point x="270" y="0" type="line"/>
      <point x="90" y="0" type="line"/>
    </contour>
    <contour>
      <point x="111" y="460" type="line"/>
      <point x="681" y="460" type="line"/>
      <point x="654" y="305" type="line"/>
      <point x="84" y="305" type="line"/>
    </contour>
    <contour>
      <point x="416" y="430" type="line"/>
      <point x="596" y="430" type="line"/>
      <point x="555" y="201" type="line" smooth="yes"/>
      <point x="543" y="135"/>
      <point x="566" y="131"/>
      <point x="596" y="131" type="curve"/>
      <point x="571" y="-9" type="line"/>
      <point x="417" y="-9"/>
      <point x="338" y="-8"/>
      <point x="361" y="121" type="curve" smooth="yes"/>
    </contour>
  </outline>
</glyph>
<glyph name="uni1E9E" format="1">
  <advance width="996"/>
  <unicode hex="1E9E"/>
  <outline>
    <contour>
      <point x="141" y="346" type="line"/>
      <point x="354" y="306" type="line"/>
      <point x="300" y="0" type="line"/>
      <point x="80" y="0" type="line"/>
    </contour>
    <contour>
      <point x="624" y="345" type="curve"/>
      <point x="638" y="425" type="line"/>
      <point x="708" y="425"/>
      <point x="753" y="445"/>
      <point x="761" y="491" type="curve" smooth="yes"/>
      <point x="767" y="527"/>
      <point x="735" y="548"/>
      <point x="635" y="548" type="curve" smooth="yes"/>
      <point x="510" y="548"/>
      <point x="384" y="477"/>
      <point x="354" y="306" type="curve"/>
      <point x="141" y="346" type="line"/>
      <point x="178" y="555"/>
      <point x="377" y="710"/>
      <point x="652" y="710" type="curve" smooth="yes"/>
      <point x="902" y="710"/>
      <point x="1012" y="628"/>
      <point x="992" y="514" type="curve" smooth="yes"/>
      <point x="973" y="405"/>
      <point x="829" y="345"/>
    </contour>
    <contour>
      <point x="619" y="-20" type="curve" smooth="yes"/>
      <point x="404" y="-20"/>
      <point x="369" y="136"/>
      <point x="388" y="245" type="curve"/>
      <point x="574" y="245" type="line"/>
      <point x="564" y="189"/>
      <point x="592" y="150"/>
      <point x="649" y="150" type="curve" smooth="yes"/>
      <point x="709" y="150"/>
      <point x="734" y="169"/>
      <point x="742" y="215" type="curve" smooth="yes"/>
      <point x="752" y="271"/>
      <point x="705" y="295"/>
      <point x="615" y="295" type="curve"/>
      <point x="630" y="380" type="line"/>
      <point x="835" y="380"/>
      <point x="979" y="324"/>
      <point x="954" y="185" type="curve" smooth="yes"/>
      <point x="933" y="66"/>
      <point x="794" y="-20"/>
    </contour>
  </outline>
</glyph>
<glyph name="endash" format="1">
  <advance width="810"/>
  <unicode hex="2013"/>
  <outline>
    <contour>
      <point x="97" y="155" type="line"/>
      <point x="126" y="320" type="line"/>
      <point x="786" y="320" type="line"/>
      <point x="757" y="155" type="line"/>
    </contour>
  </outline>
</glyph>
<glyph name="emdash" format="1">
  <advance width="970"/>
  <unicode hex="2014"/>
  <outline>
    <contour>
      <point x="97" y="155" type="line"/>
      <point x="126" y="320" type="line"/>
      <point x="951" y="320" type="line"/>
      <point x="922" y="155" type="line"/>
    </contour>
  </outline>
</glyph>
<glyph name="quoteright" format="1">
  <advance width="365"/>
  <unicode hex="2019"/>
  <outline>
    <contour>
      <point x="223" y="700" type="line"/>
      <point x="418" y="700" type="line"/>
      <point x="266" y="430" type="line"/>
      <point x="126" y="430" type="line"/>
    </contour>
  </outline>
</glyph>
<glyph name="quotesinglbase" format="1">
  <advance width="365"/>
  <unicode hex="201A"/>
  <outline>
    <contour>
      <point x="124" y="80" type="line"/>
      <point x="319" y="80" type="line"/>
      <point x="166" y="-190" type="line"/>
      <point x="26" y="-190" type="line"/>
    </contour>
  </outline>
</glyph>
<glyph name="quotedblright" format="1">
  <advance width="615"/>
  <unicode hex="201D"/>
  <outline>
    <contour>
      <point x="223" y="700" type="line"/>
      <point x="418" y="700" type="line"/>
      <point x="266" y="430" type="line"/>
      <point x="126" y="430" type="line"/>
    </contour>
    <contour>
      <point x="473" y="700" type="line"/>
      <point x="668" y="700" type="line"/>
      <point x="516" y="430" type="line"/>
      <point x="376" y="430" type="line"/>
    </contour>
  </outline>
</glyph>
<glyph name="ellipsis" format="1">
  <advance width="940"/>
  <unicode hex="2026"/>
  <outline>
    <contour>
      <point x="65" y="85" type="curve" smooth="yes"/>
      <point x="76" y="148"/>
      <point x="133" y="200"/>
      <point x="203" y="200" type="curve" smooth="yes"/>
      <point x="273" y="200"/>
      <point x="312" y="148"/>
      <point x="301" y="85" type="curve" smooth="yes"/>
      <point x="290" y="22"/>
      <point x="233" y="-30"/>
      <point x="163" y="-30" type="curve" smooth="yes"/>
      <point x="93" y="-30"/>
      <point x="54" y="22"/>
    </contour>
    <contour>
      <point x="365" y="85" type="curve" smooth="yes"/>
      <point x="376" y="148"/>
      <point x="433" y="200"/>
      <point x="503" y="200" type="curve" smooth="yes"/>
      <point x="573" y="200"/>
      <point x="612" y="148"/>
      <point x="601" y="85" type="curve" smooth="yes"/>
      <point x="590" y="22"/>
      <point x="533" y="-30"/>
      <point x="463" y="-30" type="curve" smooth="yes"/>
      <point x="393" y="-30"/>
      <point x="354" y="22"/>
    </contour>
    <contour>
      <point x="665" y="85" type="curve" smooth="yes"/>
      <point x="676" y="148"/>
      <point x="733" y="200"/>
      <point x="803" y="200" type="curve" smooth="yes"/>
      <point x="873" y="200"/>
      <point x="912" y="148"/>
      <point x="901" y="85" type="curve" smooth="yes"/>
      <point x="890" y="22"/>
      <point x="833" y="-30"/>
      <point x="763" y="-30" type="curve" smooth="yes"/>
      <point x="693" y="-30"/>
      <point x="654" y="22"/>
    </contour>
  </outline>
</glyph>
<glyph name="guilsinglleft" format="1">
  <advance width="350"/>
  <unicode hex="2039"/>
  <outline>
    <contour>
      <point x="181" y="235" type="line"/>
      <point x="65" y="255" type="line"/>
      <point x="282" y="520" type="line"/>
      <point x="388" y="445" type="line"/>
    </contour>
    <contour>
      <point x="65" y="255" type="line"/>
      <point x="190" y="285" type="line"/>
      <point x="321" y="65" type="line"/>
      <point x="188" y="-10" type="line"/>
    </contour>
  </outline>
</glyph>
<glyph name="uni2074" format="1">
  <advance width="451"/>
  <unicode hex="2074"/>
  <outline>
    <contour>
      <point x="69" y="349" type="line"/>
      <point x="192" y="439" type="line"/>
      <point x="380" y="439" type="line" smooth="yes"/>
      <point x="394" y="460" type="line" smooth="yes"/>
      <point x="513" y="460" type="line"/>
      <point x="494" y="349" type="line"/>
    </contour>
    <contour>
      <point x="209" y="397" type="line"/>
      <point x="69" y="349" type="line"/>
      <point x="381" y="700" type="line"/>
      <point x="489" y="700" type="line"/>
      <point x="415" y="280" type="line"/>
      <point x="277" y="280" type="line"/>
      <point x="293" y="371" type="line" smooth="yes"/>
      <point x="312" y="377" type="line" smooth="yes"/>
      <point x="340" y="533" type="line"/>
    </contour>
  </outline>
</glyph>
<glyph name="uni2078" format="1">
  <advance width="386"/>
  <unicode hex="2078"/>
  <outline>
    <contour>
      <point x="139" y="599" type="curve" smooth="yes"/>
      <point x="153" y="676"/>
      <point x="233" y="712"/>
      <point x="317" y="712" type="curve" smooth="yes"/>
      <point x="401" y="712"/>
      <point x="469" y="676"/>
      <point x="455" y="599" type="curve" smooth="yes"/>
      <point x="440" y="516"/>
      <point x="345" y="481"/>
      <point x="276" y="481" type="curve" smooth="yes"/>
      <point x="207" y="481"/>
      <point x="124" y="516"/>
    </contour>
    <contour>
      <point x="261" y="587" type="curve" smooth="yes"/>
      <point x="257" y="565"/>
      <point x="267" y="550"/>
      <point x="288" y="550" type="curve" smooth="yes"/>
      <point x="309" y="550"/>
      <point x="325" y="565"/>
      <point x="329" y="587" type="curve" smooth="yes"/>
      <point x="333" y="609"/>
      <point x="322" y="622"/>
      <point x="301" y="622" type="curve" smooth="yes"/>
      <point x="280" y="622"/>
      <point x="265" y="609"/>
    </contour>
    <contour>
      <point x="87" y="394" type="curve" smooth="yes"/>
      <point x="104" y="489"/>
      <point x="214" y="520"/>
      <point x="283" y="520" type="curve" smooth="yes"/>
      <point x="352" y="520"/>
      <point x="450" y="489"/>
      <point x="433" y="394" type="curve" smooth="yes"/>
      <point x="418" y="311"/>
      <point x="325" y="268"/>
      <point x="238" y="268" type="curve" smooth="yes"/>
      <point x="151" y="268"/>
      <point x="72" y="311"/>
    </contour>
    <contour>
      <point x="224" y="415" type="curve" smooth="yes"/>
      <point x="219" y="387"/>
      <point x="233" y="373"/>
      <point x="257" y="373" type="curve" smooth="yes"/>
      <point x="281" y="373"/>
      <point x="299" y="387"/>
      <point x="304" y="415" type="curve" smooth="yes"/>
      <point x="308" y="437"/>
      <point x="295" y="454"/>
      <point x="271" y="454" type="curve" smooth="yes"/>
      <point x="247" y="454"/>
      <point x="228" y="437"/>
    </contour>
  </outline>
</glyph>
<glyph name="uni2081" format="1">
  <advance width="389"/>
  <unicode hex="2081"/>
  <outline>
    <contour>
      <point x="139" y="276" type="line"/>
      <point x="158" y="386" type="line"/>
      <point x="403" y="430" type="line"/>
      <point x="327" y="1" type="line"/>
      <point x="201" y="1" type="line"/>
      <point x="254" y="301" type="line"/>
    </contour>
  </outline>
</glyph>
<glyph name="uni2082" format="1">
  <advance width="450"/>
  <unicode hex="2082"/>
  <outline>
    <contour>
      <point x="30" y="2" type="line"/>
      <point x="244" y="185" type="line" smooth="yes"/>
      <point x="288" y="225"/>
      <point x="315" y="248"/>
      <point x="321" y="281" type="curve" smooth="yes"/>
      <point x="325" y="302"/>
      <point x="315" y="321"/>
      <point x="284" y="321" type="curve" smooth="yes"/>
      <point x="254" y="321"/>
      <point x="229" y="294"/>
      <point x="223" y="260" type="curve"/>
      <point x="94" y="260" type="line"/>
      <point x="110" y="349"/>
      <point x="185" y="432"/>
      <point x="308" y="432" type="curve" smooth="yes"/>
      <point x="419" y="432"/>
      <point x="471" y="362"/>
      <point x="458" y="291" type="curve" smooth="yes"/>
      <point x="450" y="245"/>
      <point x="419" y="209"/>
      <point x="376" y="180" type="curve" smooth="yes"/>
      <point x="290" y="122" type="line"/>
      <point x="444" y="122" type="line"/>
      <point x="422" y="2" type="line"/>
    </contour>
  </outline>
</glyph>
<glyph name="uni2083" format="1">
  <advance width="408"/>
  <unicode hex="2083"/>
  <outline>
    <contour>
      <point x="204" y="201" type="curve"/>
      <point x="214" y="254" type="line"/>
      <point x="256" y="254"/>
      <point x="291" y="276"/>
      <point x="295" y="301" type="curve" smooth="yes"/>
      <point x="298" y="317"/>
      <point x="288" y="327"/>
      <point x="262" y="327" type="curve" smooth="yes"/>
      <point x="235" y="327"/>
      <point x="213" y="311"/>
      <point x="209" y="286" type="curve"/>
      <point x="88" y="286" type="line"/>
      <point x="102" y="366"/>
      <point x="179" y="429"/>
      <point x="281" y="429" type="curve" smooth="yes"/>
      <point x="389" y="429"/>
      <point x="439" y="378"/>
      <point x="427" y="310" type="curve" smooth="yes"/>
      <point x="413" y="230"/>
      <point x="315" y="201"/>
    </contour>
    <contour>
      <point x="197" y="-12" type="curve" smooth="yes"/>
      <point x="83" y="-12"/>
      <point x="32" y="67"/>
      <point x="46" y="147" type="curve"/>
      <point x="176" y="147" type="line"/>
      <point x="168" y="104"/>
      <point x="194" y="90"/>
      <point x="221" y="90" type="curve" smooth="yes"/>
      <point x="248" y="90"/>
      <point x="272" y="98"/>
      <point x="277" y="129" type="curve" smooth="yes"/>
      <point x="281" y="154"/>
      <point x="266" y="177"/>
      <point x="200" y="177" type="curve"/>
      <point x="211" y="239" type="line"/>
      <point x="340" y="239"/>
      <point x="420" y="203"/>
      <point x="405" y="117" type="curve" smooth="yes"/>
      <point x="392" y="43"/>
      <point x="317" y="-12"/>
    </contour>
  </outline>
</glyph>
<glyph name="uni2085" format="1">
  <advance width="420"/>
  <unicode hex="2085"/>
  <outline>
    <contour>
      <point x="410" y="130" type="curve" smooth="yes"/>
      <point x="392" y="29"/>
      <point x="283" y="-11"/>
      <point x="202" y="-11" type="curve" smooth="yes"/>
      <point x="125" y="-11"/>
      <point x="72" y="5"/>
      <point x="29" y="23" type="curve"/>
      <point x="87" y="140" type="line"/>
      <point x="126" y="116"/>
      <point x="165" y="109"/>
      <point x="187" y="109" type="curve" smooth="yes"/>
      <point x="232" y="109"/>
      <point x="263" y="117"/>
      <point x="268" y="148" type="curve" smooth="yes"/>
      <point x="273" y="179"/>
      <point x="233" y="184"/>
      <point x="200" y="184" type="curve" smooth="yes"/>
      <point x="172" y="184"/>
      <point x="119" y="180"/>
      <point x="73" y="164" type="curve"/>
      <point x="178" y="222" type="line"/>
      <point x="218" y="258"/>
      <point x="258" y="265"/>
      <point x="305" y="265" type="curve" smooth="yes"/>
      <point x="368" y="265"/>
      <point x="426" y="219"/>
    </contour>
    <contour>
      <point x="254" y="304" type="line"/>
      <point x="200" y="212" type="line"/>
      <point x="73" y="164" type="line"/>
      <point x="178" y="418" type="line"/>
      <point x="448" y="418" type="line"/>
      <point x="428" y="304" type="line"/>
    </contour>
  </outline>
</glyph>
<glyph name="uni2086" format="1">
  <advance width="424"/>
  <unicode hex="2086"/>
  <outline>
    <contour>
      <point x="178" y="151" type="curve" smooth="yes"/>
      <point x="172" y="117"/>
      <point x="193" y="97"/>
      <point x="225" y="97" type="curve" smooth="yes"/>
      <point x="257" y="97"/>
      <point x="285" y="117"/>
      <point x="291" y="151" type="curve" smooth="yes"/>
      <point x="297" y="185"/>
      <point x="276" y="206"/>
      <point x="244" y="206" type="curve" smooth="yes"/>
      <point x="212" y="206"/>
      <point x="184" y="185"/>
    </contour>
    <contour>
      <point x="264" y="415" type="line"/>
      <point x="431" y="415" type="line"/>
      <point x="269" y="276" type="line"/>
      <point x="235" y="260" type="line"/>
      <point x="265" y="283"/>
      <point x="281" y="288"/>
      <point x="313" y="288" type="curve" smooth="yes"/>
      <point x="372" y="288"/>
      <point x="439" y="240"/>
      <point x="423" y="151" type="curve" smooth="yes"/>
      <point x="403" y="38"/>
      <point x="308" y="-14"/>
      <point x="206" y="-14" type="curve" smooth="yes"/>
      <point x="104" y="-14"/>
      <point x="27" y="38"/>
      <point x="47" y="151" type="curve" smooth="yes"/>
      <point x="56" y="203"/>
      <point x="91" y="245"/>
      <point x="132" y="286" type="curve" smooth="yes"/>
    </contour>
  </outline>
</glyph>
<glyph name="uni2089" format="1">
  <advance width="430"/>
  <unicode hex="2089"/>
  <outline>
    <contour>
      <point x="316" y="269" type="curve" smooth="yes"/>
      <point x="322" y="303"/>
      <point x="302" y="323"/>
      <point x="270" y="323" type="curve" smooth="yes"/>
      <point x="238" y="323"/>
      <point x="209" y="303"/>
      <point x="203" y="269" type="curve" smooth="yes"/>
      <point x="197" y="235"/>
      <point x="219" y="214"/>
      <point x="251" y="214" type="curve" smooth="yes"/>
      <point x="283" y="214"/>
      <point x="310" y="235"/>
    </contour>
    <contour>
      <point x="231" y="5" type="line"/>
      <point x="63" y="5" type="line"/>
      <point x="226" y="144" type="line"/>
      <point x="260" y="160" type="line"/>
      <point x="230" y="137"/>
      <point x="213" y="132"/>
      <point x="181" y="132" type="curve" smooth="yes"/>
      <point x="122" y="132"/>
      <point x="56" y="180"/>
      <point x="72" y="269" type="curve" smooth="yes"/>
      <point x="92" y="382"/>
      <point x="188" y="434"/>
      <point x="290" y="434" type="curve" smooth="yes"/>
      <point x="392" y="434"/>
      <point x="468" y="382"/>
      <point x="448" y="269" type="curve" smooth="yes"/>
      <point x="439" y="217"/>
      <point x="403" y="175"/>
      <point x="362" y="134" type="curve" smooth="yes"/>
    </contour>
  </outline>
</glyph>
<glyph name="trademark" format="1">
  <advance width="795"/>
  <unicode hex="2122"/>
  <outline>
    <contour>
      <point x="134" y="602" type="line"/>
      <point x="151" y="700" type="line"/>
      <point x="461" y="700" type="line"/>
      <point x="444" y="602" type="line"/>
      <point x="344" y="602" type="line"/>
      <point x="300" y="350" type="line"/>
      <point x="190" y="350" type="line"/>
      <point x="234" y="602" type="line"/>
    </contour>
    <contour>
      <point x="730" y="588" type="line"/>
      <point x="835" y="718" type="line"/>
      <point x="835" y="350" type="line"/>
      <point x="718" y="350" type="line"/>
    </contour>
    <contour>
      <point x="525" y="718" type="line"/>
      <point x="584" y="588" type="line"/>
      <point x="512" y="350" type="line"/>
      <point x="395" y="350" type="line"/>
    </contour>
    <contour>
      <point x="835" y="718" type="line"/>
      <point x="811" y="585" type="line"/>
      <point x="620" y="382" type="line"/>
      <point x="501" y="585" type="line"/>
      <point x="525" y="718" type="line"/>
      <point x="646" y="528" type="line"/>
    </contour>
  </outline>
</glyph>
<glyph name="uni2151" format="1">
  <advance width="944"/>
  <unicode hex="2151"/>
  <outline>
    <contour>
      <point x="741" y="700" type="line"/>
      <point x="896" y="700" type="line"/>
      <point x="253" y="0" type="line"/>
      <point x="98" y="0" type="line"/>
    </contour>
    <contour>
      <point x="117" y="549" type="line"/>
      <point x="136" y="659" type="line"/>
      <point x="381" y="703" type="line"/>
      <point x="305" y="274" type="line"/>
      <point x="179" y="274" type="line"/>
      <point x="232" y="574" type="line"/>
    </contour>
    <contour>
      <point x="834" y="269" type="curve" smooth="yes"/>
      <point x="840" y="303"/>
      <point x="820" y="323"/>
      <point x="788" y="323" type="curve" smooth="yes"/>
      <point x="756" y="323"/>
      <point x="727" y="303"/>
      <point x="721" y="269" type="curve" smooth="yes"/>
      <point x="715" y="235"/>
      <point x="737" y="214"/>
      <point x="769" y="214" type="curve" smooth="yes"/>
      <point x="801" y="214"/>
      <point x="828" y="235"/>
    </contour>
    <contour>
      <point x="749" y="5" type="line"/>
      <point x="581" y="5" type="line"/>
      <point x="744" y="144" type="line"/>
      <point x="778" y="160" type="line"/>
      <point x="748" y="137"/>
      <point x="731" y="132"/>
      <point x="699" y="132" type="curve" smooth="yes"/>
      <point x="640" y="132"/>
      <point x="574" y="180"/>
      <point x="590" y="269" type="curve" smooth="yes"/>
      <point x="610" y="382"/>
      <point x="706" y="434"/>
      <point x="808" y="434" type="curve" smooth="yes"/>
      <point x="910" y="434"/>
      <point x="986" y="382"/>
      <point x="966" y="269" type="curve" smooth="yes"/>
      <point x="957" y="217"/>
      <point x="921" y="175"/>
      <point x="880" y="134" type="curve" smooth="yes"/>
    </contour>
  </outline>
</glyph>
<glyph name="onethird" format="1">
  <advance width="945"/>
  <unicode hex="2153"/>
  <outline>
    <contour>
      <point x="740" y="700" type="line"/>
      <point x="895" y="700" type="line"/>
      <point x="252" y="0" type="line"/>
      <point x="97" y="0" type="line"/>
    </contour>
    <contour>
      <point x="117" y="549" type="line"/>
      <point x="136" y="659" type="line"/>
      <point x="381" y="703" type="line"/>
      <point x="305" y="274" type="line"/>
      <point x="179" y="274" type="line"/>
      <point x="232" y="574" type="line"/>
    </contour>
    <contour>
      <point x="742" y="201" type="curve"/>
      <point x="752" y="254" type="line"/>
      <point x="794" y="254"/>
      <point x="829" y="276"/>
      <point x="833" y="301" type="curve" smooth="yes"/>
      <point x="836" y="317"/>
      <point x="826" y="327"/>
      <point x="800" y="327" type="curve" smooth="yes"/>
      <point x="773" y="327"/>
      <point x="751" y="311"/>
      <point x="747" y="286" type="curve"/>
      <point x="626" y="286" type="line"/>
      <point x="640" y="366"/>
      <point x="717" y="429"/>
      <point x="819" y="429" type="curve" smooth="yes"/>
      <point x="927" y="429"/>
      <point x="977" y="378"/>
      <point x="965" y="310" type="curve" smooth="yes"/>
      <point x="951" y="230"/>
      <point x="853" y="201"/>
    </contour>
    <contour>
      <point x="735" y="-12" type="curve" smooth="yes"/>
      <point x="621" y="-12"/>
      <point x="570" y="67"/>
      <point x="584" y="147" type="curve"/>
      <point x="714" y="147" type="line"/>
      <point x="706" y="104"/>
      <point x="732" y="90"/>
      <point x="759" y="90" type="curve" smooth="yes"/>
      <point x="786" y="90"/>
      <point x="810" y="98"/>
      <point x="815" y="129" type="curve" smooth="yes"/>
      <point x="819" y="154"/>
      <point x="804" y="177"/>
      <point x="738" y="177" type="curve"/>
      <point x="749" y="239" type="line"/>
      <point x="878" y="239"/>
      <point x="958" y="203"/>
      <point x="943" y="117" type="curve" smooth="yes"/>
      <point x="930" y="43"/>
      <point x="855" y="-12"/>
    </contour>
  </outline>
</glyph>
<glyph name="twothirds" format="1">
  <advance width="1082"/>
  <unicode hex="2154"/>
  <outline>
    <contour>
      <point x="898" y="700" type="line"/>
      <point x="1053" y="700" type="line"/>
      <point x="410" y="0" type="line"/>
      <point x="255" y="0" type="line"/>
    </contour>
    <contour>
      <point x="80" y="282" type="line"/>
      <point x="293" y="465" type="line" smooth="yes"/>
      <point x="337" y="505"/>
      <point x="364" y="528"/>
      <point x="370" y="561" type="curve" smooth="yes"/>
      <point x="374" y="582"/>
      <point x="364" y="601"/>
      <point x="333" y="601" type="curve" smooth="yes"/>
      <point x="303" y="601"/>
      <point x="278" y="574"/>
      <point x="272" y="540" type="curve"/>
      <point x="143" y="540" type="line"/>
      <point x="159" y="629"/>
      <point x="235" y="712"/>
      <point x="358" y="712" type="curve" smooth="yes"/>
      <point x="469" y="712"/>
      <point x="521" y="642"/>
      <point x="508" y="571" type="curve" smooth="yes"/>
      <point x="500" y="525"/>
      <point x="468" y="489"/>
      <point x="425" y="460" type="curve" smooth="yes"/>
      <point x="339" y="402" type="line"/>
      <point x="493" y="402" type="line"/>
      <point x="472" y="282" type="line"/>
    </contour>
    <contour>
      <point x="879" y="201" type="curve"/>
      <point x="889" y="254" type="line"/>
      <point x="931" y="254"/>
      <point x="966" y="276"/>
      <point x="970" y="301" type="curve" smooth="yes"/>
      <point x="973" y="317"/>
      <point x="963" y="327"/>
      <point x="937" y="327" type="curve" smooth="yes"/>
      <point x="910" y="327"/>
      <point x="888" y="311"/>
      <point x="884" y="286" type="curve"/>
      <point x="763" y="286" type="line"/>
      <point x="777" y="366"/>
      <point x="854" y="429"/>
      <point x="956" y="429" type="curve" smooth="yes"/>
      <point x="1064" y="429"/>
      <point x="1114" y="378"/>
      <point x="1102" y="310" type="curve" smooth="yes"/>
      <point x="1088" y="230"/>
      <point x="990" y="201"/>
    </contour>
    <contour>
      <point x="872" y="-12" type="curve" smooth="yes"/>
      <point x="758" y="-12"/>
      <point x="707" y="67"/>
      <point x="721" y="147" type="curve"/>
      <point x="851" y="147" type="line"/>
      <point x="843" y="104"/>
      <point x="869" y="90"/>
      <point x="896" y="90" type="curve" smooth="yes"/>
      <point x="923" y="90"/>
      <point x="947" y="98"/>
      <point x="952" y="129" type="curve" smooth="yes"/>
      <point x="956" y="154"/>
      <point x="941" y="177"/>
      <point x="875" y="177" type="curve"/>
      <point x="886" y="239" type="line"/>
      <point x="1015" y="239"/>
      <point x="1095" y="203"/>
      <point x="1080" y="117" type="curve" smooth="yes"/>
      <point x="1067" y="43"/>
      <point x="992" y="-12"/>
    </contour>
  </outline>
</glyph>
<glyph name="uni2155" format="1">
  <advance width="934"/>
  <unicode hex="2155"/>
  <outline>
    <contour>
      <point x="741" y="700" type="line"/>
      <point x="896" y="700" type="line"/>
      <point x="253" y="0" type="line"/>
      <point x="98" y="0" type="line"/>
    </contour>
    <contour>
      <point x="117" y="549" type="line"/>
      <point x="136" y="659" type="line"/>
      <point x="381" y="703" type="line"/>
      <point x="305" y="274" type="line"/>
      <point x="179" y="274" type="line"/>
      <point x="232" y="574" type="line"/>
    </contour>
    <contour>
      <point x="938" y="130" type="curve" smooth="yes"/>
      <point x="920" y="29"/>
      <point x="811" y="-11"/>
      <point x="730" y="-11" type="curve" smooth="yes"/>
      <point x="653" y="-11"/>
      <point x="600" y="5"/>
      <point x="557" y="23" type="curve"/>
      <point x="615" y="140" type="line"/>
      <point x="654" y="116"/>
      <point x="693" y="109"/>
      <point x="715" y="109" type="curve" smooth="yes"/>
      <point x="760" y="109"/>
      <point x="791" y="117"/>
      <point x="796" y="148" type="curve" smooth="yes"/>
      <point x="801" y="179"/>
      <point x="761" y="184"/>
      <point x="728" y="184" type="curve" smooth="yes"/>
      <point x="700" y="184"/>
      <point x="647" y="180"/>
      <point x="601" y="164" type="curve"/>
      <point x="706" y="222" type="line"/>
      <point x="746" y="258"/>
      <point x="786" y="265"/>
      <point x="833" y="265" type="curve" smooth="yes"/>
      <point x="896" y="265"/>
      <point x="954" y="219"/>
    </contour>
    <contour>
      <point x="782" y="304" type="line"/>
      <point x="728" y="212" type="line"/>
      <point x="601" y="164" type="line"/>
      <point x="706" y="418" type="line"/>
      <point x="976" y="418" type="line"/>
      <point x="956" y="304" type="line"/>
    </contour>
  </outline>
</glyph>
<glyph name="uni2156" format="1">
  <advance width="1086"/>
  <unicode hex="2156"/>
  <outline>
    <contour>
      <point x="898" y="700" type="line"/>
      <point x="1053" y="700" type="line"/>
      <point x="410" y="0" type="line"/>
      <point x="255" y="0" type="line"/>
    </contour>
    <contour>
      <point x="80" y="282" type="line"/>
      <point x="293" y="465" type="line" smooth="yes"/>
      <point x="337" y="505"/>
      <point x="364" y="528"/>
      <point x="370" y="561" type="curve" smooth="yes"/>
      <point x="374" y="582"/>
      <point x="364" y="601"/>
      <point x="333" y="601" type="curve" smooth="yes"/>
      <point x="303" y="601"/>
      <point x="278" y="574"/>
      <point x="272" y="540" type="curve"/>
      <point x="143" y="540" type="line"/>
      <point x="159" y="629"/>
      <point x="235" y="712"/>
      <point x="358" y="712" type="curve" smooth="yes"/>
      <point x="469" y="712"/>
      <point x="521" y="642"/>
      <point x="508" y="571" type="curve" smooth="yes"/>
      <point x="500" y="525"/>
      <point x="468" y="489"/>
      <point x="425" y="460" type="curve" smooth="yes"/>
      <point x="339" y="402" type="line"/>
      <point x="493" y="402" type="line"/>
      <point x="472" y="282" type="line"/>
    </contour>
    <contour>
      <point x="1075" y="130" type="curve" smooth="yes"/>
      <point x="1057" y="29"/>
      <point x="948" y="-11"/>
      <point x="867" y="-11" type="curve" smooth="yes"/>
      <point x="790" y="-11"/>
      <point x="737" y="5"/>
      <point x="694" y="23" type="curve"/>
      <point x="752" y="140" type="line"/>
      <point x="791" y="116"/>
      <point x="830" y="109"/>
      <point x="852" y="109" type="curve" smooth="yes"/>
      <point x="897" y="109"/>
      <point x="928" y="117"/>
      <point x="933" y="148" type="curve" smooth="yes"/>
      <point x="938" y="179"/>
      <point x="898" y="184"/>
      <point x="865" y="184" type="curve" smooth="yes"/>
      <point x="837" y="184"/>
      <point x="784" y="180"/>
      <point x="738" y="164" type="curve"/>
      <point x="843" y="222" type="line"/>
      <point x="883" y="258"/>
      <point x="923" y="265"/>
      <point x="970" y="265" type="curve" smooth="yes"/>
      <point x="1033" y="265"/>
      <point x="1091" y="219"/>
    </contour>
    <contour>
      <point x="919" y="304" type="line"/>
      <point x="865" y="212" type="line"/>
      <point x="738" y="164" type="line"/>
      <point x="843" y="418" type="line"/>
      <point x="1113" y="418" type="line"/>
      <point x="1093" y="304" type="line"/>
    </contour>
  </outline>
</glyph>
